/* XPM */
static char *result[] = {
/* columns rows colors chars-per-pixel */
"5 5 3 1 ",
"  c black",
". c #FBF236",
"X c white",
/* pixels */
". X .",
"  X  ",
"XXXXX",
"  X  ",
". X ."
};
