/* XPM */
static char *result[] = {
/* columns rows colors chars-per-pixel */
"5 5 2 1 ",
"  c #AC3232",
". c white",
/* pixels */
"     ",
" ....",
"   ..",
" ....",
"     "
};
