/* XPM */
static char *result[] = {
/* columns rows colors chars-per-pixel */
"5 5 2 1 ",
"  c #847E87",
". c white",
/* pixels */
".    ",
" ....",
".   .",
".... ",
"    ."
};
