/* XPM */
static char *out[] = {
/* columns rows colors chars-per-pixel */
"40 40 29 1 ",
"  c black",
". c #130E0A",
"X c #1C150E",
"o c #211C15",
"O c #2B1F15",
"+ c #281D19",
"@ c #2E271E",
"# c #30221D",
"$ c #352F23",
"% c #393327",
"& c #3F392D",
"* c #422D25",
"= c #54392F",
"- c #403D30",
"; c #453F33",
": c #4E4C39",
"> c #5B5644",
", c #795041",
"< c #686553",
"1 c #6F6C51",
"2 c #726F5C",
"3 c #7B7660",
"4 c #B0735D",
"5 c #807E6D",
"6 c #858267",
"7 c #949076",
"8 c #A29E83",
"9 c #ADA991",
"0 c #B7B49C",
/* pixels */
"$:##=,,,,,=*****##+++++++*,44,==#..     ",
"$66<##=,,=,,,=*****###+++*,4444=#.      ",
"$66<##=,,=,,,=*****###+++*,4444=#.      ",
"$66782##=,,,,,,=*******##*,4444=#.      ",
"$66882##=,,,,,,=*******##*,4444=#.      ",
"$6678805##=,,,,,,,=*****#*,4444=#.      ",
"$661880005##=,,,,,=,,=**#*,4444=#..     ",
"$661880005##=,,,,,=,,=**#*,4444=#..     ",
"&88788000005##=,,,,=,,=*#*,4444=#.      ",
"&88688000005##=,,,,=,,=*#*,4444=#.      ",
"&8868800000005##=,,,=,=*#*,,444=#.      ",
";6688800000005##=,,,=,=*#*,,444=#.      ",
";668880000000005##=,=,=*#*,4,44=#.      ",
"&778880000000005##=,=,=*#*,4,44=#X..... ",
";88888000000000005##=,=*#*,4444=#XXX..  ",
"%88888000000000005##=,=*#*,4444=#. .    ",
"&8888899000000000005#####*,4444*#..     ",
"&8888899000000000005#####*,4444*#..     ",
"&8888899000000000000833-#*=,,44=#.      ",
"&8888888000000009909333-#*==#,4=#.      ",
";8888899000000008888333-#*==#,4=#X      ",
"%7788888000000989989833>o###*=,,#.      ",
"%7788888000000989989833>o###*=,,#.      ",
"$6688888000008000000833>@   ####O.      ",
"%8878800000000000000833>@   ####O.      ",
"%8888800000000000000833>@   ..XXX.      ",
"&8888888000000000000833>@   .XXXX.      ",
"&8888888000000000000833>@   .XXXX.      ",
"&7788888000000000000833>@ ....XOO..     ",
"%7788888000000000000833>@   ..XOO.      ",
"&6688888000000000000833>@   .XXOO.      ",
"&6678888000000000000833>@ .. .XOO.      ",
"&6678888000000000000833>@ .. .XOO.      ",
"&7788899000000000000833>@   .X.OO.      ",
"&7788899000000000000833>@.XXXXXOO...    ",
"%8888899000000000000833>@.XXOOOOOXX.    ",
"%8888800000000000009833>@   ..XOO.      ",
"%8888800000000000009833>@   ..XOO.      ",
"%8888800000000000009833>@ .. .XXX.X     ",
"&8888800000000000000333>@   .XXXXX      "
};
