/* XPM */
static char *out[] = {
/* columns rows colors chars-per-pixel */
"40 40 13 1 ",
"  c black",
". c #130E0A",
"X c #281D19",
"o c #2F221C",
"O c #30221D",
"+ c #382720",
"@ c #3D2A23",
"# c #393327",
"$ c #422D25",
"% c #54392F",
"& c #5D5B48",
"* c #795041",
"= c #B0735D",
/* pixels */
"      .O%%*==*$XXXXXXXOO$$$$$%*****%OO&#",
"      .O$==%*%$XXXXXXXXXXO$$$$$$%***%OOO",
"     ..O$==%*%$XXXXXXXXXXO$$$$$$%***%OOO",
"     ..O%===*%OXXXXXXXXXXXXOO$$$$$$%%O$O",
"      .O%===*%OXXXXXXXXXXXXOO$$$$$$%%O$O",
"     ..O%===$%OXXXXXXXXXXXXXXoOO$$$$$O$O",
"      .O%===$%OXXXXXXXXXXXXXXoOO$$$$$O$O",
"      .O%====%OXXXXXXXXXXXXXXooo+OO$$O%O",
"      .O%====%$XXXXXXXXXXXXXXooo+++@OO%O",
"      .O%====%$XXXXXXXXXXXXXXooo+++@OO%O",
"      .O%====*$XXXXXXXXXXXXXXooo+++@@@%O",
"      .O%====*$XXXXXXXXXXXXXXooo+++@@@%O",
"      .O%====*$XXXXXXXXXXXXXXooo+++@@@%O",
"      .O%====*$XXXXXXXXXXXXXXooo+++@@@%O",
"      .O%====*$XXXXXXXXXXXXXXooo+++@@@%O",
"      .O%====*$XXXXXXXXXXXXXXooo+++@@@%O",
"      .O%====*$XXXXXXXXXXXXXXooo+++@@@%O",
"      .O%====*$XXXXXXXXXXXXXXooo+++@@@%O",
"      .O%====*$XXXXXXXXXXXXXXooo+++@@@%O",
"      .O%====*$XXXXXXXXXXXXXXooo+++@@@%O",
"      .O%====*$XXXXXXXXXXXXXXooo+++@@@%O",
"      .O%====*$XXXXXXXXXXXXXXooo+++@@@%O",
"      .O%====*$XXXXXXXXXXXXXXooo+++@@@%O",
"      .O%====*$XXXXXXXXXXXXXXooo+++@@@%O",
"     ..O%====*$XXXXXXXXXXXXXXooo+++@@@%O",
"     ..O%====*$XXXXXXXXXXXXXXooo+++@@@%O",
"      .O%====*$XXXXXXXXXXXXXXooo+++@@@%O",
"      .O%====*$XXXXXXXXXXXXXXooo+++@@@%O",
"      .O%====*$XXXXXXXXXXXXXXooo+++@@@%O",
"    . .O%====*$XXXXXXXXXXXXXXooo+++@@@%O",
"  ..  .O%====*$XXXXXXXXXXXXXXooo+++@@@%O",
" ......O%*===%$XXXXXXXXXXXXXXooo+++@OO%O",
"  .....O%*===%$XXXXXXXXXXXXXXooo+++@OO%O",
"  .....O%*===%$XXXXXXXXXXXXXXooo+OO$$O%O",
"    ...O%*===%$XXXXXXXXXXXXXXoOO$$$$$O$O",
"      .O%*===%$XXXXXXXXXXXXXXoOO$$$$$O$O",
"      .O%*===%$XXXXXXXXXXXXOO$$$$$$%%O$O",
"      .O%*===%$XXXXXXXXXXXXOO$$$$$$%%O$O",
"      .O%*===%$XXXXXXXXXXO$$$$$$%***%OOO",
"      .O%*===%$XXXXXXXXXXO$$$$$$%***%OOO"
};
