/* XPM */
static char *out[] = {
/* columns rows colors chars-per-pixel */
"40 40 29 1 ",
"  c black",
". c #130E0A",
"X c #1C150E",
"o c #211C15",
"O c #2B1F15",
"+ c #281D19",
"@ c #2E271E",
"# c #30221D",
"$ c #352F23",
"% c #393327",
"& c #3F392D",
"* c #422D25",
"= c #54392F",
"- c #403D30",
"; c #453F33",
": c #4E4C39",
"> c #5B5644",
", c #795041",
"< c #686553",
"1 c #6F6C51",
"2 c #726F5C",
"3 c #7B7660",
"4 c #B0735D",
"5 c #807E6D",
"6 c #858267",
"7 c #949076",
"8 c #A29E83",
"9 c #ADA991",
"0 c #B7B49C",
/* pixels */
"                                        ",
"             .                          ",
"             ..                         ",
"             ..                         ",
"             .X.                  ..    ",
".     ..     .X ..          .     .X  X ",
".............XX.....X..............X...X",
"#######################OOXXXOOOOOOOOOOXX",
"================**===,,##XXXOOOOOOOOOOXX",
"=44444444444444444444,,##XXXXXXXX.XOXXXX",
",444444444444444444,,==##.XX..X..XXO...X",
"444444444444,,4444,##**##......  .XO.. .",
"4444444444,,444444,==##     .  .. XX  . ",
",,,,,,,,,,,,,,,,,,===##     .  .. XX  . ",
"*********************##           ..    ",
"+++##################oo@@@@@@@@@@@@@@@@@",
"+++##***********##--->>>>>>>>>>>>>>>>>>>",
"+++*****========##3333333333333333333333",
"+##***==,,,,,,,,##3333333333333333333333",
"+##***,,,,======##8338888888888888888883",
"+##***,,==,,,,##550989900000000000009990",
"+****===,,,,==##000088800000000000000000",
"#****,,,,,,,##55000989900000000000000000",
"#****,,,,,==##00000989900000000000000000",
"***==,,,,,##5500000008800000000000000000",
"***,,,,,==##0000000009900000000000000000",
"*==,,,,,##550000000000080000000000000000",
"*,,,,,==##000000000000000000000000000000",
"*,,,,,##55000000000000000000000000000000",
"=,,,,=##00000000000000000000000000000000",
",==,,#5500000000000000000000000000000000",
",,,==#0000000000000000000000000000000000",
",,,##50000000000999898880088888889990000",
",==##00000000000999898880088888889990000",
",##2288888888888888888888888888888888888",
"=##8888888888888888888888888888888888888",
"#<<7871176688888888888887888888778888888",
"#666666688866788888887768888776667788888",
":666666688866788888887768888776667788888",
"$$$$$$$$&&&;;&;%&&&&;%%$%%&&&%&&&&&%%%%&"
};
