/* XPM */
static char *out[] = {
/* columns rows colors chars-per-pixel */
"40 40 30 1 ",
"  c black",
". c #130E0A",
"X c #140F0A",
"o c #1C150E",
"O c #211C15",
"+ c #2B1F15",
"@ c #281D19",
"# c #2E271E",
"$ c #30221D",
"% c #352F23",
"& c #393327",
"* c #3F392D",
"= c #422D25",
"- c #54392F",
"; c #403D30",
": c #453F33",
"> c #55533F",
", c #5B5644",
"< c #795041",
"1 c #6F6C51",
"2 c #726F5C",
"3 c #79765A",
"4 c #7B7660",
"5 c #B0735D",
"6 c #807E6D",
"7 c #858267",
"8 c #949076",
"9 c #A29E83",
"0 c #ADA991",
"q c #B7B49C",
/* pixels */
"%77110qqqqqqqqqqqqq0944,##   .o++.      ",
":8839900qqqqqqqqqqq0944,##   .o++.      ",
":8839900qqqqqqqqqqq0944,##   .o++.      ",
"&9989900qqqqqqqqqqqq944,##   .ooo.      ",
"*9979900qqqqqqqqqqqq944,##   .o++.      ",
":8889900qqqqqqqqqqqq944,#    oo++.      ",
":7799900qqqqqqqqqqqq444,#    .o++.      ",
":7799900qqqqqqqqqqqq444,#    .o++.      ",
"&9999900qqqqqqqqqqqq944,#    .o++.      ",
":9999900qqqqqqqqqqqq944,#    .o++..     ",
"*9999900qqqqqqqqqqqq944,#    .o++.      ",
"*9999900qqqqqqqqqqqq944,#    .ooo.      ",
"*9999900qqqqqqqqqqqq944,#    .ooo.      ",
"*9999900qqqqqqqqqqqq944,#   ..o++.      ",
"*9999999qqqqqqqq9999444,#+  $$$$X.      ",
":99999qqqqqqqqqq9999,44,#+  $$$$X.      ",
"%8899999qqqqq09q00qq944,O$$$=-<<$..     ",
"%8899999qqqqq09q00qq944,O$$$=-<<$..     ",
"%7799900qq0990qqqqqq944;$=-<$<5-$...    ",
"&8899900qqqqqqqqqqqq944;$=-<$<5-$...... ",
"*9999900qqqqqqqqqqqq944;$=-5<55-$.      ",
"*9999999qqqqqqqqqqqq2$$$$=<5555-$.      ",
"*9999999qqqqqqqqqqqq2$$$$=<5555-$.      ",
"*9999999qqqqqqqqqq6$$--=$=<5555-$.      ",
"*8899999qqqqqqqqqq6$$--=$=<5555-$.      ",
"*7799999qqqqqqqq6$$-<<-=$=<5555-$.      ",
"&7799999qqqqqqqq6$$-<<-=$=<5555-$.      ",
"&7799999qqqqqq6$$-<<<<-=$=<5555-$.      ",
"*8899900qqqqqq6$$-<<<<-=$=<5555-$.      ",
"*9999900qqqq6$$-<<<<<<-=$=-5555-$.      ",
"*9999900qqqq6$$-<<<<<<-=$=-5555-$..     ",
"*9999900qq6$$-<---<<<-==$=-5555-$.      ",
"*9999900qq6$$-<---<<<-==$=-5555-$.      ",
"*99999qq6$$-<<<<<<-=====$=-5555-$.      ",
"*999996$$-<<<<<-=======$$=<555<-$.      ",
"*889996$$-<<<<<-=======$$=<555<-$.      ",
"&1112$$-<<<<<-=====$$$@@@=<555<=$.      ",
"&1112$$-<<<<<-=====$$$@@@=<555<=$.      ",
"&>$$$-<<<<-=====$$@@@@@@@=-555--$.      ",
"&2$$$-<<<<-=====$$@@@@@@@=-555--$..     "
};
