/* XPM */
static char *out[] = {
/* columns rows colors chars-per-pixel */
"40 40 29 1 ",
"  c black",
". c #130E0A",
"X c #1C150E",
"o c #211C15",
"O c #2B1F15",
"+ c #281D19",
"@ c #2E271E",
"# c #30221D",
"$ c #352F23",
"% c #393327",
"& c #3F392D",
"* c #422D25",
"= c #54392F",
"- c #403D30",
"; c #453F33",
": c #4E4C39",
"> c #5B5644",
", c #795041",
"< c #686553",
"1 c #6F6C51",
"2 c #726F5C",
"3 c #7B7660",
"4 c #B0735D",
"5 c #807E6D",
"6 c #858267",
"7 c #949076",
"8 c #A29E83",
"9 c #ADA991",
"0 c #B7B49C",
/* pixels */
"      XXXXX.   @>3330000000000000088888&",
"     X.XXX. .. @>3389000000000000088888%",
"      .OOX..   @>3389000000000000088888%",
"      .OOX..   @>3389000000000000088888%",
"    .XXOOOOOXX.@>3380000000000009988888%",
"    ...OOXXXXX.@>3380000000000009988877&",
"      .OO.X.   @>3380000000000009988877&",
"      .OOX. .. @>3380000000000008888766&",
"      .OOX. .. @>3380000000000008888766&",
"      .OOXX.   @>3380000000000008888866&",
"      .OOX..   @>3380000000000008888877%",
"     ..OOX.... @>3380000000000008888877&",
"      .XXXX.   @>3380000000000008888888&",
"      .XXXX.   @>3380000000000008888888&",
"      .XXX..   @>3380000000000000088888%",
"      .O####   @>3380000000000000088788%",
"      .O####   @>3380000008000008888866$",
"      .#,,=*###o>3389899890000008888877%",
"      .#,,=*###o>3389899890000008888877%",
"      X#=4,#==*#-3338888000000009988888;",
"      .#=4,#==*#-3339099000000008888888&",
"      .#=44,,=*#-3380000000000009988888&",
"     ..#*4444,*#####5000000000009988888&",
"     ..#*4444,*#####5000000000009988888&",
"    . .#=4444,*#*=,=##50000000000088888%",
"  ..XXX#=4444,*#*=,=##50000000000088888;",
" .....X#=44,4,*#*=,=,=##500000000088877&",
"      .#=44,4,*#*=,=,=##500000000088866;",
"      .#=444,,*#*=,=,,,=##5000000088866;",
"      .#=444,,*#*=,=,,,=##5000000088688&",
"      .#=4444,*#*=,,=,,,,=##50000088688&",
"      .#=4444,*#*=,,=,,,,=##50000088788&",
"     ..#=4444,*#**=,,=,,,,,=##500088166$",
"     ..#=4444,*#**=,,=,,,,,=##500088166$",
"      .#=4444,*#*****=,,,,,,,=##5088766$",
"      .#=4444,*##*******=,,,,,,=##28866$",
"      .#=4444,*##*******=,,,,,,=##28766$",
"      .#=4444,*+++###*****=,,,=,,=##<66$",
"      .#=4444,*+++###*****=,,,=,,=##<66$",
"     ..#==,44,*+++++++##*****=,,,,,=##:$"
};
