/* XPM */
static char *out[] = {
/* columns rows colors chars-per-pixel */
"40 40 29 1 ",
"  c black",
". c #130E0A",
"X c #1C150E",
"o c #211C15",
"O c #2B1F15",
"+ c #281D19",
"@ c #2E271E",
"# c #30221D",
"$ c #352F23",
"% c #393327",
"& c #3F392D",
"* c #422D25",
"= c #54392F",
"- c #403D30",
"; c #453F33",
": c #4E4C39",
"> c #5B5644",
", c #795041",
"< c #686553",
"1 c #6F6C51",
"2 c #726F5C",
"3 c #7B7660",
"4 c #B0735D",
"5 c #807E6D",
"6 c #858267",
"7 c #949076",
"8 c #A29E83",
"9 c #ADA991",
"0 c #B7B49C",
/* pixels */
"&%%%%&&&&&%&&&%%$%%;&&&&%;&;;&&&$$$$$$$$",
"888887766677888867788888887668886666666:",
"888887766677888867788888887668886666666#",
"8888888778888887888888888888866711787<<#",
"8888888888888888888888888888888888888##=",
"8888888888888888888888888888888888822##,",
"00009998888888008889899900000000000##==,",
"00009998888888008889899900000000005##,,,",
"0000000000000000000000000000000000#==,,,",
"0000000000000000000000000000000055#,,==,",
"00000000000000000000000000000000##=,,,,=",
"00000000000000000000000000000055##,,,,,*",
"000000000000000000000000000000##==,,,,,*",
"000000000000000080000000000055##,,,,,==*",
"0000000000000000099000000000##==,,,,,***",
"0000000000000000088000000055##,,,,,==***",
"00000000000000000998900000##==,,,,,****#",
"00000000000000000998900055##,,,,,,,****#",
"000000000000000008880000##==,,,,===****+",
"099900000000000009989055##,,,,==,,***##+",
"3888888888888888888338##======,,,,***##+",
"3333333333333333333333##,,,,,,,,==***##+",
"3333333333333333333333##========*****+++",
">>>>>>>>>>>>>>>>>>>---##***********##+++",
"@@@@@@@@@@@@@@@@@oo##################+++",
"    ..           ##*********************",
" .  XX ..  .     ##===,,,,,,,,,,,,,,,,,,",
" .  XX ..  .     ##==,444444,,4444444444",
". ..OX.  ......##**##,4444,,444444444444",
"X...OXX..X..XX.##==,,444444444444444444,",
"XXXXOX.XXXXXXXX##,,44444444444444444444=",
"XXOOOOOOOOOOXXX##,,===**================",
"XXOOOOOOOOOOXXXOO#######################",
"X...X..............X.....XX.............",
" X  X.     .          .. X.     ..     .",
"    ..                  .X.             ",
"                         ..             ",
"                         ..             ",
"                          .             ",
"                                        "
};
