/* XPM */
static char *out[] = {
/* columns rows colors chars-per-pixel */
"40 40 30 1 ",
"  c black",
". c #130E0A",
"X c #140F0A",
"o c #1C150E",
"O c #211C15",
"+ c #2B1F15",
"@ c #281D19",
"# c #2E271E",
"$ c #30221D",
"% c #352F23",
"& c #393327",
"* c #3F392D",
"= c #422D25",
"- c #54392F",
"; c #403D30",
": c #453F33",
"> c #55533F",
", c #5B5644",
"< c #795041",
"1 c #6F6C51",
"2 c #726F5C",
"3 c #79765A",
"4 c #7B7660",
"5 c #B0735D",
"6 c #807E6D",
"7 c #858267",
"8 c #949076",
"9 c #A29E83",
"0 c #ADA991",
"q c #B7B49C",
/* pixels */
"                                        ",
"                   .                    ",
"                   .                    ",
"                   .                    ",
"                  ..                    ",
"         .      ....          .        .",
"........................................",
"+++o+++++++oo+XX$$$$$$$$$$$$$$$$$$$$$$$$",
"+++o+++++++oo+$$<<------------------==--",
"oooooooooooooo$$<<5555555555555555<<<<--",
".....o........$$--<<55555555555555555555",
"             .$$==$$<5555555555555555555",
"                $$<<55555555555555555555",
"                $$---<<<<<<<<-----<<<<--",
"#####         ++$$======================",
"################OO$$$$$$$$$$$$$$$$$$@@@@",
",,,,,,,,,,,,,,,,,,;;;$$===========$$@@@@",
"444444444444444444444$$--------=====@@@@",
"444444444444444444444$$--<<<<<<--===$$@@",
"999999449999994,9999922$$<<<<<<<<===$$@@",
"000qqqqqqqqqqq99qqqqqqq$$--<<<<<<===$$@@",
"qqqqqqqqqqqqqq99qqqqqqq66$$<<<<<<-====@@",
"qqqqqqqqqqqqqq9900qqqqqqq$$--<<--<====$$",
"qqqqqqqqqqqqqq9900qqqqqqq66$$<<--<====$$",
"qqqqqqqqqqqqqqqqqqqqqqqqqqq$$----<--====",
"qqqqqqqqqqqqqqqq99qqqqqqqqq66$$<<<<<====",
"qqqqqqqqqqqqqqqq000qqqqqqqqqq$$--<<<--==",
"qqqqqqqqqqqqqqqqqq9qqqqqqqqqq66$$<<<<<==",
"qqqqqqqqqqqqqqqqqq9qqqqqqqqqqqq$$-<<<<==",
"qqqqqqqqqqqqqqqqqq0qqqqqqqqqqqq66$<<<<--",
"qqqqqqqqqqqqqqqqqqqqqqqqqqqqqqqqq$--<<<<",
"qqqqqqqqqqqqqqqqqqqqqqqqqqqqqqqqq6$$<<<<",
"q00000000000009q99000999999900000q$$--<<",
"q00000000000009q99000999999900000q66$$<<",
"099999999999999999999999999999999999$$--",
"19999999999999999999999999999999999922$$",
"13387899999999999999999999999999999911$$",
"78899877999999998878999987778999999811$$",
"78899877999999998878999987778999999811>2",
"%::&*:::&:*****:%%%&******&&********&&&&"
};
