/* XPM */
static char *out[] = {
/* columns rows colors chars-per-pixel */
"40 40 13 1 ",
"  c black",
". c #130E0A",
"X c #281D19",
"o c #2F221C",
"O c #30221D",
"+ c #382720",
"@ c #3D2A23",
"# c #393327",
"$ c #422D25",
"% c #54392F",
"& c #5D5B48",
"* c #795041",
"= c #B0735D",
/* pixels */
"OOO%***%$$$$$$OXXXXXXXXXX$%===*%O.      ",
"OOO%***%$$$$$$OXXXXXXXXXX$%===*%O.      ",
"O$O%%$$$$$$OOXXXXXXXXXXXX$%===*%O.      ",
"O$O%%$$$$$$OOXXXXXXXXXXXX$%===*%O.      ",
"O$O$$$$$OOoXXXXXXXXXXXXXX$%===*%O.      ",
"O$O$$$$$OOoXXXXXXXXXXXXXX$%===*%O...    ",
"O%O$$OO+oooXXXXXXXXXXXXXX$%===*%O.....  ",
"O%OO@+++oooXXXXXXXXXXXXXX$%===*%O.....  ",
"O%OO@+++oooXXXXXXXXXXXXXX$%===*%O...... ",
"O%@@@+++oooXXXXXXXXXXXXXX$*====%O.  ..  ",
"O%@@@+++oooXXXXXXXXXXXXXX$*====%O. .    ",
"O%@@@+++oooXXXXXXXXXXXXXX$*====%O.      ",
"O%@@@+++oooXXXXXXXXXXXXXX$*====%O.      ",
"O%@@@+++oooXXXXXXXXXXXXXX$*====%O.      ",
"O%@@@+++oooXXXXXXXXXXXXXX$*====%O..     ",
"O%@@@+++oooXXXXXXXXXXXXXX$*====%O..     ",
"O%@@@+++oooXXXXXXXXXXXXXX$*====%O.      ",
"O%@@@+++oooXXXXXXXXXXXXXX$*====%O.      ",
"O%@@@+++oooXXXXXXXXXXXXXX$*====%O.      ",
"O%@@@+++oooXXXXXXXXXXXXXX$*====%O.      ",
"O%@@@+++oooXXXXXXXXXXXXXX$*====%O.      ",
"O%@@@+++oooXXXXXXXXXXXXXX$*====%O.      ",
"O%@@@+++oooXXXXXXXXXXXXXX$*====%O.      ",
"O%@@@+++oooXXXXXXXXXXXXXX$*====%O.      ",
"O%@@@+++oooXXXXXXXXXXXXXX$*====%O.      ",
"O%@@@+++oooXXXXXXXXXXXXXX$*====%O.      ",
"O%@@@+++oooXXXXXXXXXXXXXX$*====%O.      ",
"O%@@@+++oooXXXXXXXXXXXXXX$*====%O.      ",
"O%@@@+++oooXXXXXXXXXXXXXX$*====%O.      ",
"O%@@@+++oooXXXXXXXXXXXXXX$*====%O.      ",
"O%OO@+++oooXXXXXXXXXXXXXX$%====%O.      ",
"O%OO@+++oooXXXXXXXXXXXXXX$%====%O.      ",
"O%O$$OO+oooXXXXXXXXXXXXXXO%====%O.      ",
"O$O$$$$$OOoXXXXXXXXXXXXXXO%$===%O.      ",
"O$O$$$$$OOoXXXXXXXXXXXXXXO%$===%O..     ",
"O$O%%$$$$$$OOXXXXXXXXXXXXO%*===%O.      ",
"O$O%%$$$$$$OOXXXXXXXXXXXXO%*===%O..     ",
"OOO%***%$$$$$$OXXXXXXXXXX$%*%==$O..     ",
"OOO%***%$$$$$$OXXXXXXXXXX$%*%==$O.      ",
"#&OO%*****%$$$$$OOXXXXXXX$*==*%%O.      "
};
