/* XPM */
static char *out[] = {
/* columns rows colors chars-per-pixel */
"40 40 30 1 ",
"  c black",
". c #130E0A",
"X c #140F0A",
"o c #1C150E",
"O c #211C15",
"+ c #2B1F15",
"@ c #281D19",
"# c #2E271E",
"$ c #30221D",
"% c #352F23",
"& c #393327",
"* c #3F392D",
"= c #422D25",
"- c #54392F",
"; c #403D30",
": c #453F33",
"> c #55533F",
", c #5B5644",
"< c #795041",
"1 c #6F6C51",
"2 c #726F5C",
"3 c #79765A",
"4 c #7B7660",
"5 c #B0735D",
"6 c #807E6D",
"7 c #858267",
"8 c #949076",
"9 c #A29E83",
"0 c #ADA991",
"q c #B7B49C",
/* pixels */
"     ..$--555-=@@@@@@@$$=====-<<<<-$$$2&",
"      .$--555-=@@@@@@@$$=====-<<<<-$$$>&",
"      .$=<555<=@@@$$$=====-<<<<<-$$2111&",
"      .$=<555<=@@@$$$=====-<<<<<-$$2111&",
"      .$-<555<=$$=======-<<<<<-$$699988*",
"      .$-<555<=$$=======-<<<<<-$$699999*",
"      .$-5555-=$=====-<<<<<<-$$6qq99999*",
"      .$-5555-=$==-<<<---<-$$6qq0099999*",
"      .$-5555-=$==-<<<---<-$$6qq0099999*",
"     ..$-5555-=$=-<<<<<<-$$6qqqq0099999*",
"      .$-5555-=$=-<<<<<<-$$6qqqq0099999*",
"      .$-5555<=$=-<<<<-$$6qqqqqq0099988*",
"      .$-5555<=$=-<<<<-$$6qqqqqq9999977&",
"      .$-5555<=$=-<<-$$6qqqqqqqq9999977&",
"      .$-5555<=$=-<<-$$6qqqqqqqq9999977*",
"      .$-5555<=$=--$$6qqqqqqqqqq9999988*",
"      .$-5555<=$=--$$6qqqqqqqqqq9999999*",
"      .$-5555<=$$$$2qqqqqqqqqqqq9999999*",
"      .$-5555<=$$$$2qqqqqqqqqqqq9999999*",
"      .$-55<5-=$;449qqqqqqqqqqqq0099999*",
" ......$-5<$<-=$;449qqqqqqqqqqqq0099988&",
"    ...$-5<$<-=$;449qqqqqq0990qq0099977%",
"     ..$<<-=$$$O,449qq00q90qqqqq9999988%",
"     ..$<<-=$$$O,449qq00q90qqqqq9999988%",
"      .X$$$$  +#,44,9999qqqqqqqqqq99999:",
"      .X$$$$  +#,4449999qqqqqqqq9999999*",
"      .++o..   #,449qqqqqqqqqqqq0099999*",
"      .ooo.    #,449qqqqqqqqqqqq0099999*",
"      .ooo.    #,449qqqqqqqqqqqq0099999*",
"      .++o.    #,449qqqqqqqqqqqq0099999*",
"     ..++o.    #,449qqqqqqqqqqqq0099999:",
"      .++o.    #,449qqqqqqqqqqqq0099999&",
"      .++o.    #,444qqqqqqqqqqqq0099977:",
"      .++o.    #,444qqqqqqqqqqqq0099977:",
"      .++oo    #,449qqqqqqqqqqqq0099888:",
"      .++o.   ##,449qqqqqqqqqqqq0099799*",
"      .ooo.   ##,449qqqqqqqqqqqq0099899&",
"      .++o.   ##,4490qqqqqqqqqqq0099388:",
"      .++o.   ##,4490qqqqqqqqqqq0099388:",
"      .++o.   ##,4490qqqqqqqqqqqqq01177%"
};
