/* XPM */
static char *out[] = {
/* columns rows colors chars-per-pixel */
"40 40 18 1 ",
"  c black",
". c #130E0A",
"X c #1C1512",
"o c #211814",
"O c #281C17",
"+ c #281D19",
"@ c #2B1E19",
"# c #2F221C",
"$ c #30221D",
"% c #382720",
"& c #3D2A23",
"* c #393327",
"= c #553402",
"- c #422D25",
"; c #54392F",
": c #5D5B48",
"> c #795041",
", c #B0735D",
/* pixels */
"$$$;>>>;------$$$X++++X$+-;,,,>;$.      ",
"$$$;>>>;------$$$X++++X$+-;,,,>;$.      ",
"$-$;;------$$$$X+++;--$=+-;,,,>;$.      ",
"$-$;;------$$$$X;;;;--$=+-;,,,>;$.      ",
"$-$-----$$$$o+;;;;;;--X$+-;,,,>;$.      ",
"$-$---$$$O###;;;;;;;--$=+-;,,,>;$...    ",
"$;$--$$$$O#;;;;;>;;;--$=+-;,,,>;$.....  ",
"$;$$$$@%;;;;;>>>>>;;--X$+-;,,,>;$.....  ",
"$;$$$$@%;;>>>>>>>>;;--X$+-;,,,>;$...... ",
"$;&$@;;;;;>>>>>>>>;;--X$+->,,,,;$.  ..  ",
"$;&-;;;>>>>>>>>>>>;;--X$+->,,,,;$. .    ",
"$;&-;>>>>>>>>>>>>>;;--+X+->,,,,;$.      ",
"$;&-;>>>>>>>>>>>>>;;--+X+->,,,,;$.      ",
"$;&->>>>>>>>>>>>>>;;--+++->,,,,;$.      ",
"$;&->>>>>>>>>>>>>>;;--+++->,,,,;$..     ",
"$;&->>>>>>>>>>>>>>;;--+++->,,,,;$..     ",
"$;&->>>>>>>>>>>>>>;;--+++->,,,,;$.      ",
"$;&-;>>>>>>>>>>>>>;;--+++->,,,,;$.      ",
"$;&$$$;;;;;;;;;;;;--$$+++->,,,,;$.      ",
"$;&$$$;;;;;;;;;;;;--$$+++->,,,,;$.      ",
"$;&$$$;;;;;;;;;;;;--$$+++->,,,,;$.      ",
"$;&-;>>>>>>>>>>>>>;;--+++->,,,,;$.      ",
"$;&->>>>>>>>>>>>>>;;--+++->,,,,;$.      ",
"$;&->>>>>>>>>>>>>>;;--+++->,,,,;$.      ",
"$;&->>>>>>>>>>>>>>;;--+++->,,,,;$.      ",
"$;&->>>>>>>>>>>>>>;;--+++->,,,,;$.      ",
"$;&->>>>>>>>>>>>>>;;--+X+->,,,,;$.      ",
"$;&-;>>>>>>>>>>>>>;;--+X+->,,,,;$.      ",
"$;&$@;;>>>>>>>>>>>;;--X$+->,,,,;$.      ",
"$;&$@&&%;;>>>>>>>>;;--X$+->,,,,;$.      ",
"$;$$$$@%;;>>>>>>>>;;--X$+-;,,,,;$.      ",
"$;$$$$@%%%#;;>>>>>;;--X$+-;,,,,;$.      ",
"$;$--$$$$O###+;;>;;;--$=+$;,,,,;$.      ",
"$-$----$$O###+;;;;;;--$=+$;-,,,;$.      ",
"$-$-----$$$$o+++;;;;--X$+$;-,,,;$..     ",
"$-$;;----$$$o++++++;--X$+$;>,,,;$.      ",
"$-$;;------$$$$X++++++$=+$;>,,,;$..     ",
"$$$;>>>;------$$$X++++X$+-;>;,,-$..     ",
"$$$;>>>;------$$$X++++X$+-;>;,,-$.      ",
"*:$$;>>>>>;-----$$$$X+X$+->,,>;;$.      "
};
