/* XPM */
static char *out[] = {
/* columns rows colors chars-per-pixel */
"40 40 30 1 ",
"  c black",
". c #130E0A",
"X c #140F0A",
"o c #1C150E",
"O c #211C15",
"+ c #2B1F15",
"@ c #281D19",
"# c #2E271E",
"$ c #30221D",
"% c #352F23",
"& c #393327",
"* c #3F392D",
"= c #422D25",
"- c #54392F",
"; c #403D30",
": c #453F33",
"> c #55533F",
", c #5B5644",
"< c #795041",
"1 c #6F6C51",
"2 c #726F5C",
"3 c #79765A",
"4 c #7B7660",
"5 c #B0735D",
"6 c #807E6D",
"7 c #858267",
"8 c #949076",
"9 c #A29E83",
"0 c #ADA991",
"q c #B7B49C",
/* pixels */
"&&&&********&&******&%%%:*****:&:::*&::%",
"2>11899999987778999987889999999977899887",
"$$11899999987778999987889999999977899887",
"$$11999999999999999999999999999999878331",
"$$22999999999999999999999999999999999991",
"--$$999999999999999999999999999999999990",
"<<$$66q00000999999900099q90000000000000q",
"<<--$$q00000999999900099q90000000000000q",
"<<<<$$6qqqqqqqqqqqqqqqqqqqqqqqqqqqqqqqqq",
"<<<<--$qqqqqqqqqqqqqqqqqqqqqqqqqqqqqqqqq",
"--<<<<$66qqqqqqqqqqqq0qqqqqqqqqqqqqqqqqq",
"==<<<<-$$qqqqqqqqqqqq9qqqqqqqqqqqqqqqqqq",
"==<<<<<$$66qqqqqqqqqq9qqqqqqqqqqqqqqqqqq",
"==--<<<--$$qqqqqqqqqq000qqqqqqqqqqqqqqqq",
"====<<<<<$$66qqqqqqqqq99qqqqqqqqqqqqqqqq",
"====--<----$$qqqqqqqqqqqqqqqqqqqqqqqqqqq",
"$$====<--<<$$66qqqqqqq0099qqqqqqqqqqqqqq",
"$$====<--<<--$$qqqqqqq0099qqqqqqqqqqqqqq",
"@@====-<<<<<<$$66qqqqqqq99qqqqqqqqqqqqqq",
"@@$$===<<<<<<--$$qqqqqqq99qqqqqqqqqqq000",
"@@$$===<<<<<<<<$$2299999,499999944999999",
"@@$$===--<<<<<<--$$444444444444444444444",
"@@@@=====--------$$444444444444444444444",
"@@@@$$===========$$;;;,,,,,,,,,,,,,,,,,,",
"@@@@$$$$$$$$$$$$$$$$$$OO################",
"======================$$++         #####",
"--<<<<-----<<<<<<<<---$$                ",
"55555555555555555555<<$$                ",
"5555555555555555555<$$==$$.             ",
"55555555555555555555<<--$$........o.....",
"--<<<<5555555555555555<<$$oooooooooooooo",
"--==------------------<<$$+oo+++++++o+++",
"$$$$$$$$$$$$$$$$$$$$$$$$XX+oo+++++++o+++",
"........................................",
".        .          ....      .         ",
"                    ..                  ",
"                    .                   ",
"                    .                   ",
"                    .                   ",
"                                        "
};
