/* XPM */
static char *result[] = {
/* columns rows colors chars-per-pixel */
"30 30 64 1 ",
"  c #030403",
". c #0E0D0C",
"X c #121210",
"o c #1A1917",
"O c #1F1F1C",
"+ c #1C2117",
"@ c #22251E",
"# c #272C22",
"$ c #2F2E29",
"% c #2D3328",
"& c #32362D",
"* c #383B32",
"= c #3E3E38",
"- c #3E4238",
"; c #3F453F",
": c #43443C",
"> c #454740",
", c #474942",
"< c #494C42",
"1 c #494F4A",
"2 c #504F46",
"3 c #4C524C",
"4 c #53544B",
"5 c #4D5651",
"6 c #545851",
"7 c #565C57",
"8 c #585A51",
"9 c #5A5D53",
"0 c #5A5E58",
"q c #615C4E",
"w c #5C6159",
"e c #5F645E",
"r c #636356",
"t c #696253",
"y c #61645B",
"u c #6B6758",
"i c #66685E",
"p c #6A6A5E",
"a c #626762",
"s c #656A64",
"d c #6C6D62",
"f c #656C69",
"g c #6B6F68",
"h c #6E7065",
"j c #6D726B",
"k c #6F756E",
"l c #737164",
"z c #7C7767",
"x c #747569",
"c c #79796D",
"v c #6E7673",
"b c #747A73",
"n c #7A7D72",
"m c #767E79",
"M c #7A7F79",
"N c #7E8175",
"B c #7D827C",
"V c #818176",
"C c #83867C",
"Z c #7F8883",
"A c #868A82",
"S c #8C9189",
"D c #8C9490",
"F c None",
/* pixels */
"FFFFFFFFFFFFFFFFFFFFFFFFFFFFFF",
"FFFFFFFFFFFFFFFFFFFFFFFFFFFFFF",
"FFFFFFFFFO=@oOXF     FFFFFFFFF",
"FFFFFFFF.4ur6,-**$$&=OFFFFFFFF",
"FFFFFFFF*hdrprq2224yi>.FFFFFFF",
"FFFFFFFognnkhdhirrjkjw$FFFFFFF",
"FFFFFFF>lNCNNNNnndwwek9XFFFFFF",
"FFFFFF 9NCCCNNNNc-#%,ks@FFFFFF",
"FFFFFF$xCCnnCVVV4#&9:<1*FFFFFF",
"FFFFFF4cd<**,hNu#%r>@@+@.FFFFF",
"FFFFFodd&%&*2nC;#68@-:::oFFFFF",
"FFFFF$l<#*4xVSj#<l%&ghw2$FFFFF",
"FFFFF4l&%9VuxV2#p<@4dsi6=XFFFF",
"FFFFF8p%2Vzqtq#<d#&skka8=oFFFF",
"FFFFohr%pAluxh%ge+7MBBja0* FFF",
"FFFF$nw&xnpBS0%B4*BMZZmjf1XFFF",
"FFFF>c8#idgCA<-C&6AZD5amf6OFFF",
"FFF 8xi#rMMACsbA%gZBZ&@age=FFF",
"FFFXdcN:=CCCCbMC<BMmv#%evf,FFF",
"FFF$xNnd&yACd##6BAZZ6+5bfs,FFF",
"FFF=lxcV-4SD6+%,BBDk@@sbaa,FFF",
"FF wxnVV:-MDZ><bAn0##1Zve8-FFF",
"FF@hcNBM>@;sgyyse*@%<ess3,*FFF",
"FF=cxbMf&###%#%##&;3ri84,:&FFF",
"FFabkMj*-:2y0esewsw99wy7>*OFFF",
"FFajagjiilkmf007784315ww1&.FFF",
"FF=wwsjxxjess03675335551;OFFFF",
"FFX&,4idjdwew63<;;$O@@.F FFFFF",
"FFF   @#:2,:@@@   FFFFFFFFFFFF",
"FFFFFFFFFFFFFFFFFFFFFFFFFFFFFF"
};
