/* XPM */
static char *result[] = {
/* columns rows colors chars-per-pixel */
"30 30 64 1 ",
"  c gray1",
". c #0C0B0A",
"X c #121210",
"o c #191915",
"O c #1F1F1C",
"+ c #1C2317",
"@ c #232420",
"# c #262923",
"$ c #2B3026",
"% c #33352E",
"& c #2B3130",
"* c #393C34",
"= c #413D37",
"- c #3D4038",
"; c #3E433E",
": c #44443A",
"> c #43463F",
", c #454941",
"< c #454B45",
"1 c #4B4D44",
"2 c #4A4F4A",
"3 c #4E524A",
"4 c #53554C",
"5 c #515751",
"6 c #555951",
"7 c #5A5B52",
"8 c #5A5E57",
"9 c #5C6259",
"0 c #5E645E",
"q c #616156",
"w c #62635A",
"e c #66665A",
"r c #61675F",
"t c #65685D",
"y c #6A695E",
"u c #646B63",
"i c #6E6E63",
"p c #696F66",
"a c #646D68",
"s c #6A726B",
"d c #727365",
"f c #71756B",
"g c #74786D",
"h c #77786C",
"j c #797B6E",
"k c #6C7672",
"l c #727770",
"z c #747B73",
"x c #797D72",
"c c #727C78",
"v c #77837D",
"b c #798078",
"n c #7D827C",
"m c #7F867F",
"M c #808274",
"N c #888879",
"B c #848C84",
"V c #8A9289",
"C c #989A8B",
"Z c #8B9693",
"A c #989D92",
"S c #A2A79A",
"D c #ADB0A3",
"F c None",
/* pixels */
"FFFFFFFFFFFFFFFFFFFFFFFFFFFFFF",
"FFFFFFFFFFFFFFFFFFFFFFFFFFFFFF",
"FFFFFFFFF#;@O#XF     FFFFFFFFF",
"FFFFFFFFXur652,>,>>**oFFFFFFFF",
"FFFFFFFF;zsuuw9989r96-.FFFFFFF",
"FFFFFFFogBgddppfpfssp9@FFFFFFF",
"FFFFFFF:NNhdddxBBVfxzz1.FFFFFF",
"FFFFFF.eCMfggjgzVr$3jz8XFFFFFF",
"FFFFFF%BSbgxxxdez$;>ftu@FFFFFF",
"FFFFFF7CAggjxMy:x*:1fqe%.FFFFF",
"FFFFFojDVgxxjM,$-6:,mlr:XFFFFF",
"FFFFF%VDMffhj6#96$*uBbs1oFFFFF",
"FFFFFrAAedhhw#-hMdgnggp6%XFFFF",
"FFFFFqSd*$73$+%:4gmBffsw:OFFFF",
"FFFFoiCyi%o++$1**;kZBvks1% FFF",
"FFFF@hNyi-#:+3nlzasZZBck4=.FFF",
"FFFF%Njd7$1d%,ngbmVAZBcs01oFFF",
"FFF ,Nhyq3qf>+6gxnBZZvzsu7*FFF",
"FFFX6Mhq8wwu$++*sbvusvckuq=FFF",
"FFF&6ly77yl-$13%@*-%6svs04=FFF",
"FFF;0twtyjw*wyxz9%o*raca84=FFF",
"FF ulqehgd%*,*%6zf7,3cka77:FFF",
"FF#vvqydhw%tbl5$rsr9887414:FFF",
"FF;Bvqweyiilzk-%pu3<4741:1%FFF",
"FFaVc0qeyfsplb85f95,3588<*OFFF",
"FFaca97qqw0rrw652,>:22582%.FFF",
"FF*646776878666<,>2562<<;oFFFF",
"FF.#%*144664333>**#@@O.F FFFFF",
"FFFF  oO%;:=OOO    FFFFFFFFFFF",
"FFFFFFFFFFFFFFFFFFFFFFFFFFFFFF"
};
