/* XPM */
static char *result[] = {
/* columns rows colors chars-per-pixel */
"30 30 64 1 ",
"  c #060605",
". c #181715",
"X c #1F1E1B",
"o c #1B2116",
"O c #23271E",
"+ c #292B24",
"@ c #2E3128",
"# c #33352D",
"$ c #383A32",
"% c #3F3E36",
"& c #3F4139",
"* c #46453D",
"= c #414640",
"- c #464942",
"; c #4A4D43",
": c #474D49",
"> c #4B4E49",
", c #504F46",
"< c #4D5049",
"1 c #505146",
"2 c #52534A",
"3 c #51564F",
"4 c #54574E",
"5 c #5A5348",
"6 c #5A5A4E",
"7 c #545A53",
"8 c #565C56",
"9 c #575F57",
"0 c #5A5C52",
"q c #5D5E57",
"w c #615D53",
"e c #5D6056",
"r c #58605A",
"t c #5C635C",
"y c #646357",
"u c #60655D",
"i c #65675D",
"p c #6A6A5E",
"a c #646A63",
"s c #676C67",
"d c #6B6E62",
"f c #69706A",
"g c #6D736A",
"h c #727164",
"j c #71746A",
"k c #76776B",
"l c #71776F",
"z c #6E7875",
"x c #727973",
"c c #747C76",
"v c #787A70",
"b c #7B7C73",
"n c #7C8179",
"m c #78817E",
"M c #83867C",
"N c #7D8581",
"B c #888C83",
"V c #8A928C",
"C c #949387",
"Z c #939993",
"A c #98A19B",
"S c #A3A498",
"D c #ABAEA5",
"F c None",
/* pixels */
"FFFFFFFFFFFFFFFFFFFFFFFFFFFFFF",
"FFFFFFFFFFFFFFFFFFFFFFFFFFFFFF",
"FFFFFFFFFF         FFFFFFFFFFF",
"FFFFFFFFF+2-<<=&-:-#.FFFFFFFFF",
"FFFFFFFF.edtau7478ta7.FFFFFFFF",
"FFFFFFFF-kius83734tr9- FFFFFFF",
"FFFFFFF.lMgpdea<9suuua#FFFFFFF",
"FFFFFFF#BNjllda@4lfddi%FFFFFFF",
"FFFFFF uVxsglbiO4xjlifu.FFFFFF",
"FFFFFF+nZksgxN3o;BnVmmc@FFFFFF",
"FFFFFF*BMpklnm$+$nVZVNx-FFFFFF",
"FFFFFXkSn#yvlpO7+gAZZasr FFFFF",
"FFFFF#BSb2$jj*#M#3BVV$gs@FFFFF",
"FFFFF6CC02@8lO7Z>#Zx8=mf&FFFFF",
"FFFF iDMe$#&4OiqqOBs&rmz> FFFF",
"FFFF&bDM2@$$+-qod#ua-tmf8XFFFF",
"FFF 8MSk$%@#O0@o<>#3t=ca3# FFF",
"FFF@lbBd#+OO*$oOO>out$it3$.FFF",
"FF uchh6%o@;5ooOo&*&#3xu;&OFFF",
"FF ughy6%@dk$O#O$#0+@ag7&;%FFF",
"FFXijwpj2-Mh6d*@d-061q21&,*FFF",
"FF@nc2pjd@jkvqo&hpi42428*,, FF",
"F eMl,yyh$@&&O+dpeiuueut&*6XFF",
"FF;cf&4ppj2===gkdalgueu9$%,XFF",
"FF.tt#*6idkkhjhddgde03<3@++ FF",
"FFF=9@@;16622442<>>:373<$X FFF",
"FFF+:%$*<2,,34==-::::=OOXFFFFF",
"FFFF    .OOXOX F     FFFFFFFFF",
"FFFFFFFFFFFFFFFFFFFFFFFFFFFFFF",
"FFFFFFFFFFFFFFFFFFFFFFFFFFFFFF"
};
