/* XPM */
static char *result[] = {
/* columns rows colors chars-per-pixel */
"30 30 64 1 ",
"  c #060605",
". c #181915",
"X c #1B2016",
"o c #23261E",
"O c #282A24",
"+ c #2D2F2A",
"@ c #34352E",
"# c #3A3C35",
"$ c #3F413B",
"% c #46453A",
"& c #48483F",
"* c #434741",
"= c #474943",
"- c #4B4C43",
"; c #4D4E47",
": c #4F5149",
"> c #525146",
", c #51544C",
"< c #52564F",
"1 c #56564D",
"2 c #575950",
"3 c #555953",
"4 c #595B50",
"5 c #595D54",
"6 c #5A5F57",
"7 c #555D58",
"8 c #605D51",
"9 c #5C615A",
"0 c #5E635E",
"q c #616156",
"w c #62645B",
"e c #66665A",
"r c #64675F",
"t c #69695E",
"y c #6C6C5F",
"u c #636963",
"i c #656B67",
"p c #6B6D63",
"a c #686E68",
"s c #6C726B",
"d c #717266",
"f c #737569",
"g c #77766A",
"h c #7E7D6F",
"j c #707671",
"k c #747872",
"l c #787B70",
"z c #767E79",
"x c #797E78",
"c c #7D8077",
"v c #878779",
"b c #7D8580",
"n c #818680",
"m c #848983",
"M c #8A8C81",
"N c #848B88",
"B c #878E89",
"V c #8B918A",
"C c #919084",
"Z c #93968D",
"A c #8F9893",
"S c #999C92",
"D c #A6A89E",
"F c None",
/* pixels */
"FFFFFFFFFFFFFFFFFFFFFFFFFFFFFF",
"FFFFFFFFFFFFFFFFFFFFFFFFFFFFFF",
"FFFFFFFFFF         FFFFFFFFFFF",
"FFFFFFFFFO;:;-$$*==@XFFFFFFFFF",
"FFFFFFFF.5iau6<<379u5.FFFFFFFF",
"FFFFFFFF&jaa6,335,900= FFFFFFF",
"FFFFFFFXgcaa96uuuusww0+FFFFFFF",
"FFFFFFF#Vbpp6ussukju5t;FFFFFFF",
"FFFFFF uZbj3:5pdjxsj5w4.FFFFFF",
"FFFFFFOxVks+oO+@-w5usr0+FFFFFF",
"FFFFFF:Zmsx*oui=#O.:mzk;FFFFFF",
"FFFFFXcDmsb=oaNz=X-BVxb9 FFFFF",
"FFFFF#CDcfc$@1&O+sAAAbza@FFFFF",
"FFFFFqSSclg@XoX#jNmmVbzj= FFFF",
"FFFF.gDSxxk$X*,@+$*zBbzz3.FFFF",
"FFFF;CDMppu=Xrbk;XOVAAbbu+FFFF",
"FFF dDZkt:w:X2p&O+jmBAbzs* FFF",
"FFF@MSCwwq8;X@+@,cmxnmzsi3.FFF",
"FF rCZve888%Xo##$=,uzbj0<<OFFF",
"FF evCdq8eq#X%&-@Xorwpp:,5$ FF",
"FFogvhyyygg>X,ce@O-yqr9,50#FFF",
"FF@hvhtdgdg>X&#O*5sqwq453:$ FF",
"F qvVltpddf&.oO4fpyq6>:,=%;oFF",
"FF-lcfddddg=o5lgdeyq2544:2<XFF",
"FF.qyypddddpplffyw856r5,:;@ FF",
"FFF%t8qwqq64421>>::355<<;o FFF",
"FFFO-%-->>>>11;>;;,21%OOXFFFFF",
"FFFF FF .ooooo   F   FFFFFFFFF",
"FFFFFFFFFFFFFFFFFFFFFFFFFFFFFF",
"FFFFFFFFFFFFFFFFFFFFFFFFFFFFFF"
};
