/* XPM */
static char *result[] = {
/* columns rows colors chars-per-pixel */
"30 30 30 1 ",
"  c #010101",
". c #030202",
"X c #030404",
"o c #040404",
"O c gray2",
"+ c #070706",
"@ c #0C0C0B",
"# c #0D1008",
"$ c #151512",
"% c #191D14",
"& c #1E2019",
"* c #282923",
"= c #33352D",
"- c #3E4139",
"; c #454840",
": c #4B4D46",
"> c #51534B",
", c #585B54",
"< c #615F52",
"1 c #5D615A",
"2 c #67685B",
"3 c #626762",
"4 c #696D66",
"5 c #70736B",
"6 c #767A71",
"7 c #7D8178",
"8 c #848880",
"9 c #8D938B",
"0 c #9E9F94",
"q c None",
/* pixels */
"qqqqqqqqqqqqqqqqqqqqqqqqqqqqqq",
"qqqqqqqqqqqqqqqqqqqqqqqqqqqqqq",
"qqqqqqqqq.oXooooOoXqqqqqqqqqqq",
"qqqqqqqqq*>>>>>>:::=&.qqqqqqqq",
"qqqqqqqq$<<222222244,%qqqqqqqq",
"qqqqqqqq:742222225644:@qqqqqqq",
"qqqqqqq&7955666665,874= qqqqqq",
"qqqqqqq-985556765=&-66:.qqqqqq",
"qqqqqq+49757;*572&-=>5,$qqqqqq",
"qqqqqq=89556;%*67*=-<11* qqqqq",
"qqqqqq:09546;-=&4:&4644-qqqqqq",
"qqqqq&607556:;8*%==7834>@qqqqq",
"qqqqq=9062<5-=85*%-48431* qqqq",
"qqqq <00<%=>=*52,=*385,1-oqqqq",
"qqqq$6082&&%=%1554399734,$qqqq",
"qqq.:0074%=:*$>7778998543* qqq",
"qqq+5006,%=64>55778999654;Xqqq",
"qqq=7005,%-65544678999545>$qqq",
"qqo190853&;,==-==;4778543,* qq",
"qq+509424=**:443,-&:766431-.qq",
"qq*798456,;5566668>*66531,-qqq",
"qq=7775556774,54144356531,;@qq",
"qo<786434557-#;:#=4314541,>&qq",
"qX;664334556-%-,&:,>>>>>>,>&qq",
"qq$143344441,>,1>>;:>;;--;=@qq",
"qqq-3,11,,,;;:;-;;-;;,>:-*@qqq",
"qqq*:::;::>>;;--;:>>:;**&qqqqq",
"qqq.oo.o$&**&%ooooOOO.qqqqqqqq",
"qqqqqqqqqqqqqqqqqqqqqqqqqqqqqq",
"qqqqqqqqqqqqqqqqqqqqqqqqqqqqqq"
};
