/* XPM */
static char *result[] = {
/* columns rows colors chars-per-pixel */
"30 30 64 1 ",
"  c #040403",
". c #0E0D0C",
"X c #191A16",
"o c #1C2217",
"O c #23251F",
"+ c #272B23",
"@ c #2D2E28",
"# c #2E342A",
"$ c #33342D",
"% c #393B33",
"& c #423D36",
"* c #3D4139",
"= c #42453D",
"- c #434740",
"; c #464A44",
": c #4B4B43",
"> c #4A4E48",
", c #4D5049",
"< c #505147",
"1 c #5D5547",
"2 c #52534B",
"3 c #52564F",
"4 c #58564C",
"5 c #56584F",
"6 c #4F5550",
"7 c #555A53",
"8 c #5B5B50",
"9 c #595D54",
"0 c #5C5F56",
"q c #575E59",
"w c #5D635B",
"e c #616155",
"r c #696855",
"t c #666658",
"y c #62655C",
"u c #60665F",
"i c #686A5E",
"p c #656860",
"a c #646A65",
"s c #6A6C63",
"d c #67706D",
"f c #6D7168",
"g c #717167",
"h c #73746B",
"j c #75786D",
"k c #7A796B",
"l c #6C7570",
"z c #747A73",
"x c #7C7E73",
"c c #747D78",
"v c #7D817A",
"b c #818274",
"n c #818478",
"m c #898779",
"M c #86887D",
"N c #7F8781",
"B c #828983",
"V c #908D80",
"C c #8E938A",
"Z c #98988A",
"A c #8F9893",
"S c #9A9C91",
"D c #A1A296",
"F c None",
/* pixels */
"FFFFFFFFFFFFFFFFFFFFFFFFFFFFFF",
"FFFFFFFFFFFFFFFFFFFFFFFFFFFFFF",
"FFFFFFFFFF         FFFFFFFFFFF",
"FFFFFFFFF+<,<<<>:>:$X FFFFFFFF",
"FFFFFFFFX8rtsiiiyiss8XFFFFFFFF",
"FFFFFFFF,nfititeslfsp-.FFFFFFF",
"FFFFFFFXxn=zjzx-=BCvss%FFFFFFF",
"FFFFFFF%Zy*nhxn:X=BA5y2 FFFFFF",
"FFFFFF gD,;bjxb<O#@9#50XFFFFFF",
"FFFFFF@MS;*bhhb<+=@@#04OFFFFFF",
"FFFFFF:ZZ8OfkxM$*j=#,fp%FFFFFF",
"FFFFFXgDmto$zN9O7CxO-pl; FFFFF",
"FFFFF$mDhg+o#$o#0xn-o$zqOFFFFF",
"FFFFF8ZDhg%ooo+%yfN3#<s0$FFFFF",
"FFFFXxDVgk1oOO#fzcA3avda=.FFFF",
"FFF 5SDksp0Ooo9vvvC=;cdd>O FFF",
"FFF.jSShs4y,X#jhcNB%*qcd,% FFF",
"FFF$xSMhsyah%uxzzN>qAcla9:XFFF",
"FF 8VDvepssfgxjzc6XwNcla04@FFF",
"FF tCSh8yifghjzz6#=@ccla84& FF",
"FF+jmbihs*@*7q;+Xlzazddw24&FFF",
"FF$xbjss@-#6-+90+>cllldu24:.FF",
"F wbbgf*#z7lh%sf,>76quuw442oFF",
"F -jjya$%zhfwyyw6,25,:,5522XFF",
"FFXpp0a*o9fw5uq76<2,2;=:,=$.FF",
"FFF-9399<275;-;-;>>;77,3;O.FFF",
"FFFO;=::<,>32-=;>>;;6-OOXFFFFF",
"FFF     .OOOOo        FFFFFFFF",
"FFFFFFFFFFFFFFFFFFFFFFFFFFFFFF",
"FFFFFFFFFFFFFFFFFFFFFFFFFFFFFF"
};
