/* XPM */
static char *result[] = {
/* columns rows colors chars-per-pixel */
"30 30 64 1 ",
"  c #060605",
". c #171A13",
"X c #1C2017",
"o c #21241E",
"O c #282A23",
"+ c #2E3028",
"@ c #33352E",
"# c #393B32",
"$ c #3E413A",
"% c #44463B",
"& c #424541",
"* c #454942",
"= c #4A4C43",
"- c #4C4E46",
"; c #474D48",
": c #4D514A",
"> c #51544B",
", c #53564F",
"< c #58574F",
"1 c #575A4D",
"2 c #5C594C",
"3 c #555A54",
"4 c #5A5D54",
"5 c #5B5F57",
"6 c #5F5E55",
"7 c #555F59",
"8 c #5A625C",
"9 c #5D645F",
"0 c #626257",
"q c #64655C",
"w c #65695F",
"e c #6A6B5B",
"r c #626760",
"t c #676960",
"y c #636964",
"u c #686A63",
"i c #6A6D61",
"p c #6F6E61",
"a c #686F67",
"s c #6D6F65",
"d c #656C68",
"f c #696F6A",
"g c #6C726C",
"h c #747567",
"j c #71746B",
"k c #77786B",
"l c #7A7B6E",
"z c #6D7772",
"x c #737770",
"c c #737A76",
"v c #7B7D73",
"b c #757C78",
"n c #7A8079",
"m c #828376",
"M c #858679",
"N c #8B8B7D",
"B c #828B86",
"V c #8A8D83",
"C c #8C938A",
"Z c #959587",
"A c #8A9594",
"S c #9B9C90",
"D c #A4A496",
"F c None",
/* pixels */
"FFFFFFFFFFFFFFFFFFFFFFFFFFFFFF",
"FFFFFFFFFFFFFFFFFFFFFFFFFFFFFF",
"FFFFFFFFFF     F   FFFFFFFFFFF",
"FFFFFFFFFO-::;&$*;&+.FFFFFFFFF",
"FFFFFFFF.6udiy988789:.FFFFFFFF",
"FFFFFFFF*keeiiiiiqigs- FFFFFFF",
"FFFFFFF.vNpephkhlvMnjj#FFFFFFF",
"FFFFFFF#CCvxkkkkvMCCnv-FFFFFFF",
"FFFFFF iShljhk+sMmnVBn4.FFFFFF",
"FFFFFF+ZkX@vnso0Ml#o=jtOFFFFFF",
"FFFFFF>Z@>O-m>X%N4O>.-q#FFFFFF",
"FFFFFXlD$#+1l%+@V:X=#>g- FFFFF",
"FFFFF@ND2.0hs+rO0hO-@qu8+FFFFF",
"FFFFF2ZSpO#2%Ol$+l0+%v6q$ FFFF",
"FFFF.lDNk6.XX%0<X@o@nn54:.FFFF",
"FFFF,SSmps+XOjnv@X+rABgd9+FFFF",
"FFF vDSjwq#X$vjc5X$BCCbgd& FFF",
"FFF@VSVut6$.4jgjso*CAAndg3.FFF",
"FF 4MSv6ts*XjxnvxX*nnBcyd5OFFF",
"FF qZSj<0s$.>vvn9.>nbbcdy9#FFF",
"FFOkNMsshv<.o$>*oonbgzzy88#FFF",
"FF@vmhqjljj#oX..X#nafzzd88% FF",
"F 5lvsusuujd$OOO#79548dy84>XFF",
"FF*klqryyfjxj5q8w>;=1>-==><XFF",
"FF.wt5ryusuw44r43,*%:>:*$%@ FF",
"FFF&4,356<,3:&*&$**:;>83*O FFF",
"FFFo;&*=-:->,:$$;;::;$OOXFFFFF",
"FFFF F F.ooooo       FFFFFFFFF",
"FFFFFFFFFFFFFFFFFFFFFFFFFFFFFF",
"FFFFFFFFFFFFFFFFFFFFFFFFFFFFFF"
};
