/* XPM */
static char *result[] = {
/* columns rows colors chars-per-pixel */
"30 30 64 1 ",
"  c gray2",
". c #11110F",
"X c #1A1915",
"o c #1C2018",
"O c #22261D",
"+ c #272B24",
"@ c #2C2D27",
"# c #2D3229",
"$ c #34352D",
"% c #393C32",
"& c #3F3E36",
"* c #3E423A",
"= c #44463D",
"- c #484C44",
"; c #4E4E45",
": c #4C514B",
"> c #4F544E",
", c #525247",
"< c #52554B",
"1 c #595648",
"2 c #53584E",
"3 c #505751",
"4 c #545A53",
"5 c #565D57",
"6 c #5A5A50",
"7 c #5A5D56",
"8 c #5B6059",
"9 c #606055",
"0 c #61645A",
"q c #68665A",
"w c #64685D",
"e c #67695E",
"r c #736C5C",
"t c #5D6560",
"y c #626660",
"u c #646963",
"i c #6A6C62",
"p c #6A6E67",
"a c #666D6A",
"s c #6E7167",
"d c #6A716D",
"f c #717267",
"g c #71746C",
"h c #75786C",
"j c #79786A",
"k c #797A6D",
"l c #6D7672",
"z c #717770",
"x c #767A72",
"c c #7A7D73",
"v c #757E79",
"b c #7F8074",
"n c #7D827B",
"m c #878679",
"M c #83867E",
"N c #89897C",
"B c #7E8682",
"V c #848B84",
"C c #8C8C81",
"Z c #878F8A",
"A c #8A918C",
"S c #93948A",
"D c #8E9997",
"F c None",
/* pixels */
"FFFFFFFFFFFFFFFFFFFFFFFFFFFFFF",
"FFFFFFFFFFFFFFFFFFFFFFFFFFFFFF",
"FFFFFFFFFFX   FFFFFFFFFFFFFFFF",
"FFFFFFFFF$6;&&@oXXXXXFFFFFFFFF",
"FFFFFFFF.10i9,;-==,66OFFFFFFFF",
"FFFFFFFF=s<-9961,8iwe-.FFFFFFF",
"FFFFFFFXic&%xxhjhxVBgw#FFFFFFF",
"FFFFFFF%hc*%ccckhkVZns-FFFFFFF",
"FFFFFF 9hc*%nckfjNbips6.FFFFFF",
"FFFFFF+fhj*%bk,#sCgO,07OFFFFFF",
"FFFFFF=kkk&&bh@+<S,+0iu&FFFFFF",
"FFFFF qNkk*#C4O#%n%-sip:.FFFFF",
"FFFFF@kmcj%o09&&=iO2cie8@FFFFF",
"FFFFF@CNjr$oO%*$$@#2Vu60& FFFF",
"FFFFF=Sbjr$O%#+@@#*8Av0a>.FFFF",
"FFFFFiCgcq@*ScxcnMZAABdat@FFFF",
"FFFFXhMkey%O==-->>tVDAlda*FFFF",
"FFFF@bMcep$O#$++@oX-DZdaa:.FFF",
"FFF ;bbcgg#OgVxzx:o:Bnluu4XFFF",
"FFF icisgi+*Mbxvvdo4vvzut4XFFF",
"FFFXfcgkxc+=xxxzvvO8vldt5<XFFF",
"FFF$mccchx@=vazspd*tvldt42XFFF",
"FFF9Scgpsg+-7-vz05autllu4<oFFF",
"FFXcSgdagg++#ffp33:<<<22:=XFFF",
"FF#Mnddlzu+o=s783:-<<-=*%$ FFF",
"FF@uuyuee0+#>>:-;---:84-=XFFFF",
"FF :8iseiy703>:>4543>:@+oFFFFF",
"FFF O@&478y8-**++O    FFFFFFFF",
"FFFFFFF .++O   FFFFFFFFFFFFFFF",
"FFFFFFFFFFFFFFFFFFFFFFFFFFFFFF"
};
