/* XPM */
static char *ff7a19725c18473ff9c18e66add7b560T7M7yDThROOfEP9y[] = {
/* columns rows colors chars-per-pixel */
"200 42 173 2 ",
"   c #0D0D0D",
".  c #141414",
"X  c #171E15",
"o  c #181818",
"O  c #142D0E",
"+  c #113C06",
"@  c #12330B",
"#  c #113908",
"$  c #152412",
"%  c #152910",
"&  c #1A3C13",
"*  c #0F4303",
"=  c #0E4900",
"-  c #104104",
";  c #124A04",
":  c #15430A",
">  c #164D09",
",  c #194E0D",
"<  c #19520C",
"1  c #1D4314",
"2  c #1E4F13",
"3  c #1E5312",
"4  c #22431A",
"5  c #225516",
"6  c #245917",
"7  c #26531A",
"8  c #255A18",
"9  c #2A5D1E",
"0  c #2C4126",
"q  c #354C2F",
"w  c #2C5023",
"e  c #2D5F21",
"r  c #33532B",
"t  c #355C2C",
"y  c #364C30",
"u  c #394F33",
"i  c #375530",
"p  c #3F5B38",
"a  c #3B5E32",
"s  c #2D6021",
"d  c #316125",
"f  c #36642A",
"g  c #39642F",
"h  c #396A2E",
"j  c #3C6532",
"k  c #3D6B32",
"l  c #42593D",
"z  c #44613D",
"x  c #44693B",
"c  c #45723A",
"v  c #4A763F",
"b  c #4A6345",
"n  c #4B6D43",
"m  c #4E6449",
"M  c #51654C",
"N  c #536A4D",
"B  c #4D7244",
"V  c #517C47",
"C  c #54754C",
"Z  c #567B4D",
"A  c #587B4F",
"S  c #566752",
"D  c #566D51",
"F  c #577650",
"G  c #597653",
"H  c #5B7D54",
"J  c #5F7959",
"K  c #62735E",
"L  c #617D5B",
"P  c #6B7B67",
"I  c #6F7C6B",
"U  c #737C70",
"Y  c #59814F",
"T  c #5C8253",
"R  c #62845B",
"E  c #658B5C",
"W  c #678460",
"Q  c #6A8664",
"!  c #6C8B65",
"~  c #6F826B",
"^  c #6F8969",
"/  c #738E6C",
"(  c #6E9266",
")  c #73936B",
"_  c #77986F",
"`  c #7B8F76",
"'  c #7F8D7C",
"]  c #7A9474",
"[  c #7C9B74",
"{  c #7F937A",
"}  c #7F9C78",
"|  c #80807F",
" . c #82947D",
".. c #839F7C",
"X. c #84A27C",
"o. c #888888",
"O. c #848484",
"+. c #869782",
"@. c #889585",
"#. c #8A9C86",
"$. c #8F998D",
"%. c #929F8F",
"&. c #919191",
"*. c #969E94",
"=. c #9B9C9B",
"-. c #87A480",
";. c #8AA684",
":. c #8FAB89",
">. c #91A58D",
",. c #94AD8E",
"<. c #9AA797",
"1. c #96AA92",
"2. c #9CA49A",
"3. c #9FAB9C",
"4. c #98A894",
"5. c #97B091",
"6. c #9BB395",
"7. c #9EB698",
"8. c #A2AD9F",
"9. c #A2B69D",
"0. c #A3B99D",
"q. c #A4A5A4",
"w. c #AAAAAA",
"e. c #A9B0A7",
"r. c #A6BAA1",
"t. c #A9BDA4",
"y. c #ADB4AB",
"u. c #B1BCAF",
"i. c #B3B3B3",
"p. c #B5BBB3",
"a. c #BBBBBB",
"s. c #AFC2AA",
"d. c #B2C5AE",
"f. c #B4C4B0",
"g. c #B7C9B3",
"h. c #BBCCB7",
"j. c #BDC2BD",
"k. c #BFCCBB",
"l. c #C1CBBF",
"z. c #C6C6C6",
"x. c #C5CCC3",
"c. c #C9CEC7",
"v. c #CBCBCB",
"b. c #C5D3C2",
"n. c #C9D6C6",
"m. c #CED9CB",
"M. c #CBD1C9",
"N. c #D1DCCE",
"B. c #D4D4D4",
"V. c #D5DED2",
"C. c #D8DED7",
"Z. c #DCDCDC",
"A. c #D7E1D5",
"S. c #D8E2D6",
"D. c #DCE4DB",
"F. c #E0E7DE",
"G. c #E1E8DF",
"H. c #E3E3E3",
"J. c #E3EAE2",
"K. c #E8EDE7",
"L. c #EDEDED",
"P. c #EBEBEA",
"I. c #EDF1EC",
"U. c #F6F6F6",
"Y. c #F3F4F3",
"T. c #F6F8F6",
"R. c #FAFBFA",
"E. c #FBFBFB",
"W. c #F9FAF9",
"Q. c white",
"!. c #FEFEFE",
"~. c #FDFEFD",
"^. c #FEFEFE",
/* pixels */
"                                                                                                                                                                                                                                                                                                                                                                                                                ",
"                                                                                                                                                                                                                                                                                                                                                                                                                ",
"                                                                                                                                                                                                                                                                                                                                                                                                                ",
"                  . . . . .     . . . . . . . . . . . . . . . . . . . . . . . . . . . . . . . . . . . . . . . . . . . . . . . . . . . . . . . . . . . . . . . . . . . . . . . . . . . . . . . . . . . . . . . . . . . . . . . . . . . . . . . . . . . . . . . . . . . . . . . . . . . . . . . . . . . . . . . . . . . . . . . . . . . . . . . . . . . . . . . . . . . . . . . . . . . . . . .                   ",
"              . . . . . . . . . . . . . . . . . . . . . . . . . . . . . . . . . . . . . . . . . . . . . . . . . . . . . . . . . . . . . . . . . . . . . . . . . . . . . . . . . . . . . . . . . . . . . . . . . . . . . . . . . . . . . . . . . . . . . . . . . . . . . . . . . . . . . . . . . . . . . . . . . . . . . . . . . . . . . . . . . . . . . . . . . . . . . . . . . . . . . . . . . .               ",
"            . . . . . . . . . . . . . . . . . . . . . . . . . . . . . . . . . . . . . . . . . . . . . . . . . . . . . . . . . . . . . . . . . . . . . . . . . . . . . . . . . . . . . . . . . . . . . . . . . . . . . . . . . . . . . . . . . . . . . . . . . . . . . . . . . . . . . . . . . . . . . . . . . . . . . . . . . . . . . . . . . . . . . . . . . . . . . . . . . . . . . . . . . . . .             ",
"        . . . . . . . . . . . . . . . . . . . . . . . . . . . . . . . . . . . . . . . . . . . . . . . . . . . . . . . . . . . . . . . . . . . . . . . . . . . . . . . . . . . . . . . . . . . . . . . . . . . . . . . . . . . . . . . . . . . . . . . . . . . . . . . . . . . . . . . . . . . . . . . . . . . . . . . . . . . . . . . . . . . . . . . . . . . . . . . . . . . . . . . . . . . . . . .           ",
"        . . . . . . . . . . . . . . . . . . . . . . . . . . . . . . . . . . . . . . . . . . . . . . . . . . . . . . . . . . . . . . . . . . . . . . . . . . . . . . . . . . . . . . . . . . . . . . . . . . . . . . . . . . . . . . . . . . . . . . . . . . . . . . . . . . . . . . . . . . . . . . . . . . . . . . . . . . . . . . . . . . . . . . . . . . . . . . . . . . . . . . . . . . . . . . .           ",
"        . . . . . . . . . . . . . . . . . . . . . . . . . . . . . . . . . . . . . . . . . . . . . . . . . . . . . . . . . . . . . . . . . . . . . . . . . . . . . . . . . . . . . . . . . . . . . . . . . . . . . . . . . . . . . . . . . . . . . . . . . . . . . . . . . . . . . . . . . . . . . . . . . . . . . . . . . . . . . . . . . . . . . . . . . . . . . . . . . . . . . . . . . . . . . . . . .       ",
"        . . . . . . . . . . . . o o o o . . . . . . . . o o o . . . . . . o o o o o o o . . . . . . . . . . . . o o o o . . . . o o o o . . . . . . . . o o o o . . . . . o o o o o o o . . . . . . . . . . . . o o o o . . . . o o o o . . . . . . . . o o o o . . . . . o o o o o o o . . . . . . . . . . . . o o o o . . . . o o o o . . . . . . . . o o o . . . . . . o o o . o o o . . . . . . . . .       ",
"        . . . . . . . . . . . . . . o o . . . . . . . . . o o o . . . . o o o o o . o o . . . . o o . . . . . . . o o o X @ + # $ . o o . . . . . . . . . o o o . . . . o o o o . . o o . . . . o o . . . . . . o o o o . . . . . . o o . . . . . . . . . o o o . . . . o o o o o . o o . . . . o o . . . . . . . o o o . . . . . . o o . . . . . . . . . o o o . . . . o o o o . . o o . o . . . . . . .       ",
"        . . . . . . . o o o o o o o o o o o o o o o o o o o o o o o o o o o o o ~ -.T @ o o o o o o o # X.-.N o o o @ k ) ,.g.t.#.R 3 @ o o o o o $ L -.R $ o o o o o o $ L -.W $ o o o o o o o o X K -.R O o o o o o & -.-.R @ o o o o o & -.-.i o o b X.] @ o o o p -.-.X.@ o o o o o o z -.) O o o o o o o o o o o o X N -./ O o o o o o o o o o o o o o o o o o o o o o o o o o o o o o . . . . . . .       ",
"      . . . . . . . o o o o o o o o o o o o o o o o o o o o o o o o o o o o o o Z H.R.f O o o o o o @ -.Q.Y.5 o $ + X.Q.Q.Q.Q.Q.Q.Q.J.g @ o o o o # s.Q.g.+ o o o o o o # 9.Q.h.+ o o o o o o o o @ ] Q.F.* o o o o X b Q.Q.K.* o o o o X m Q.Q.s o o X.Q.J.* o o o R L.Q.Q.Y O o o o o o ) Q.S.- o o o o o o o o o o o @ ;.Q.V.- o o o o o o o o o o o o o o o o o o o o o o o o o o o o o o . . . . . .       ",
"      . . . . . . o o o o o o o o o o o o o o o o o o o o o o o o o o o o o o o + >.U.N.: o o o o O j R.Q.E @ X & h.Q.Q.5.N < e H l.Q.R.E @ o o o # t.Q.g.+ o o o o o o # 1.Q.h.+ o o o o o o o o X l Y.Q.9 o o o o @ ! Y.R.Q.s o o o o @ } Q.J.* o o X.Q.J.* o o o Z B.Q.Q.S.- o o o o o ! Q.S.- o o o o o o o o o o o @ } Q.V.- o o o o o o o o o o o o o o o o o o o o o o o o o o o o o o . . . . . .       ",
"      . . . . . . o o o o o o o o o o o o o o o o o o o o o o o o o o o o o o o $ 1 x.Q.-.@ o o o : N.Q.h.+ o @ :.Q.T.T @ X o o O : 6.Q.R.9 $ o o # r.Q.g.+ o o o o o o # #.Q.h.+ o o o o o o o o o ; B.Q.E $ o o o + %.H.0.Q.E $ o o o + f.Q.0.@ o o [ Q.J.* o o o B a.F.I.Q.E O o o o o E R.A.- o o o o o o o o o o o @ / Q.V.- o o o o o o o o o o o o o o o o o o o o o o o o o o o o o o . . . . . .       ",
"      . . . . . . o o o o o o o o o o o o o o o o o o o o o o o o o o o o o o o o @ n Z.R.h O o @ -.Q.Y.5 $ $ w R.Q.[ @ o o o o o $ # l.Q.d.+ o o # 9.Q.g.+ o o o o o o #  .Q.h.+ o o o o o o o o o + <.Q.0.@ o o o ; i.c.B Q.0.@ o o o > H.Q.E $ o o ) Q.J.* o o o n w.x.] Q.F.; o o o o W U.S.- o o o o o o o o o o o @ Q Q.V.- o o o o o o o o o o o o o o o o o o o o o o o o o o o o o . . . . . . .       ",
"      . . . . . . . . o o o o o o o o o o o o o o o o o o o o o o o o o o o o o o o +  .Z.A.: O t R.Q.E @ o + r.Q.I.> o o o o o o o O n Y.Q.v $ o # 0.Q.g.+ o o o o o o # { Q.h.+ o o o o o o o o o @ L P.D.* o o X l a.>.& R.F.* o o X b U.Q.8 o o o ! Y.J.* o o o n q.p.; K.Q.) @ o o o Q R.S.- o o o o o o o o o o o @ W Q.V.- o o o o o o o o o o o o o o o o o o o o o o o o o o o o . . . . . . . .       ",
"      . . . . . . . . o o o o o o o o o o o o o o o o o o o o o o o o o o o o o o o $ 1 q.B.-.# N.Q.h.+ o o ; H.Q.0.@ o o o o o o o o ; B.Q.7.@ o # r.Q.g.+ o o o o o o # ` Q.h.+ o o o o o o o o o X u B.Q.8 o o @ ) z.R + n.Q.8 o o @ ..Q.F.* o o o Q L.J.* o o o B q.p.* ! Q.K.> o o o ) Q.S.- o o o o o o o o o o o @ L L.V.- o o o o o o o o o o o o o o o o o o o o o o o o o o o o . . . . . . . .       ",
"      . . . . . . . . o o o o o o o o o o o o o o o o o o o o o o o o o o o o o o o o @ a w.Z.t.Q.I.6 $ o o 8 Z.Q.[ $ o o o o o o o o * e.U.g.+ o # t.Q.g.+ o o o o o o # ` Q.h.+ o o o o o o o o o o ; j.R.E $ o + f.Z.s @ :.Q.E $ o + n.Q.0.@ o o o W P.J.* o o o C i.p.* ; F.Q.[ @ o o [ Q.S.- o o o o o o o o o o o @ L P.V.- o o o o o o o o o o o o o o o o o o o o o o o o o o o o . . . . . . . .       ",
"      . . . . . . . . o o o o o o o o o o o o o o o o o o o o o o o o o o o o o o o o o + P z.Q.Q.E @ o o o f Z.Q.Z o o o o o o o o o + +.P.N.- o # d.Q.g.+ o o o o o o # ` Q.h.+ o o o o o o o o o o + #.H.0.@ o > U.D.* X D Q.0.@ o > R.Q.E $ o o o R H.J.* o o o Z a.j.* O R Q.Y.3 X o [ Q.S.- o o o o o o o o o o o @ G Z.m.+ o o o o o o o o o o o o o o o o o o o o o o o o o o o o . . . . . . . .       ",
"      . . . . . . . o o o o o o o o o o o o o o o o o o o o o o o o o o o o o o o o o o $ 1 y.R.h.+ o o o o g B.Q.c o o o o o o o o o @ ` H.A.- o # r.Q.g.+ o o o o o o # ` Q.h.+ o o o o o o o o o o @ G z.V.* X N Q.s.# o < L.D.* X M Q.Q.8 o o o o R H.J.* o o o Z z.c.* o - N.Q.-.@ o [ Q.S.- o o o o o o o o o o o X S B.b.+ o o o o o o o o o o o o o o o o o o o o o o o o o o o o . . . . . . . .       ",
"      . . . . . . o o o o o o o o o o o o o o o o o o o o o o o o o o o o o o o o o o o o * 2.R.;.@ o o o o 5 v.Q.R o o o o o o o o o + 4.P.g.+ o # 9.Q.g.+ o o o o o o # { Q.h.+ o o o o o o o o o o X q i.H.8 @ ;.Q.) $ o - u.H.6 @ -.Q.D.* o o o o L H.J.* o o o H B.V.* o O B H.H.3 X [ Q.S.- o o o o o o o o o o o o B Z.f.+ o o o o o o o o o o o o o o o o o o o o o o o o o o o o . . . . . . .         ",
"      . . . . . . o o o o o o o o o o o o o o o o o o o o o o o o o o o o o o o o o o o o * 2.Q.;.@ o o o o = a.Q.X.O o o o o o o o o * j.Y.,.@ o # >.Q.k.+ o o o o o o + #.Q.g.+ o o o o o o o o o o o ; =.v.E + n.Q.h o o @ / z.T + b.Q.9.@ o o o o H H.J.* o o o H Z.D.* o o + 3.v.;.@ [ Q.S.- o o o o o o o o o o o o B Z.t.@ o o o o o o o o o o o o o o o o o o o o o o o o o o o o o . . . . . .         ",
"      . . . . . . o o o o o o o o o o o o o o o o o o o o o o o o o o o o o o o o o o o o * 2.Q.;.@ o o o o - $.P.m.+ o o o o o o o $ r H.Q.( X o @ / L.A.- o o o o o o + y.Q.5.@ o o o o o o o o o o o + I a.6.& R.I.* o o X l i.;.& R.Q.E $ o o o o H Z.J.* o o o H H.K.* o o O t w.z.8 [ Q.S.- o o o o o o o o o o o o 4 c r $ o o o o o o o o o o o o o o o o o o o o o o o o o o o o o . . . . . .         ",
"      . . . . . . . . o o o o o o o o o o o o o o o o o o o o o o o o o o o o o o o o o o * 2.Q.;.@ o o o o O N z.Q.c % o o o o o o # 1.U.Y.5 o o X M B.I.* o o o o o o * B.Q._ $ o o o o o o o o o o o @ z q.x.B Q.d.+ o o o > =.y.B Q.Q.8 o o o o o H Z.J.* o o o H P.K.* o o o + P q.;.{ Q.S.- o o o o o o o o o o o o o o o o o o o o o o o o o o o o o o o o o o o o o o o o o o o o o o . . . . . .       ",
"      . . . . . . . . o o o o o o o o o o o o o o o o o o o o o o o o o o o o o o o o o o * 2.R.;.@ o o o o o ; *.H.b.: O o o o o @ k L.Q.X.@ o o o f a.Y.V O o o o o O x R.Q.V o o o o o o o o o o o o X 0 &.B.9.Q._ $ o o o - U i.,.Q.D.* o o o o o G Z.J.* o o o H H.K.* o o o $ 4 o.a.6.Q.A.- o o o o o o o o o o o X @ = - O o o o o o o o o o o o o o o o o o o o o o o o o o o o o o o . . . . . .       ",
"      . . . . . . o o o o o o o o o o o o o o o o o o o o o o o o o o o o o o o o o o o o * *.L.;.@ o o o o o @ z i.P.m.7 + @ # * Z K.Q.K., o o o o + ' z.G.k + @ @ + f V.Q.m.: o o o o o o o o o o o o o ; | a.U.Q.k o o o o @ m =.B.Q.7.@ o o o o o F B.J.* o o o A Z.J.* o o o o # M =.B.Q.A.- o o o o o o o o o o o @ ] Q.V.- o o o o o o o o o o o o o o o o o o o o o o o o o o o o o o . . . . . .       ",
"      . . . . . . o o o o o o o o o o o o o o o o o o o o o o o o o o o o o o o o o o o o * *.Z.;.@ o o o o o o @ x i.H.R.n.,.s.F.Y.Y.n.t @ o o o o % 1 @.v.K.g.5.,.f.P.U.V.7 O o o o o o o o o o o o o o + K w.H.Y.; o o o o $ y &.z.Q.R $ o o o o o C z.V.* o o o Z B.J.* o o o o $ 1 O.a.U.S.- o o o o o o o o o o o @ / L.V.- o o o o o o o o o o o o o o o o o o o o o o o o o o o o o o . . . . .         ",
"      . . . . . . o o o o o o o o o o o o o o o o o o o o o o o o o o o o o o o o o o o o * *.B.;.@ o o o o o o o @ 5 +.j.H.P.P.H.x.] - O o o o o o o O + B 8.B.H.H.H.k.Q - O o o o o o o o o o o o o o o @ b q.v.f.+ o o o o o , &.a.P.8 o o o o o o G z.M.* o o o Z B.C.; o o o o o @ D w.Z.S.- o o o o o o o o o o o @ ^ H.A.- o o o o o o o o o o o o o o o o o o o o o o o o o o o o . . . . . . . .       ",
"      . . . . . . . o o o o o o o o o o o o o o o o o o o o o o o o o o o o o o o o o o o O * = @ X o o o o o o o o $ + ; > g 9 ; - O o o o o o o o o o o O - ; e d ; - O o o o o o o o o o o o o o o o o X @ = = + $ o o o o o @ = = = @ o o o o o o @ = * O o o o @ = ; @ o o o o o $ @ = = - O o o o o o o o o o o o X @ = - O o o o o o o o o o o o o o o o o o o o o o o o o o o o o . . . . . . . .       ",
"      . . . . . . . . o o o o o o o o o o o o o o o o o o o o o o o o o o o o o o o o o o o o o o o o o o o o o o o o o o o o o o o o o o o o o o o o o o o o o o o o o o o o o o o o o o o o o o o o o o o o o o o o o o o o o o o o o o o o o o o o o o o o o o o o o o o o o o o o o o o o o o o o o o o o o o o o o o o o o o o o o o o o o o o o o o o o o o o o o o o o o o o o o o . . . . . . .         ",
"      . . . . . . . . . . . . . . . . . . . . . . . . . . . . . . . . . . . . . . . . . . . . . o . . . . . . . . . . . . o . . . . . . . . . . . . . . . . . . . . . . . . . . . . . . . . . . . . . . . . . . . . . . o . . . . . . . . . . . o . . . . . . . . . . . . . . . . . . . . . . . . . . . . . . . . . . . . . o o . . . . . . . . . . . . . . . . . . . . . . . . . . . . . . . . . . . . .       ",
"      . . . . . . . . . . . . . . . . . . . o o o o o o . . . . . . o o . . . . . . o o o o o o . . . . . . o o o o o o . . . . . o o o . . . . . o . o . . . . . o o o . . . . . o . o . . . . . . o o o o . . . . . . . . o o o o o o . . . . . . o o o o o o . . . . . . o o o o o o . . . . . . o o o o o o . . . . . . o o . o o o . . . . . o . o . . . . . o o o . . . . . . . . . . . . . . . .         ",
"      . . . . . . . . . . . . . . . . . . . . . . . . . . . . . . . . . . . . . . . . . . . . . . . . . . . . . . . . . . . . . . . . . . . . . . . . . . . . . . . . . . . . . . . . . . . . . . . . . . . . . . . . . . . . . . . . . . . . . . . . . . . . . . . . . . . . . . . . . . . . . . . . . . . . . . . . . . . . . . . . . . . . . . . . . . . . . . . . . . . . . . . . . . . . . . . . .         ",
"        . . . . . . . . . . . . . . . . . . . . . . . . . . . . . . . . . . . . . . . . . . . . . . . . . . . . . . . . . . . . . . . . . . . . . . . . . . . . . . . . . . . . . . . . . . . . . . . . . . . . . . . . . . . . . . . . . . . . . . . . . . . . . . . . . . . . . . . . . . . . . . . . . . . . . . . . . . . . . . . . . . . . . . . . . . . . . . . . . . . . . . . . . . . . . . . .         ",
"        . . . . . . . . . . . . . . . . . . . . . . . . . . . . . . . . . . . . . . . . . . . . . . . . . . . . . . . . . . . . . . . . . . . . . . . . . . . . . . . . . . . . . . . . . . . . . . . . . . . . . . . . . . . . . . . . . . . . . . . . . . . . . . . . . . . . . . . . . . . . . . . . . . . . . . . . . . . . . . . . . . . . . . . . . . . . . . . . . . . . . . . . . . . . . . . .         ",
"            . . . . . . . . . . . . . . . . . . . . . . . . . . . . . . . . . . . . . . . . . . . . . . . . . . . . . . . . . . . . . . . . . . . . . . . . . . . . . . . . . . . . . . . . . . . . . . . . . . . . . . . . . . . . . . . . . . . . . . . . . . . . . . . . . . . . . . . . . . . . . . . . . . . . . . . . . . . . . . . . . . . . . . . . . . . . . . . . . . . . . . . . . . . . .           ",
"            . . . . . . . . . . . . . . . . . . . . . . . . . . . . . . . . . . . . . . . . . . . . . . . . . . . . . . . . . . . . . . . . . . . . . . . . . . . . . . . . . . . . . . . . . . . . . . . . . . . . . . . . . . . . . . . . . . . . . . . . . . . . . . . . . . . . . . . . . . . . . . . . . . . . . . . . . . . . . . . . . . . . . . . . . . . . . . . . . . . . . . . . . .                 ",
"                .   . . . . . .         . . . . . . . .     .   . . . .     .   .     . . . . .         . . . . . . . .     .   . . . .   . . . . . . . . . . . . . . .   . . . . . . . . . . . .   . . . . . .         . . . . . . . .     .   .     . . . . .         . . . . . . . .     .   .     . . . . .         . . . . . . . .   . . . . . . . . . . . . . . .   . . . . . . . . . . .                 ",
"                                                  .               .                                               .                                                                                                               .                                               .                                                                                                                             ",
"                                                                                                                                                                                                                                                                                                                                                                                                                ",
"                                                                                                                                                                                                                                                                                                                                                                                                                "
};
