/* XPM */
static char *_4ac0c3004aa4096f974c86312a39550gXtKVAdo2X1SxYjV[] = {
/* columns rows colors chars-per-pixel */
"40 40 16 1 ",
"  c black",
". c #130E0A",
"X c #2B1F15",
"o c #1C150E",
"O c #2E271E",
"+ c #3F392D",
"@ c #5B5644",
"# c #7B7660",
"$ c #A29E83",
"% c #858267",
"& c #ADA991",
"* c #B7B49C",
"= c #6F6C51",
"- c #79765A",
"; c #352F23",
": c white",
/* pixels */
"                                        ",
"                               ..       ",
"                              ...       ",
"                              ...       ",
"                              ...       ",
"        .       ..       ...  ...       ",
"      ............ .....................",
"     ...XXXXXoXXXXoXXXXXoXXXXXXXXoXXXXXX",
"     ...XXXXXoXXXXoXXXXXoXXXXXXXXoXXXXXX",
"      ..XooXXooooooooooooooooooooooooooo",
"     ...Xo ooo..oooo......ooo.ooo..o..oo",
"    . ..oo....oX   . ..  .   .ooo .   . ",
"   .  ..oo....oo  .           ooo       ",
"   .  ..oo....oo  .           ooo       ",
"    . ..Xo.   ..oo   OOOO     OooOooOOOO",
"     ...Xo.   .XOOO++++++OOOO+OOOOoOOOOO",
"     ...oo.    O++@@@@@@@@@@@@@@@@@@@@@@",
"     ...oo.   OO@@@##@@#@#@@###@@#####@#",
"     ...oo.   OO@@@##@@#@#@@###@@#####@#",
"      ..Xo.   OO@@##$$$$#$$$$$$$$##$$$$$",
"     ...Xoo   OO@@#$%&&**********&$*****",
"   .ooooXXXXXXoO@@#$&%%&****************",
" .......XooooooO@@#$*&&%&&**************",
" .......XooooooO@@#$*&&%&&**************",
"     ...oo...  O@@#$***&%$&&**$$$%$*****",
"      ..Xoo    O@@#$***&$%&&************",
"      ..oo.    O@@@$****&&%%$$$$$*&*****",
"     ...Xo.    O@@#$******$$=%$$$%%$&&&*",
"     ...Xo.    O@@#$******$$=%$$$%%$&&&*",
"      ..Xo...  O@@#$******$$%=$&&*******",
"      ..Xo.    O@@#$****$*$$$$=%%&&*****",
"      ..Xo.    O@@@$****$*$$$&%==$&*****",
"    ....Xo.    O@@##&***%***%*&$$=%$&&**",
"    ....Xo.    O@@##&***%***%*&$$=%$&&**",
" ...ooooXXXXXXO+@@@#$***$*&&%*&&&%=$$$&&",
"   .....XoooooO+@@#$********$****$$====-",
"        Xo.  .O+@@#$********&****&$====%",
"      ..Xo.  .OO@@#$********&*****&=====",
"      ..Xo.  .OO@@#$********&*****&=====",
"      ..Xo.   O+@@@$**************&-%%=;"
};
