/* XPM */
static char *f5a3594912dd493cfbe27b8238a25119xpeyBl4Z4cC0dNdF[] = {
/* columns rows colors chars-per-pixel */
"40 40 16 1 ",
"  c black",
". c #130E0A",
"X c #2B1F15",
"o c #1C150E",
"O c #2E271E",
"+ c #3F392D",
"@ c #5B5644",
"# c #A29E83",
"$ c #B7B49C",
"% c #ADA991",
"& c #79765A",
"* c #858267",
"= c #6F6C51",
"- c #352F23",
"; c #7B7660",
": c white",
/* pixels */
"      ..Xo.   O+@@@#$$$$$$$$$$$$$$%&**=-",
"      ..Xo.  .OO@@;#$$$$$$$$%$$$$$%=====",
"        Xo.  .O+@@;#$$$$$$$$%$$$$%#====*",
"        Xo.  .O+@@;#$$$$$$$$%$$$$%#====*",
"   .....XoooooO+@@;#$$$$$$$$#$$$$##====&",
" ...ooooXXXXXXO+@@@;#$$$#$%%*$%%%*=###%%",
"    ....Xo.    O@@;;%$$$*$$$*$%##=*#%%$$",
"      ..Xo.    O@@@#$$$$#$###%*==#%$$$$$",
"      ..Xo.    O@@@#$$$$#$###%*==#%$$$$$",
"      ..Xo.    O@@;#$$$$#$####=**%%$$$$$",
"      ..Xo...  O@@;#$$$$$$##*=#%%$$$$$$$",
"     ...Xo.    O@@;#$$$$$$##=*###**#%%%$",
"      ..oo.    O@@@#$$$$%%**#####$%$$$$$",
"      ..oo.    O@@@#$$$$%%**#####$%$$$$$",
"      ..Xoo    O@@;#$$$%#*%%$$$$$$$$$$$$",
"     ...oo...  O@@;#$$$%*#%%$$###*#$$$$$",
" .......XooooooO@@;#$%%*%%$$$$$$$$$$$$$$",
"   .ooooXXXXXXoO@@;#%**%$$$$$$$$$$$$$$$$",
"   .ooooXXXXXXoO@@;#%**%$$$$$$$$$$$$$$$$",
"     ...Xoo   OO@@;#*%%$$$$$$$$$$%#$$$$$",
"      ..Xo.   OO@@;;####;########;;#####",
"     ...oo.   OO@@@;;@@;@;@@;;;@@;;;;;@;",
"     ...oo.    O++@@@@@@@@@@@@@@@@@@@@@@",
"     ...oo.    O++@@@@@@@@@@@@@@@@@@@@@@",
"     ...Xo.   .XOOO++++++OOOO+OOOOoOOOOO",
"    . ..Xo.   ..oo   OOOO     OooOooOOOO",
"   .  ..oo....oo  .           ooo       ",
"    . ..oo....oX   . ..  .   .ooo .   . ",
"    . ..oo....oX   . ..  .   .ooo .   . ",
"     ...Xo ooo..oooo......ooo.ooo..o..oo",
"      ..XooXXooooooooooooooooooooooooooo",
"     ...XXXXXoXXXXoXXXXXoXXXXXXXXoXXXXXX",
"      ............ .....................",
"      ............ .....................",
"        .       ..       ...  ...       ",
"                              ...       ",
"                              ...       ",
"                               ..       ",
"                               ..       ",
"                                        "
};
