/* XPM */
static char *_03531f139cf4e17faccd7a0545b3003LfVAYFtycCN5Wh6p[] = {
/* columns rows colors chars-per-pixel */
"40 40 19 1 ",
"  c black",
". c #130E0A",
"X c #2B1F15",
"o c #1C150E",
"O c #2E271E",
"+ c #5B5644",
"@ c #7B7660",
"# c #A29E83",
"$ c #ADA991",
"% c #B7B49C",
"& c #6F6C51",
"* c #79765A",
"= c #949076",
"- c #858267",
"; c #352F23",
": c #453F33",
"> c #393327",
", c #3F392D",
"< c white",
/* pixels */
"                                        ",
"                   .                    ",
"                   .                    ",
"                   .                    ",
"                  ..                    ",
"         .      ....          .        .",
"........................................",
"XXXoXXXXXXXooXooooXXXooXoooooXXXXoXXXXoX",
"XXXoXXXXXXXooXooooXXXooXoooooXXXXoXXXXoX",
"oooooooooooooooooooooooooooooooooooooooo",
".....o............oo.oo.................",
"             .    oo   ......       .. .",
"                  oo                    ",
"                  oo                    ",
"OOOOO         XXXX..                    ",
"OOOOOOOOOOOOOOOOOOOOOOOOOOOOOOOOOOOOOOOO",
"++++++++++++++++++++++++++++++++++++++++",
"@@@@@@@@@@@@@@@@@@@@@@@@@@@@@@@@@+@@@@@@",
"@@@@@@@@@@@@@@@@@@@@@@@@@@@@@@@@@+@@@@@@",
"######@@######@+#################@@#####",
"$$$%%%%%%%%%%%##%%%%%%%%%%%%%%%%%%%%%%%%",
"%%%%%%%%%%%%%%##%%%%%%%%%%%%%%%%%$%%%%%%",
"%%%%%%%%%%%%%%##$$%%%%%%%%%%%%%%%%%%%%%%",
"%%%%%%%%%%%%%%##$$%%%%%%%%%%%%%%%%%%%%%%",
"%%%%%%%%%%%%%%%%%%%%%%%%%%%%%%%%%%%%%%%%",
"%%%%%%%%%%%%%%%%##%%%%%%%%%%%%%%%%%%%%%%",
"%%%%%%%%%%%%%%%%$$$%%%%%%%%%%%%%%%%%%%%$",
"%%%%%%%%%%%%%%%%%%#%%%%%%%%%%%%%%%%%%%%$",
"%%%%%%%%%%%%%%%%%%#%%%%%%%%%%%%%%%%%%%%$",
"%%%%%%%%%%%%%%%%%%$%%%%%%%%%%%%%%%%%%%%%",
"%%%%%%%%%%%%%%%%%%%%%%%%%%%%%%%%%%%%%%%%",
"%%%%%%%%%%%%%%%%%%%%%%%%%%%%%%%%%%%%%%%%",
"%$$$$$$$$$$$$$#%##$$$#######$$$$$%%%%%%$",
"%$$$$$$$$$$$$$#%##$$$#######$$$$$%%%%%%$",
"$#######################################",
"&#######################################",
"&**=-=##############################&&##",
"-==##=--########==-=####=---=######=&&*#",
"-==##=--########==-=####=---=######=&&*#",
";::>,:::>:,,,,,:;;;>,,,,,,>>,,,,,,,,>>>>"
};
