/* XPM */
static char *_65ab6eba86a4f6acedd96b115320ab0IG1oXdMsmlwd4z3K[] = {
/* columns rows colors chars-per-pixel */
"40 40 16 1 ",
"  c #352F23",
". c #6F6C51",
"X c #858267",
"o c #79765A",
"O c #ADA991",
"+ c #B7B49C",
"@ c #A29E83",
"# c #5B5644",
"$ c #3F392D",
"% c #2E271E",
"& c black",
"* c #130E0A",
"= c #1C150E",
"- c #2B1F15",
"; c #7B7660",
": c white",
/* pixels */
" ..XoO++++++++++++++@###$%&&&*=--*&&&&&&",
".....O+++++OO+++++++@;;#%%**&*=--*&&&&&&",
"X....@OO+++OO+++++++@;;#$%**&*=--&&&&&&&",
"X....@OO+++OO+++++++@;;#$%**&*=--&&&&&&&",
"o....@@@+++@@+++++++@;;#$%=====--*****&&",
"OOO@@.XXOO+XXO+@+++@;###$%-------===***&",
"+++O@X..@O+XX++X+++O;;;#%&&&&*=--***&&&&",
"+++++O@@.XO@@@+@++++@###%&&&&*=--*&&&&&&",
"+++++O@@.XO@@@+@++++@###%&&&&*=--*&&&&&&",
"+++++OOOX.@@@@+@++++@;;#%&&&&*=--*&&&&&&",
"++++++++O@.XX@++++++@;;#%&&&**=--*&&&&&&",
"+OOO@XXX@@X..@++++++@;;#%&&&&*=--**&&&&&",
"+++++O++@@@@@XOO++++@###%&&&&*===*&&&&&&",
"+++++O++@@@@@XOO++++@###%&&&&*===*&&&&&&",
"+++++++++++++OX@OO++@;;#%&&&&==--*&&&&&&",
"+++++@XX@@+++O@XOO++@;;#%&&&**===**&&&&&",
"++++++++++++++OOXXO+@;;#%======--******&",
"++++++++++++++++OOXO@;;#%=-------===**&&",
"++++++++++++++++OOXO@;;#%=-------===**&&",
"+++++@OO++++++++++OX@;;#%%&&&==--**&&&&&",
"@@@@@;;;@@@@@@@;@@@@;;;#%%&&&*=--*&&&&&&",
";##;;;;;#;;;;#;#;;#;;###%%&&&*===**&&&&&",
"#######################$%&&&&*===**&&&&&",
"#######################$%&&&&*===**&&&&&",
"%%%%%=%%%%$%%%%$$$$$$%%%-*&&&*=--**&&&&&",
"%%%%==%%=%&&&&&%%%%&&&&=**&&&*=--*&*&&&&",
"&&&&&&&&==&&&&&&&&&&&**&==****===*&&**&&",
"&**&&*&&==*&&&*&&&*&*&&&-=****===*&*&&&&",
"&**&&*&&==*&&&*&&&*&*&&&-=****===*&*&&&&",
"===*=***==*===******====**===&=--**&&&&&",
"============================-==--*&&&&&&",
"------==-------=-----==---==-----**&&&&&",
"*********************&&***********&&&&&&",
"*********************&&***********&&&&&&",
"&&&&&&&&**&&&**&&&&&&&&*&&&&&&&**&&&&&&&",
"&&&&&&&&**&&&&&&&&&&&&&&&&&&&&&&&&&&&&&&",
"&&&&&&&&**&&&&&&&&&&&&&&&&&&&&&&&&&&&&&&",
"&&&&&&&&*&&&&&&&&&&&&&&&&&&&&&&&&&&&&&&&",
"&&&&&&&&*&&&&&&&&&&&&&&&&&&&&&&&&&&&&&&&",
"&&&&&&&&&&&&&&&&&&&&&&&&&&&&&&&&&&&&&&&&"
};
