/* XPM */
static char *ab57a644d41c4a69a533979b0f75eb3dRuCO12DjHpTOp1Wc[] = {
/* columns rows colors chars-per-pixel */
"40 40 20 1 ",
"  c black",
". c #130E0A",
"X c #2B1F15",
"o c #1C150E",
"O c #2E271E",
"+ c #3F392D",
"@ c #5B5644",
"# c #7B7660",
"$ c #A29E83",
"% c #ADA991",
"& c #B7B49C",
"* c #6F6C51",
"= c #858267",
"- c #352F23",
"; c #79765A",
": c #949076",
"> c #453F33",
", c #393327",
"< c #1B150F",
"1 c white",
/* pixels */
"      ..Xoo   O+@@#$%&&&&&&&&&&&&&%***=-",
"     ...Xo.    O@@#$%&&&&&&&&&&&&%$$;;:>",
"     ...Xo...  O@@#$&&&&&&&&&&&&&%$$::$,",
"     ...Xo...  O@@#$&&&&&&&&&&&&&%$$::$,",
"      ..oo...  O@@@$&&&&&&&&&&&&&%$$==$+",
"      ..Xo.   OO@@#$&&&&&&&&&&&&&%$$:::>",
"      ..oo.    +@@@$&&&&&&&&&&&&&%$$$$=>",
"      ..oo.   O+@@#$&&&&&&&&&&&&&%$$$$$,",
"      ..oo.   O+@@#$&&&&&&&&&&&&&%$$$$$,",
"      ..Xo.   O+@@#$&&&&&&&&&&&&&%$$$$$>",
"      ..Xo.   O+@@@$&&&&&&&&&&&&&$$$$$=+",
"     ...Xoo.. O+@@#$&&&&&&&&&&&&&$$$::=+",
"     ...Xo.   O+@@#$&&&&&&&&&&&&&%$$$$:+",
"     ...Xo.   O+@@#$&&&&&&&&&&&&&%$$$$:+",
"      ..X..  .X+@@#$&&&&&&&&&&&&&&$$$$:+",
"      ..Xo... O+@@#$&&&&&&&&&&&&&%$$$$$,",
"      ..Xo.   O+@@#$%&&&&&&&&&&&&&$$$$$,",
"      ..Xo.   OO@@##%&&&&&&&&&&&&&$$$$$,",
"      ..Xo.   OO@@##%&&&&&&&&&&&&&$$$$$,",
"      ..Xo... OO@@##&&&&&&&&&&&&&&$$$$$+",
"      ..oo.   O+@@@$&&&&&&&&&&&&&&$$$$$+",
"      ..oo.   O+@@#$&&&&&&&&&&&&&&$$::*+",
"    ooooXoo   O+@@#$&&&&&&&&&&&&&&$$***+",
"    ooooXoo   O+@@#$&&&&&&&&&&&&&&$$***+",
"   .....XoooooO+@@@$&&&&&&&&&&&&&&$$::*<",
"    . ....    O+@@#$&&&&&&&&&&&&&&$$$$$+",
"    . ..Xo.    O@@#$&&&&&&&&&&&&&%$$$$$,",
"      ..Xo...  O@@#$&&&&&&&&&&&&&%$$$$:-",
"      ..Xo...  O@@#$&&&&&&&&&&&&&%$$$$:-",
"     ...Xo.  . O@@#$&&&&&&&&&&&&&$%$$$=-",
"      ..oo.    O@@@#&&&&&&&&&&&&&&%$:::,",
"      ..Xo.    O@@#$&&&&&&&&&&&&&&&$$$=-",
"        ooo..  O@@#$&&&&&&&&&&&&&&&$$$$-",
"        ooo..  O@@#$&&&&&&&&&&&&&&&$$$$-",
"        Xo.    O@@#$&&&&&&&&&&&&&&&$$$$-",
"      ..Xo.  . O@@#$&&&&&&&&&&&&&%%$$$$-",
"      ..ooo..  O@@#$&&&&&&&&&&&&&$$$$$$>",
"      ..Xo...  O@@#$&&&&&&&&&&&&&$$$$$:-",
"      ..Xo...  O@@#$&&&&&&&&&&&&&$$$$$:-",
"      ..Xoo..  O@@#$&&&&&&&&&&&&&%$$$$:,"
};
