/* XPM */
static char *c3a8d54a88634c3fefa0ef4fdbc5c22ekzJ1MEhvkZm5NJ2Z[] = {
/* columns rows colors chars-per-pixel */
"40 40 19 1 ",
"  c #352F23",
". c #453F33",
"X c #393327",
"o c #3F392D",
"O c #858267",
"+ c #949076",
"@ c #A29E83",
"# c #6F6C51",
"$ c #79765A",
"% c #ADA991",
"& c #B7B49C",
"* c #7B7660",
"= c #5B5644",
"- c #2E271E",
"; c black",
": c #2B1F15",
"> c #130E0A",
", c #1C150E",
"< c white",
/* pixels */
" ..Xo...X.ooooo.   XooooooXXooooooooXXXX",
"O++@@+OO@@@@@@@@++O+@@@@+OOO+@@@@@@+##$@",
"#$$+O+@@@@@@@@@@@@@@@@@@@@@@@@@@@@@@##@@",
"#$$+O+@@@@@@@@@@@@@@@@@@@@@@@@@@@@@@##@@",
"#@@@@@@@@@@@@@@@@@@@@@@@@@@@@@@@@@@@@@@@",
"%@@@@@@@@@@@@@@@@@@@@@@@@@@@@@@@@@@@@@@@",
"&%%%%%%%%%%%%%@&@@%%%@@@@@@@%%%%%&&&&&&%",
"&&&&&&&&&&&&&&&&&&&&&&&&&&&&&&&&&&&&&&&&",
"&&&&&&&&&&&&&&&&&&&&&&&&&&&&&&&&&&&&&&&&",
"&&&&&&&&&&&&&&&&&&&&&&&&&&&&&&&&&&&&&&&&",
"&&&&&&&&&&&&&&&&&&%&&&&&&&&&&&&&&&&&&&&&",
"&&&&&&&&&&&&&&&&&&@&&&&&&&&&&&&&&&&&&&&%",
"&&&&&&&&&&&&&&&&%%%&&&&&&&&&&&&&&&&&&&&%",
"&&&&&&&&&&&&&&&&%%%&&&&&&&&&&&&&&&&&&&&%",
"&&&&&&&&&&&&&&&&@@&&&&&&&&&&&&&&&&&&&&&&",
"&&&&&&&&&&&&&&&&&&&&&&&&&&&&&&&&&&&&&&&&",
"&&&&&&&&&&&&&&@@%%&&&&&&&&&&&&&&&&&&&&&&",
"&&&&&&&&&&&&&&@@&&&&&&&&&&&&&&&&&%&&&&&&",
"&&&&&&&&&&&&&&@@&&&&&&&&&&&&&&&&&%&&&&&&",
"%%%&&&&&&&&&&&@@&&&&&&&&&&&&&&&&&&&&&&&&",
"@@@@@@**@@@@@@*=@@@@@@@@@@@@@@@@@**@@@@@",
"*********************************=******",
"========================================",
"========================================",
"----------------------------------------",
"-----;;;;;;;;;::::>>;;;;;;;;;;;;;;;;;;;;",
";;;;;;;;;;;;;;;;;;,,;;;;;;;;;;;;;;;;;;;;",
";;;;;;;;;;;;;>;;;;,,;;;>>>>>>;;;;;;;>>;>",
";;;;;;;;;;;;;>;;;;,,;;;>>>>>>;;;;;;;>>;>",
">>>>>,>>>>>>>>>>>>,,>,,>>>>>>>>>>>>>>>>>",
",,,,,,,,,,,,,,,,,,,,,,,,,,,,,,,,,,,,,,,,",
":::,:::::::,,:,,,,:::,,:,,,,,::::,::::,:",
">>>>>>>>>>>>>>>>>>>>>>>>>>>>>>>>>>>>>>>>",
">>>>>>>>>>>>>>>>>>>>>>>>>>>>>>>>>>>>>>>>",
";;;;;;;;;>;;;;;;>>>>;;;;;;;;;;>;;;;;;;;>",
";;;;;;;;;;;;;;;;;;>>;;;;;;;;;;;;;;;;;;;;",
";;;;;;;;;;;;;;;;;;;>;;;;;;;;;;;;;;;;;;;;",
";;;;;;;;;;;;;;;;;;;>;;;;;;;;;;;;;;;;;;;;",
";;;;;;;;;;;;;;;;;;;>;;;;;;;;;;;;;;;;;;;;",
";;;;;;;;;;;;;;;;;;;;;;;;;;;;;;;;;;;;;;;;"
};
