/* XPM */
static char *_d5a82c9aefa4668885c95ebe63cbcf2Pp0aCEcVOzqcNc3w[] = {
/* columns rows colors chars-per-pixel */
"40 40 16 1 ",
"  c black",
". c #130E0A",
"X c #2B1F15",
"o c #1C150E",
"O c #2E271E",
"+ c #3F392D",
"@ c #5B5644",
"# c #7B7660",
"$ c #A29E83",
"% c #B7B49C",
"& c #ADA991",
"* c #858267",
"= c #6F6C51",
"- c #79765A",
"; c #352F23",
": c white",
/* pixels */
"                                        ",
"        .                               ",
"        ..                              ",
"        ..                              ",
"        ..                              ",
"        ..   ..        .       ..       ",
".....................  ...........      ",
"XXXXXXooXXXXXXXoXXXXXooXXXooXXXXX..     ",
"XXXXXXooXXXXXXXoXXXXXooXXXooXXXXX..     ",
"ooooooooooooooooooooooooooooXooXX.      ",
"ooo.o...oo.ooo......oooo..ooo oXX..     ",
" ..  .  oo.   .   . .   Xo....ooo. .    ",
"        oo           .. oo....ooo.  ..  ",
"        oo           .. oo....ooo.  ..  ",
"OOOOooOOoO     OOOO    o..   .oXX. .    ",
"OOOOOoOOOO+OOOO++++++OOOX.   .oXX..     ",
"@@@@@@@@@@@@@@@@@@@@@@@+O    .ooo..     ",
"#@@#####@####@#@##@##@@@OO   .ooo..     ",
"#@@#####@####@#@##@##@@@OO   .ooo..     ",
"$$$$$###$$$$$$$#$$$$###@OO   .oXX.      ",
"%%%%%$&&%%%%%%%%%%&*$##@OO   ooXX..     ",
"%%%%%%%%%%%%%%%%&&*&$##@OoXXXXXXXooo..  ",
"%%%%%%%%%%%%%%&&**&%$##@OooooooXX...... ",
"%%%%%%%%%%%%%%&&**&%$##@OooooooXX...... ",
"%%%%%$**$$%%%&$*&&%%$##@O   ..ooo..     ",
"%%%%%%%%%%%%%&*$&&%%$##@O    ooXX.      ",
"%%%%%&%%$$$$$*&&%%%%$@@@O    .ooo.      ",
"%&&&$***$$*==$%%%%%%$##@O    .oXX..     ",
"%&&&$***$$*==$%%%%%%$##@O    .oXX..     ",
"%%%%%%%%&$=**$%%%%%%$##@O   ..oXX.      ",
"%%%%%&&&*=$$$$%$%%%%$##@O    .oXX.      ",
"%%%%%&$$=*&$$$%$%%%%$@@@O    .oXX.      ",
"%%%&$*==$&%**%%*%%%&###@O    .oXX...    ",
"%%%&$*==$&%**%%*%%%&###@O    .oXX...    ",
"&&&$$=**&&%**&%$%%%$#@@@+OXXXXXXXooo... ",
"-====$$$%%%$$%%%%%%%$##@+OoooooXX.....  ",
"*====$&&%%%&&%%%%%%%$##@+O.. .oXX       ",
"=====&%%%%%&&%%%%%%%$##@OO.. .oXX.      ",
"=====&%%%%%&&%%%%%%%$##@OO.. .oXX.      ",
";==*-&%%%%%%%%%%%%%%$@@@+O   .oXX.      "
};
