/* XPM */
static char *_9b84d924a6b4e58c9fc65e0c20a769aZ0HZ5zMR1Nl1mndb[] = {
/* columns rows colors chars-per-pixel */
"40 40 20 1 ",
"  c #393327",
". c #949076",
"X c #A29E83",
"o c #ADA991",
"O c #B7B49C",
"+ c #7B7660",
"@ c #5B5644",
"# c #2E271E",
"$ c black",
"% c #130E0A",
"& c #1C150E",
"* c #2B1F15",
"= c #352F23",
"- c #453F33",
"; c #858267",
": c #3F392D",
"> c #1B150F",
", c #6F6C51",
"< c #79765A",
"1 c white",
/* pixels */
" ..XXXooOOOOOOOOOOOOX++@#$$$%&&**%$$$$$$",
"=..XXXXXOOOOOOOOOOOOX++@#$$$%%&**%$$$$$$",
"-XXXXXXXOOOOOOOOOOOOX++@#$$$%&&&&%$$$$$$",
"-XXXXXXXOOOOOOOOOOOOX++@#$$$%&&&&%$$$$$$",
"=XXXXoooOOOOOOOOOOOOX++@#$%%$%&**%$$$$$$",
"=XXXXOOOOOOOOOOOOOOOX++@#$$$$%&**$$$$$$$",
"=XXXXOOOOOOOOOOOOOOOX++@#$$$%&&&&$$$$$$$",
"=;;XXOOOOOOOOOOOOOOOX++@#$$$$%&**%$$$$$$",
"=;;XXOOOOOOOOOOOOOOOX++@#$$$$%&**%$$$$$$",
" ...XoOOOOOOOOOOOOOO+@@@#$$$$%&&&%$$$$$$",
"=;;XXoXXOOOOOOOOOOOOX++@#$%%$%&**%%$$$$$",
"=..XXXooOOOOOOOOOOOOX++@#$$$%%&**%$$$$$$",
" XXXXXooOOOOOOOOOOOOX++@#$$$$%&**%$%$$$$",
" XXXXXooOOOOOOOOOOOOX++@#$$$$%&**%$%$$$$",
":XXXXXOOOOOOOOOOOOOOX++@:#$$$$%%%%$%$$$$",
">,,.XXOOOOOOOOOOOOOOX@@@:#&&&&&**%%%%%$$",
":,,,XXOOOOOOOOOOOOOOX++@:#$$$&&**&&&$$$$",
":,,.XXOOOOOOOOOOOOOOX++@:#$$$%&&&%$$$$$$",
":,,.XXOOOOOOOOOOOOOOX++@:#$$$%&&&%$$$$$$",
":XXXXXOOOOOOOOOOOOOOX@@@:#$$$%&&&%$$$$$$",
":XXXXXOOOOOOOOOOOOOO+++@##$$%%&**%$$$$$$",
" XXXXXOOOOOOOOOOOOOo+++@##$$$%&**%$$$$$$",
" XXXXXOOOOOOOOOOOOOoX++@:#$$$%&**%$$$$$$",
" XXXXXOOOOOOOOOOOOOoX++@:#$$$%&**%$$$$$$",
" XXXXXooOOOOOOOOOOOOX++@:#$$%%&**%$$$$$$",
":..XXXOOOOOOOOOOOOOOX++@:*%%$%%**%$$$$$$",
":..XXXooOOOOOOOOOOOOX++@:#$$$%&**%%$$$$$",
":;;.XXXXOOOOOOOOOOOOX++@:#$$%&&**%%$$$$$",
":;;.XXXXOOOOOOOOOOOOX++@:#$$%&&**%%$$$$$",
":;;XXXXXOOOOOOOOOOOOX@@@:#$$$%&**%$$$$$$",
"-XXXXXooOOOOOOOOOOOOX++@:#$$$%&**%$$$$$$",
" XXXXXooOOOOOOOOOOOOX++@:#$$$%&&&%$$$$$$",
"-;;XXXooOOOOOOOOOOOOX@@@:$$$$%&&&%$$$$$$",
"-;;XXXooOOOOOOOOOOOOX@@@:$$$$%&&&%$$$$$$",
"-...XXooOOOOOOOOOOOOX++@##$$$%&**%$$$$$$",
":XX;XXooOOOOOOOOOOOOX@@@#$$$%%&&&%$$$$$$",
" XX.XXooOOOOOOOOOOOOX++@#$$$%%&**%%$$$$$",
"-..<XXooOOOOOOOOOOOoX++@#$$$$%&**%%$$$$$",
"-..<XXooOOOOOOOOOOOoX++@#$$$$%&**%%$$$$$",
"=;;,,oOOOOOOOOOOOOOoX++@:#$$$&&**%$$$$$$"
};
