/* XPM */
static char *out[] = {
/* columns rows colors chars-per-pixel */
"40 40 24 1 ",
"  c black",
". c #0E0A07",
"X c #130E0A",
"o c #1C1512",
"O c #211814",
"+ c #281C17",
"@ c #281D19",
"# c #2B1E19",
"$ c #2F221C",
"% c #30221D",
"& c #382720",
"* c #3D2A23",
"= c #553402",
"- c #422D25",
"; c #54392F",
": c #6A4103",
"> c #795041",
", c #8A6113",
"< c #AC7208",
"1 c #B0735D",
"2 c #B58019",
"3 c #F6B412",
"4 c #FAD988",
"5 c white",
/* pixels */
"%%%%%%%%%%%%%%%%%%%%%%%%%%%%%%%%%%%%%%%%",
"%%%%%%%%%%%%%%%%%%%%%%%%%%%%%%%%%%%%%%%%",
"%%%===:::::::::::::::::::::::::::::===%%",
"%%%%%%%%%%%%-------%%%--------%%%%%%%%%%",
"%:::====%%##;>>>>>;%%%;>>>>;;;#%%===::::",
":<<:====%%*;>>>>>>>%%%>>>>>>>;;%%===::<<",
"<<<===%%##*;>>>>>>>;;;>>>>>>>;;##%%===<<",
"<<<===%%&&&>>>>>@@@@@@@>>>>>>>>&&%%===<<",
"<::===%%&;;>>>>@:::::::@>>>>>>;;;%%===::",
"<===%%++&;;>>@@:@@@@@@@:@@>>>>;;;++%====",
"<===%%$$$>>>1>>@::@@@@:@>>>>>>>>>$$%====",
":===%%$$;>>>>>>@@@<@<<@@>>>>>>>;;;$%====",
"===%OO$$;>>>>@@@<<@@@@<@@@>>>>>;;;$O%%==",
"===%@@@@>>>>@<<<@@@@@@@<<<@>>>>>>>@@%%==",
"===%@@;;>>>>@33@@@@@@@@@33@;;>>>>;;;%%==",
"=%%o@@;;>>>>@33@@@@@@@@@33@>>>>>>;;;oo%%",
"=%%@@;>>>>>>@33<@@@@@@@<33@>>>>>>>;;;@%%",
"%oo@@;;;>>>>>@@333333333@@>>>>>>>;;;;@oo",
"%@@@@;;;;;;;;;;@@@@@@@@@;;;;;;;;;;;;;@@@",
"%@@@;;;;;;;;;;;;;;;---;;;;;;;;;;;;;;;;@@",
"o@@@---------------%%%----------------@@",
"@@@@---------------%%%----------------@@",
"ooo%oo%%oooo@@@@@@@@@@@@@@@@@oooo%%o%%oo",
"%%%=%%==%%%%oo@@@@@@@@@@@@@oo%%%%==%==%%",
"<%%%oo%%%%<<%%ooooooooooooo%%<<%%%%o%%%%",
"%%%%%%%%%%%%%%%%%%%%%%%%%%%%%%%%%%%%%%%%",
"==========%%33%%=========%%33%%=========",
"<<<<<<<<<<<<%%<<<<<<<<<<<<<%%<<<<<<<<<<<",
"333333333333<<<<<<<<<<<<<<<<<33333333333",
"5554443333<<<<::%%%%%%%%%::<<<<334445555",
"5555554433::%%%%223334422%%%%::333334444",
"33333333<<%%2233,,22222,,3322%%<<3333333",
"::::::::::%%,,,,333334433,,,,%%:::::::::",
"%%%%%%%%%%223322333445533223322%%%%%%%%%",
"  XX X  %%3344%%333555533%%3344%%..     ",
"      %%22%%%%,,%%35544%%,,%%%%22%%     ",
"      %%%%%%,,,,,,%44%%,,,,,,%%%%%%     ",
"            %%,,%% %%  %%,,%% .XXX      ",
"              %%         %%    X        ",
"                                        "
};
