/* XPM */
static char *out[] = {
/* columns rows colors chars-per-pixel */
"40 40 36 1 ",
"  c black",
". c #0E0A07",
"X c #130E0A",
"o c #18140F",
"O c #1C150E",
"+ c #1F160F",
"@ c #1C1512",
"# c #221815",
"$ c #211C15",
"% c #2B1F15",
"& c #281D19",
"* c #2E271E",
"= c #30221D",
"- c #352F23",
"; c #393327",
": c #3F392D",
"> c #553402",
", c #403D30",
"< c #453F33",
"1 c #6A4103",
"2 c #55533F",
"3 c #5B5644",
"4 c #6F6C51",
"5 c #726F5C",
"6 c #79765A",
"7 c #7B7660",
"8 c #AC7208",
"9 c #807E6D",
"0 c #F6B412",
"q c #858267",
"w c #949076",
"e c #A29E83",
"r c #ADA991",
"t c #B7B49C",
"y c #FAD988",
"u c white",
/* pixels */
"-qq44rtttttttttttttre773**   XO%%X      ",
"<ww6eerrtttttttttttre773**   XO%%X      ",
"<ww6eerrtttttttttttre773**   XO%%X      ",
";eeweerrtttttttttttte773**   XOOOX      ",
":eeqeerrtttttttttttte773**   XO%%X      ",
"<wwweerrtttttttttttte773*    OO%%X      ",
"<qqeeerrtttttttttttt7773*    XO%%X      ",
"<qqeeerrtttttttttttt7773*    XO%%X      ",
";eeeeerrtttttttttttte773*    XO%%X      ",
"<eeeeerrtttttttttttte773*    XO%%XX     ",
":eeeeerrtttttttttttte773*    XO%%X      ",
":eeeeerrtttttttttttte773*    XOOOX      ",
":eeeeerrtttttttttttte773*    XOOOX      ",
":eeeeerrtttttttttttte773*   .======     ",
":eeeeeeetttttttteeee7773*%  #======     ",
"<eeeeetttttttttteeee3773*+===800008==   ",
"-wweeeeetttttretrrtte773$#===800008==   ",
"-wweeeeetttttretrrtte773o=>1=00y08=80=  ",
"-qqeeerrttreertttttte77,#=>1=00y08=80=  ",
";wweeerrtttttttttttte77,#=>1=80y0=80y0= ",
":eeeeerrtttttttttttte77,#=>1=80y0=80y0= ",
":eeeeeeetttttttttttt5#====>88=0u0=8yuy= ",
":eeeeeeetttttttttttt5#====>88=0u0=8yuy= ",
":eeeeeeetttttttttt9#==11>=>80=0uy8=8y=  ",
":wweeeeetttttttttt9#==11>=>80=0uy8=8y=  ",
":qqeeeeetttttttt9#==1881>=>80=80u08==   ",
";qqeeeeetttttttt9#==1881>=>80=80u08==   ",
";qqeeeeetttttt9#==188y81>=>808=808=     ",
":wweeerrttttt9==188yy081>=>80y=88=      ",
":eeeeerrtttt9#==188yy081>=>80y=88=      ",
":eeeeerrttt9==1880y8881>>=>80yy===X     ",
":eeeeerrtt9#==1880y8881>>=>80yy===      ",
":eeeeerrt9==18800881>>>>>=>80yu81=      ",
":eeeeett9#==18800881>>>>>=>80yu81=      ",
":eeeee9#==1888881>>>>>>>=0=80yu01=      ",
":wweee9#==1888881>>>>>>>=0=80yu01=      ",
";4445#==1880881>>>>>======>80uu01=      ",
";4445#==1880881>>>>>======>80uu01=      ",
";2#===188881>>>>>===@&@=8=>80uu01=      ",
";5#===188881>>>>>===@&@=8=>80uu01=X     "
};
