/* XPM */
static char *out[] = {
/* columns rows colors chars-per-pixel */
"40 40 36 1 ",
"  c black",
". c #0E0A07",
"X c #130E0A",
"o c #18140F",
"O c #1C150E",
"+ c #1F160F",
"@ c #1C1512",
"# c #221815",
"$ c #211C15",
"% c #2B1F15",
"& c #281D19",
"* c #2E271E",
"= c #30221D",
"- c #352F23",
"; c #393327",
": c #3F392D",
"> c #553402",
", c #403D30",
"< c #453F33",
"1 c #6A4103",
"2 c #55533F",
"3 c #5B5644",
"4 c #6F6C51",
"5 c #726F5C",
"6 c #79765A",
"7 c #7B7660",
"8 c #AC7208",
"9 c #807E6D",
"0 c #F6B412",
"q c #858267",
"w c #949076",
"e c #A29E83",
"r c #ADA991",
"t c #B7B49C",
"y c #FAD988",
"u c white",
/* pixels */
"     X=10uu08>=8=@&@===>>>>>188881===#5;",
"      =10uu08>=8=@&@===>>>>>188881===#2;",
"      =10uu08>======>>>>>1880881==#5444;",
"      =10uu08>======>>>>>1880881==#5444;",
"      =10uy08=0=>>>>>>>1888881==#9eeeww:",
"      =10uy08=0=>>>>>>>1888881==#9eeeee:",
"      =18uy08>=>>>>>18800881==#9tteeeee:",
"      =18uy08>=>>>>>18800881==9trreeeee:",
"      ===yy08>=>>1888y0881==#9ttrreeeee:",
"     X===yy08>=>>1888y0881==9tttrreeeee:",
"      =88=y08>=>180yy881==#9ttttrreeeee:",
"      =88=y08>=>180yy881==9tttttrreeeww:",
"     =808=808>=>18y881==#9tttttteeeeeqq;",
"   ==80u08=08>=>1881==#9tttttttteeeeeqq;",
"   ==80u08=08>=>1881==#9tttttttteeeeeqq:",
"  =y8=8yu0=08>=>11==#9tttttttttteeeeeww:",
"  =y8=8yu0=08>=>11==#9tttttttttteeeeeee:",
" =yuy8=0u0=88>====#5tttttttttttteeeeeee:",
" =yuy8=0u0=88>====#5tttttttttttteeeeeee:",
" =0y08=0y08=1>=#,77ettttttttttttrreeeee:",
" =0y08=0y08=1>=#,77ettttttttttttrreeeww;",
"  =08=80y00=1>=#,77ettttttreerttrreeeqq-",
"  =08=80y00=1>=o377ettrrterttttteeeeeww-",
"   ==800008===#$377ettrrterttttteeeeeww-",
"   ==800008===+*3773eeeetttttttttteeeee<",
"     ======#  %*3777eeeetttttttteeeeeee:",
"     ======.   *377ettttttttttttrreeeee:",
"      XOOOX    *377ettttttttttttrreeeee:",
"      XOOOX    *377ettttttttttttrreeeee:",
"      X%%OX    *377ettttttttttttrreeeee:",
"     XX%%OX    *377ettttttttttttrreeeee<",
"      X%%OX    *377ettttttttttttrreeeee;",
"      X%%OX    *3777ttttttttttttrreeeqq<",
"      X%%OX    *3777ttttttttttttrreeeqq<",
"      X%%OO    *377ettttttttttttrreewww<",
"      X%%OX   **377ettttttttttttrreeqee:",
"      XOOOX   **377ettttttttttttrreewee;",
"      X%%OX   **377ertttttttttttrree6ww<",
"      X%%OX   **377ertttttttttttrree6ww<",
"      X%%OX   **377ertttttttttttttr44qq-"
};
