/* XPM */
static char *out[] = {
/* columns rows colors chars-per-pixel */
"40 40 21 1 ",
"  c black",
". c #0E0A07",
"X c #130E0A",
"o c #1C1512",
"O c #211814",
"+ c #221815",
"@ c #281C17",
"# c #281D19",
"$ c #2B1E19",
"% c #2F221C",
"& c #30221D",
"* c #382720",
"= c #3D2A23",
"- c #553402",
"; c #6A4103",
": c #8A6113",
"> c #AC7208",
", c #B58019",
"< c #F6B412",
"1 c #FAD988",
"2 c white",
/* pixels */
"&&&&&&&&&&&&&&&&&&&&&&&&&&&&&&&&&&&&&&&&",
"&&&&&&&&&&&&&&&&&&&&&&&&&&&&&&&&&&&&&&&&",
"+&&---;;;;;;;;;;;;;;;;;;;;;;;;;;;;;---&&",
"&&&&&&&&&&&&&&&&&&&&&&&&&&&&&&&&&&&&&&&&",
"&;;;----&&$$=================$$&&---;;;;",
";>>;----&&=====================&&---;;>>",
">>>---&&$$=====================$$&&--->>",
">>>---&&*************************&&--->>",
">;;---&&*************************&&---;;",
">---&&@@*************************@@&----",
">---&&%%%%%%%%%%%%%%%%%%%%%%%%%%%%%&----",
";---&&%%%%%%%%%%%%%%%%%%%%%%%%%%%%%&----",
"---&OO%%%%%%%%%%%%%%%%%%%%%%%%%%%%%O&&--",
"---&################################&&--",
"---&################################&&--",
"-&&o################################oo&&",
"-&&###################################&&",
"&oo###################################oo",
"&#######################################",
"&#######################################",
"o#######################################",
"########################################",
"ooo&oo&&oooo#################oooo&&o&&oo",
"&&&-&&--&&&&oo#############oo&&&&--&--&&",
">&&&oo&&&&>>&&ooooooooooooo&&>>&&&&o&&&&",
"&&&&&&&&&&&&&&&&&&&&&&&&&&&&&&&&&&&&&&&&",
"----------&&<<&&---------&&<<&&---------",
">>>>>>>>>>>>&&>>>>>>>>>>>>>&&>>>>>>>>>>>",
"<<<<<<<<<<<<>>>>>>>>>>>>>>>>><<<<<<<<<<<",
"222111<<<<>>>>;;&&&&&&&&&;;>>>><<1112222",
"22222211<<;;&&&&,,<<<11,,&&&&;;<<<<<1111",
"<<<<<<<<>>&&,,<<::,,,,,::<<,,&&>><<<<<<<",
";;;;;;;;;;&&::::<<<<<11<<::::&&;;;;;;;;;",
"&&&&&&&&&&,,<<,,<<<1122<<,,<<,,&&&&&&&&&",
"  XX X  &&<<11&&<<<2222<<&&<<11&&..     ",
"      &&,,&&&&::&&<2211&&::&&&&,,&&     ",
"      &&&&&&::::::&11&&::::::&&&&&&     ",
"            &&::&& &&  &&::&& .XXX      ",
"              &&         &&    X        ",
"                                        "
};
