/* XPM */
static char *out[] = {
/* columns rows colors chars-per-pixel */
"40 40 35 1 ",
"  c black",
". c #0E0A07",
"X c #130E0A",
"o c #18140F",
"O c #1C150E",
"+ c #1C1512",
"@ c #221815",
"# c #211C15",
"$ c #2B1F15",
"% c #281D19",
"& c #2E271E",
"* c #30221D",
"= c #352F23",
"- c #393327",
"; c #3F392D",
": c #553402",
"> c #403D30",
", c #453F33",
"< c #6A4103",
"1 c #4E4C39",
"2 c #5B5644",
"3 c #686553",
"4 c #6F6C51",
"5 c #726F5C",
"6 c #7B7660",
"7 c #AC7208",
"8 c #807E6D",
"9 c #F6B412",
"0 c #858267",
"q c #949076",
"w c #A29E83",
"e c #ADA991",
"r c #B7B49C",
"t c #FAD988",
"y c white",
/* pixels */
"=1@**<77777<:::::***+%+*7*:79yy9<*X     ",
"=003@**<779977<:::::******:79yt9<*      ",
"=003@**<779977<:::::******:79yt9<*      ",
"=00qw5@**<777777<:::::::*9*79yt9<*      ",
"=00ww5@**<777777<:::::::*9*79yt9<*      ",
"=00qwwr8@**<7799777<:::::*:79t97<*      ",
"=004wwrr8**<7799777<:::::*:79t97<*X     ",
"=004wwrrr8@**<779tt777<::*:79t7***X     ",
";wwqwwrrrr8**<779tt777<::*:79t7***      ",
";ww0wwrrrrr8@**<779tt97<:*:799*77*      ",
";ww0wwrrrrrr8**<779tt97<:*:799*77*      ",
",00wwwrrrrrrr8@**<77997<:*:797*797*     ",
",00wwwrrrrrrrr8**<77997<:*:797*797*     ",
";qqwwwrrrrrrrrr8@**<777<:*:79*79y97**.X ",
",wwwwwrrrrrrrrrrr8@**<7<:*:79*9yt7*7t*  ",
"-wwwwwrrrrrrrrrrr8@**<7<:*:79*9yt7*7t*  ",
";wwwwweerrrrrrrrrrr8@*****:77*9y9*7tyt* ",
";wwwwweerrrrrrrrrrr8@*****:77*9y9*7tyt* ",
";wwwwweerrrrrrrrrrrrw66>@*:<*79t9*79t9* ",
";wwwwwwwrrrrrrrreere666>@*:<*79t9*79t9* ",
",wwwwweerrrrrrrrwwww666>@*:<*99t97*79*  ",
"-qqwwwwwrrrrrreweewew662o*:<*99t97*79*  ",
"-qqwwwwwrrrrrreweewew662#@***799997**   ",
"=00wwwwwrrrrrwrrrrrrw662& ***799997**   ",
"-wwqwwrrrrrrrrrrrrrrw662&   @******     ",
"-wwwwwrrrrrrrrrrrrrrw662&   .******     ",
";wwwwwwwrrrrrrrrrrrrw662&   XOOOOX      ",
";wwwwwwwrrrrrrrrrrrrw662&   XOOOOX      ",
";qqwwwwwrrrrrrrrrrrrw662& XXXXO$$XX     ",
"-qqwwwwwrrrrrrrrrrrrw662&   XXO$$X      ",
";00wwwwwrrrrrrrrrrrrw662&   XOO$$X      ",
";00qwwwwrrrrrrrrrrrrw662& XX XO$$X      ",
";00qwwwwrrrrrrrrrrrrw662& XX XO$$X      ",
";qqwwweerrrrrrrrrrrrw662&   XOX$$X      ",
";qqwwweerrrrrrrrrrrrw662&XOOOOO$$XXX    ",
"-wwwwweerrrrrrrrrrrrw662&XOO$$$$$OOX    ",
"-wwwwwrrrrrrrrrrrrrew662&   XXO$$X      ",
"-wwwwwrrrrrrrrrrrrrew662&   XXO$$X      ",
"-wwwwwrrrrrrrrrrrrrew662& XX XOOOXO     ",
";wwwwwrrrrrrrrrrrrrr6662&   XOOOOO      "
};
