/* XPM */
static char *out[] = {
/* columns rows colors chars-per-pixel */
"40 40 35 1 ",
"  c black",
". c #0E0A07",
"X c #130E0A",
"o c #18140F",
"O c #1C150E",
"+ c #1C1512",
"@ c #221815",
"# c #211C15",
"$ c #2B1F15",
"% c #281D19",
"& c #2E271E",
"* c #30221D",
"= c #352F23",
"- c #393327",
"; c #3F392D",
": c #553402",
"> c #403D30",
", c #453F33",
"< c #6A4103",
"1 c #4E4C39",
"2 c #5B5644",
"3 c #686553",
"4 c #6F6C51",
"5 c #726F5C",
"6 c #7B7660",
"7 c #AC7208",
"8 c #807E6D",
"9 c #F6B412",
"0 c #858267",
"q c #949076",
"w c #A29E83",
"e c #ADA991",
"r c #B7B49C",
"t c #FAD988",
"y c white",
/* pixels */
";----;;;;;-;;;--=--,;;;;-,;,,;;;========",
"wwwwwqq000qqwwww0qqwwwwwwwq00www00000001",
"wwwwwqq000qqwwww0qqwwwwwwwq00www0000000@",
"wwwwwwwqqwwwwwwqwwwwwwwwwwwww00q44qwq33*",
"wwwwwwwwwwwwwwwwwwwwwwwwwwwwwwwwwwwww@@*",
"wwwwwwwwwwwwwwwwwwwwwwwwwwwwwwwwwww55**<",
"rrrreeewwwwwwwrrwwweweeerrrrrrrrrrr@@**7",
"rrrreeewwwwwwwrrwwweweeerrrrrrrrrr8**<<7",
"rrrrrrrrrrrrrrrrrrrrrrrrrrrrrrrrr8@**777",
"rrrrrrrrrrrrrrrrrrrrrrrrrrrrrrrr8**<<777",
"rrrrrrrrrrrrrrrrrrrrrrrrrrrrrrr8@**77997",
"rrrrrrrrrrrrrrrrrrrrrrrrrrrrrr8**<<7799<",
"rrrrrrrrrrrrrrrrrrrrrrrrrrrrr8@**777777:",
"rrrrrrrrrrrrrrrrwrrrrrrrrrrr8**<<777777:",
"rrrrrrrrrrrrrrrrreerrrrrrrr8@**779977<<:",
"rrrrrrrrrrrrrrrrrwwrrrrrrr8**<<779977:::",
"rrrrrrrrrrrrrrrrreewerrrrr@**779977<<:::",
"rrrrrrrrrrrrrrrrreewerrr88*<<77tt77::::*",
"rrrrrrrrrrrrrrrrrwwwrrrr@@*7799tt77::::*",
"reeerrrrrrrrrrrrreewer88**<77tt77<<::::*",
"6wwwwwwwwwwwwwwwwww66w@@**799tt77::::**+",
"6666666666666666666666**<<7999977::::**%",
"6666666666666666666666**7777777<<::::**+",
"2222222222222222222>>>**<<<<<<<::::::***",
"&&&&&&&&&&&&&&&&&#o@@@**:::::::::::****7",
"    XX           @*****************99***",
" X  OO XX  X    **:::::::::::::::::**:::",
" X  OO XX  X    **<<<<777777777777777777",
"X XX$OX  XXXXX.@******779999999999999999",
"OXXX$OOXXOXXOO**779977*****7799ttttyyyyy",
"OOOO$OXOOOOOOO**99999999997****7799tttty",
"OO$$$$$$$$$$OO**99ttttyyyy97777**7799999",
"OO$$$$$$$$$$OO**99999999tty9977**<<<<<<<",
"OXXXOXXXXXXXXX**9977****77977***********",
" O  OX     X  **77**7777**7**   XX     X",
"    XX          **7799tt77*             ",
"                **99ttyytt*             ",
"                  **99tt**.             ",
"                    ****  X             ",
"                                        "
};
