/* XPM */
static char *out[] = {
/* columns rows colors chars-per-pixel */
"40 40 24 1 ",
"  c black",
". c #0E0A07",
"X c #130E0A",
"o c #1C1512",
"O c #211814",
"+ c #281C17",
"@ c #281D19",
"# c #2B1E19",
"$ c #2F221C",
"% c #30221D",
"& c #382720",
"* c #3D2A23",
"= c #553402",
"- c #422D25",
"; c #54392F",
": c #6A4103",
"> c #795041",
", c #8A6113",
"< c #AC7208",
"1 c #B0735D",
"2 c #B58019",
"3 c #F6B412",
"4 c #FAD988",
"5 c white",
/* pixels */
"                                        ",
"        X    %%         %%              ",
"      XXX. %%,,%%  %% %%,,%%            ",
"     %%%%%%,,,,,,%%44%,,,,,,%%%%%%      ",
"     %%22%%%%,,%%44553%%,,%%%%22%%      ",
"     ..%%4433%%335555333%%4433%%  X XX  ",
"%%%%%%%%%223322335544333223322%%%%%%%%%%",
":::::::::%%,,,,334433333,,,,%%::::::::::",
"3333333<<%%2233,,22222,,3322%%<<33333333",
"444433333::%%%%224433322%%%%::3344555555",
"555544433<<<<::%%%%%%%%%::<<<<3333444555",
"33333333333<<<<<<<<<<<<<<<<<333333333333",
"<<<<<<<<<<<%%<<<<<<<<<<<<<%%<<<<<<<<<<<<",
"=========%%33%%=========%%33%%==========",
"%%%%%%%%%%%%%%%%%%%%%%%%%%%%%%%%%%%%%%%%",
"%%%%o%%%%<<%%ooooooooooooo%%<<%%%%oo%%%<",
"%%==%==%%%%oo@@@@@@@@@@@@@oo%%%%==%%=%%%",
"oo%%o%%oooo@@@@@@@@@@@@@@@@@oooo%%oo%ooo",
"@@----------------%%%---------------@@@@",
"@@----------------%%%---------------@@@o",
"@@;;;;;;;;;;;;;;;;---;;;;;;;;;;;;;;;@@@%",
"@@@;;;;;;;;;;;;;@@@@@@@@@;;;;;;;;;;@@@@%",
"oo@;;;;>>>>>>>@@333333333@@>>>>>;;;@@oo%",
"%%@;;;>>>>>>>@33<@@@@@@@<33@>>>>>>;@@%%=",
"%%oo;;;>>>>>>@33@@@@@@@@@33@>>>>;;@@o%%=",
"==%%;;;>>>>;;@33@@@@@@@@@33@>>>>;;@@%===",
"==%%@@>>>>>>>@<<<@@@@@@@<<<@>>>>@@@@%===",
"==%%O$;;;>>>>>@@@<@@@@<<@@@>>>>;$$OO%===",
"====%$;;;>>>>>>>@@<<@<@@@>>>>>>;$$%%===:",
"====%$$>>>>>>>>>@:@@@@::@>>1>>>$$$%%===<",
"====%++;;;>>>>@@:@@@@@@@:@@>>;;&++%%===<",
"::===%%;;;>>>>>>@:::::::@>>>>;;&%%===::<",
"<<===%%&&>>>>>>>>@@@@@@@>>>>>&&&%%===<<<",
"<<===%%##;;>>>>>>>;;;>>>>>>>;*##%%===<<<",
"<<::===%%;;>>>>>>>%%%>>>>>>>;*%%====:<<:",
"::::===%%#;;;>>>>;%%%;>>>>>;##%%====:::%",
"%%%%%%%%%%--------%%%-------%%%%%%%%%%%%",
"%%===:::::::::::::::::::::::::::::===%%%",
"%%%%%%%%%%%%%%%%%%%%%%%%%%%%%%%%%%%%%%%%",
"%%%%%%%%%%%%%%%%%%%%%%%%%%%%%%%%%%%%%%%%"
};
