/* XPM */
static char *out[] = {
/* columns rows colors chars-per-pixel */
"40 40 36 1 ",
"  c black",
". c #0E0A07",
"X c #130E0A",
"o c #18140F",
"O c #1C150E",
"+ c #1F160F",
"@ c #1C1512",
"# c #221815",
"$ c #211C15",
"% c #2B1F15",
"& c #281D19",
"* c #2E271E",
"= c #30221D",
"- c #352F23",
"; c #393327",
": c #3F392D",
"> c #553402",
", c #403D30",
"< c #453F33",
"1 c #6A4103",
"2 c #55533F",
"3 c #5B5644",
"4 c #6F6C51",
"5 c #726F5C",
"6 c #79765A",
"7 c #7B7660",
"8 c #AC7208",
"9 c #807E6D",
"0 c #F6B412",
"q c #858267",
"w c #949076",
"e c #A29E83",
"r c #ADA991",
"t c #B7B49C",
"y c #FAD988",
"u c white",
/* pixels */
";;;;::::::::;;::::::;---<:::::<;<<<:;<<-",
"5244weeeeeewqqqweeeewqwweeeeeeeeqqweewwq",
"##44weeeeeewqqqweeeewqwweeeeeeeeqqweewwq",
"==44eeeeeeeeeeeeeeeeeeeeeeeeeeeeeewqw664",
"==55eeeeeeeeeeeeeeeeeeeeeeeeeeeeeeeeeee4",
"==##eeeeeeeeeeeeeeeeeeeeeeeeeeeeeeeeeeer",
"11==99trrrrreeeeeeerrreeterrrrrrrrrrrrrt",
"88==##trrrrreeeeeeerrreeterrrrrrrrrrrrrt",
"8811==9ttttttttttttttttttttttttttttttttt",
"8888==#9tttttttttttttttttttttttttttttttt",
"888811==9ttttttttttttrtttttttttttttttttt",
"110088==#9tttttttttttetttttttttttttttttt",
">>888811==9ttttttttttetttttttttttttttttt",
">>888888==#9tttttttttrrrtttttttttttttttt",
">>11888811==9ttttttttteetttttttttttttttt",
">>>>880088==#ttttttttttttttttttttttttttt",
">>>>11008811=99tttttttrreetttttttttttttt",
"==>>>>880088=##tttttttrreetttttttttttttt",
"==>>>>88yy881==99ttttttteetttttttttttttt",
"==>>>>1188yy8==##ttttttteetttttttttttrrr",
"@@==>>>>88yy811==55eeeee37eeeeee77eeeeee",
"&&==>>>>8800y88==##777777777777777777777",
"@@==>>>>118888811==777777777777777777777",
"====>>>>>>1111111==,,,333333333333333333",
"88====>>>>>>>>>>>==###o$****************",
"====00=================#+%         *****",
">>>>==>>>>>>>>>>>>>>>>>==               ",
"88888888888888888881111==               ",
"0000000000000000088======#.             ",
"uuuuyyyyyyyy8======880088==XXXXXXXOXXXXX",
"uuuuuuuuyy===880000000000==OOOOOOOOOOOOO",
"00000088==88800uuuuyyyy00==OO%%%%%%%O%%%",
"11111111==880uuyy00000000==OO%%%%%%%O%%%",
"============80088====8800==XXXXXXXXXXXXX",
"X        X  =88==8888==88==   X         ",
"             ==88yy0088==               ",
"             ==yyuuyy00==               ",
"               ==yy00==                 ",
"                 ====                   ",
"                                        "
};
