/* XPM */
static char *out[] = {
/* columns rows colors chars-per-pixel */
"40 40 35 1 ",
"  c black",
". c #0E0A07",
"X c #130E0A",
"o c #18140F",
"O c #1C150E",
"+ c #1C1512",
"@ c #221815",
"# c #211C15",
"$ c #2B1F15",
"% c #281D19",
"& c #2E271E",
"* c #30221D",
"= c #352F23",
"- c #393327",
"; c #3F392D",
": c #553402",
"> c #403D30",
", c #453F33",
"< c #6A4103",
"1 c #4E4C39",
"2 c #5B5644",
"3 c #686553",
"4 c #6F6C51",
"5 c #726F5C",
"6 c #7B7660",
"7 c #AC7208",
"8 c #807E6D",
"9 c #F6B412",
"0 c #858267",
"q c #949076",
"w c #A29E83",
"e c #ADA991",
"r c #B7B49C",
"t c #FAD988",
"y c white",
/* pixels */
"      OOOOOX   &2666rrrrrrrrrrrrrrwwwww;",
"     OXOOOX XX &266werrrrrrrrrrrrrwwwww-",
"      X$$OXX   &266werrrrrrrrrrrrrwwwww-",
"      X$$OXX   &266werrrrrrrrrrrrrwwwww-",
"    XOO$$$$$OOX&266wrrrrrrrrrrrreewwwww-",
"    XXX$$OOOOOX&266wrrrrrrrrrrrreewwwqq;",
"      X$$XOX   &266wrrrrrrrrrrrreewwwqq;",
"      X$$OX XX &266wrrrrrrrrrrrrwwwwq00;",
"      X$$OX XX &266wrrrrrrrrrrrrwwwwq00;",
"      X$$OOX   &266wrrrrrrrrrrrrwwwww00;",
"      X$$OXX   &266wrrrrrrrrrrrrwwwwwqq-",
"     XX$$OXXXX &266wrrrrrrrrrrrrwwwwwqq;",
"      XOOOOX   &266wrrrrrrrrrrrrwwwwwww;",
"      XOOOOX   &266wrrrrrrrrrrrrwwwwwww;",
"     ******.   &266wrrrrrrrrrrrrrrwwwww-",
"     ******@   &266wrrrrrrrrrrrrrrwwqww-",
"   **799997*** &266wrrrrrrwrrrrrwwwww00=",
"   **799997***@#266weweewerrrrrrwwwwwqq-",
"  *97*79t99*<:*o266weweewerrrrrrwwwwwqq-",
"  *97*79t99*<:*@>666wwwwrrrrrrrreewwwww,",
" *9t97*9t97*<:*@>666ereerrrrrrrrwwwwwww;",
" *9t97*9t97*<:*@>66wrrrrrrrrrrrreewwwww;",
" *tyt7*9y9*77:*****@8rrrrrrrrrrreewwwww;",
" *tyt7*9y9*77:*****@8rrrrrrrrrrreewwwww;",
"  *t7*7ty9*97:*:<7<**@8rrrrrrrrrrrwwwww-",
"  *t7*7ty9*97:*:<7<**@8rrrrrrrrrrrwwwww,",
" X.**79y97*97:*:<777<**@8rrrrrrrrrwwwqq;",
"     *797*797:*:<79977<**8rrrrrrrrwww00,",
"     *797*797:*:<79977<**@8rrrrrrrwww00,",
"      *77*997:*:<79tt977<**8rrrrrrww0ww;",
"      *77*997:*:<79tt977<**@8rrrrrww0ww;",
"      ***7t97:*::<777tt977<**8rrrrwwqww;",
"     X***7t97:*::<777tt977<**@8rrrww400=",
"     X*<79t97:*:::::<7779977<**8rrww400=",
"      *<79t97:*:::::<7779977<**@8rwwq00=",
"      *<9ty97*9*:::::::<777777<**@5ww00=",
"      *<9ty97*9*:::::::<777777<**@5wq00=",
"      *<9ty97:******:::::<779977<**@300=",
"      *<9ty97:******:::::<779977<**@300=",
"     X*<9yy97:*7*+%+***:::::<77777<**@1="
};
