/* XPM */
static char *out[] = {
/* columns rows colors chars-per-pixel */
"40 40 35 1 ",
"  c black",
". c #0E0A07",
"X c #130E0A",
"o c #18140F",
"O c #1C150E",
"+ c #1C1512",
"@ c #221815",
"# c #211C15",
"$ c #2B1F15",
"% c #281D19",
"& c #2E271E",
"* c #30221D",
"= c #352F23",
"- c #393327",
"; c #3F392D",
": c #553402",
"> c #403D30",
", c #453F33",
"< c #6A4103",
"1 c #4E4C39",
"2 c #5B5644",
"3 c #686553",
"4 c #6F6C51",
"5 c #726F5C",
"6 c #7B7660",
"7 c #AC7208",
"8 c #807E6D",
"9 c #F6B412",
"0 c #858267",
"q c #949076",
"w c #A29E83",
"e c #ADA991",
"r c #B7B49C",
"t c #FAD988",
"y c white",
/* pixels */
"                                        ",
"             X  ****                    ",
"             .**tt99**                  ",
"             *ttyytt99**                ",
"             *77tt9977**          XX    ",
"X     XX   **7**7777**77**  X     XO  O ",
"***********77977****7799**XXXXXXXXXOXXXO",
"<<<<<<<**7799ytt99999999**OO$$$$$$$$$$OO",
"9999977**77779yyyytttt99**OO$$$$$$$$$$OO",
"ytttt9977****79999999999**OOOOOOOXO$OOOO",
"yyyyytttt9977*****779977**OOXXOXXOO$XXXO",
"999999999999999977******@.XXXXX  XO$XX X",
"777777777777777777<<<<**    X  XX OO  X ",
":::**:::::::::::::::::**    X  XX OO  X ",
"***99*****************@           XX    ",
"7****:::::::::::**@@@o#&&&&&&&&&&&&&&&&&",
"***::::::<<<<<<<**>>>2222222222222222222",
"+**::::<<7777777**6666666666666666666666",
"%**::::7799997<<**6666666666666666666666",
"+**::::77tt997**@@w66wwwwwwwwwwwwwwwwww6",
"*::::<<77tt77<**88reweerrrrrrrrrrrrreeer",
"*::::77tt9977*@@rrrrwwwrrrrrrrrrrrrrrrrr",
"*::::77tt77<<*88rrreweerrrrrrrrrrrrrrrrr",
":::<<779977**@rrrrreweerrrrrrrrrrrrrrrrr",
":::779977<<**8rrrrrrrwwrrrrrrrrrrrrrrrrr",
":<<779977**@8rrrrrrrreerrrrrrrrrrrrrrrrr",
":777777<<**8rrrrrrrrrrrwrrrrrrrrrrrrrrrr",
":777777**@8rrrrrrrrrrrrrrrrrrrrrrrrrrrrr",
"<9977<<**8rrrrrrrrrrrrrrrrrrrrrrrrrrrrrr",
"79977**@8rrrrrrrrrrrrrrrrrrrrrrrrrrrrrrr",
"777<<**8rrrrrrrrrrrrrrrrrrrrrrrrrrrrrrrr",
"777**@8rrrrrrrrrrrrrrrrrrrrrrrrrrrrrrrrr",
"7<<**8rrrrrrrrrreeewewwwrrwwwwwwweeerrrr",
"7**@@rrrrrrrrrrreeewewwwrrwwwwwwweeerrrr",
"<**55wwwwwwwwwwwwwwwwwwwwwwwwwwwwwwwwwww",
"*@@wwwwwwwwwwwwwwwwwwwwwwwwwwwwwwwwwwwww",
"*33qwq44q00wwwwwwwwwwwwwqwwwwwwqqwwwwwww",
"@0000000www00qwwwwwwwqq0wwwwqq000qqwwwww",
"10000000www00qwwwwwwwqq0wwwwqq000qqwwwww",
"========;;;,,;,-;;;;,--=--;;;-;;;;;----;"
};
