/* XPM */
static char *out[] = {
/* columns rows colors chars-per-pixel */
"40 40 24 1 ",
"  c black",
". c #0E0A07",
"X c #130E0A",
"o c #1C1512",
"O c #211814",
"+ c #281C17",
"@ c #281D19",
"# c #2B1E19",
"$ c #2F221C",
"% c #30221D",
"& c #382720",
"* c #3D2A23",
"= c #553402",
"- c #422D25",
"; c #54392F",
": c #6A4103",
"> c #795041",
", c #8A6113",
"< c #AC7208",
"1 c #B0735D",
"2 c #B58019",
"3 c #F6B412",
"4 c #FAD988",
"5 c white",
/* pixels */
"%%%%:<<<:======%%o@@@@o%%%=<3543:%      ",
"%%%%:<<<:======%%o@@@@o%%%=<3543:%      ",
"%%=%::======%%%o@@@;--%=%%=<3543:%      ",
"%%=%::======%%%o;;;;--%=%%=<3543:%      ",
"%%=%=====%%%O@;;;;;;--o%o%=<3433:%      ",
"%%:%==%%%+$$$@;;;;;;--%=%%=<3433:%.%%   ",
"%%:%==%%%+$;;>;;>;;;--%=%%=<3433:%.%%X  ",
"%%:%%%#&;;>;;>>>>>;;--o%%%=<333<:%%2%X  ",
"%%:%%%#&;;>;;>>>>>;;--o%%%=<333<:%%2%XX ",
"%%:%#;;>;;>>>>>>>>;;--o%<%%<3<:%%24%%.  ",
"%%:-;;;>>>>>>>>>>>;;--o%<%%<3<:%%24%%   ",
"%%:-;>>>>>>>>>;>>>;;--@o%%3%<<%2,33%,%  ",
"%%:-;>>>>>>>>>;>>>;;--@o%%3%<<%2,33%,%  ",
"%%:->>>>>>>>>@@@@>;;--@@o%%<<:%3,2%,,,% ",
"%%:->>>>>@>>@<333@;;--@@o%%<<:%3,2%,,,% ",
"%%:->>>>>@>>@<333@;;--@@o%=<<%2,333%,%  ",
"%%:->>>>@:@@@<@@<3@;--@@o%=<<%2,333%,%  ",
"%%:-;>>@:@:@<@@@@3@;--@@o%=<<%424554%   ",
"%%:%%%;@:@@<@@@@@3@-%%@@o%=<<%424554%   ",
"%%:%%%;@:@@<@@@@@3@-%%@@o%=<<%3234554%  ",
"%%:%%%;@:@@@@@@@@3@-%%@@o%=<<%3234554%  ",
"%%:-;>>@:@@<@@@@@3@;--@@o%=<<%323333%   ",
"%%:->>>@:@:@<@@@@3@;--@@o%=<<%2,333%,%  ",
"%%:->>>@:@:@<@@@@3@;--@@o%=<<%2,333%,%  ",
"%%:->>>>@:@@@<@@<3@;--@@o%%<<:%3,2%,,,% ",
"%%:->>>>>@>>@<333@;;--@@o%%<<:%3,2%,,,% ",
"%%:->>>>>@>>@<333@;;--@o%%3%<<%2,34%,%  ",
"%%:-;>>>>>1>>@@@@>;;--@o%%3%<<%2,34%,%  ",
"%%:%#;;>>>>>>>>>>>;;--o%<%%<3<:%%23%%   ",
"%%:%#**&;;>>>>>>>>;;--o%<%%<3<:%%23%%   ",
"%%:%%%#&;;>>>>>>>>;;--o%%%=<333<:%%2%   ",
"%%:%%%#&&&$;;>>>>>;;--o%%%=<333<:%%2%   ",
"%%:%==%%%+$$$@;;>;;;--%=%%=<3343:% %%   ",
"%%:%==%%%+$$$@;;>;;;--%=%%=<3343:% %%   ",
"%%=%=====%%%O@@@;;;;--o%o%=<3453:%X     ",
"%%=%=====%%%O@@@@@@;--o%o%=<3453:%      ",
"%%=%::======%%%o@@@@@@%=%%=<3453:%X     ",
"%%%%:<<<:======%%o@@@@o%%%=<3553:%X     ",
"%%%%:<<<:======%%o@@@@o%%%=<3553:%      ",
"%%%%%:<<<<<:=====%%%o@o%<%=<3553:%      "
};
