/* XPM */
static char *out[] = {
/* columns rows colors chars-per-pixel */
"40 40 24 1 ",
"  c black",
". c #0E0A07",
"X c #130E0A",
"o c #1C1512",
"O c #211814",
"+ c #281C17",
"@ c #281D19",
"# c #2B1E19",
"$ c #2F221C",
"% c #30221D",
"& c #382720",
"* c #3D2A23",
"= c #553402",
"- c #422D25",
"; c #54392F",
": c #6A4103",
"> c #795041",
", c #8A6113",
"< c #AC7208",
"1 c #B0735D",
"2 c #B58019",
"3 c #F6B412",
"4 c #FAD988",
"5 c white",
/* pixels */
"      %:3553<=%<%o@o%%%=====:<<<<<:%%%%%",
"      %:3553<=%%%o@@@@o%%======:<<<:%%%%",
"     X%:3553<=%%%o@@@@o%%======:<<<:%%%%",
"     X%:3543<=%%=%@@@@@@o%%%======::%=%%",
"      %:3543<=%o%o--;@@@@@@O%%%=====%=%%",
"     X%:3543<=%o%o--;;;;@@@O%%%=====%=%%",
"   %% %:3433<=%%=%--;;;>;;@$$$+%%%==%:%%",
"   %% %:3433<=%%=%--;;;>;;@$$$+%%%==%:%%",
"   %2%%:<333<=%%%o--;;>>>>>;;$&&&#%%%:%%",
"   %2%%:<333<=%%%o--;;>>>>>>>>;;&#%%%:%%",
"   %%32%%:<3<%%<%o--;;>>>>>>>>;;&**#%:%%",
"   %%32%%:<3<%%<%o--;;>>>>>>>>>>>;;#%:%%",
"  %,%43,2%<<%3%%o@--;;>@@@@>>1>>>>>;-:%%",
"  %,%43,2%<<%3%%o@--;;@333<@>>@>>>>>-:%%",
" %,,,%2,3%:<<%%o@@--;;@333<@>>@>>>>>-:%%",
" %,,,%2,3%:<<%%o@@--;@3<@@<@@@:@>>>>-:%%",
"  %,%333,2%<<=%o@@--;@3@@@@<@:@:@>>>-:%%",
"  %,%333,2%<<=%o@@--;@3@@@@<@:@:@>>>-:%%",
"   %333323%<<=%o@@--;@3@@@@@<@@:@>>;-:%%",
"  %4554323%<<=%o@@%%-@3@@@@@@@@:@;%%%:%%",
"  %4554323%<<=%o@@%%-@3@@@@@<@@:@;%%%:%%",
"   %455424%<<=%o@@%%-@3@@@@@<@@:@;%%%:%%",
"   %455424%<<=%o@@--;@3@@@@<@:@:@>>;-:%%",
"  %,%333,2%<<=%o@@--;@3<@@<@@@:@>>>>-:%%",
"  %,%333,2%<<=%o@@--;;@333<@>>@>>>>>-:%%",
" %,,,%2,3%:<<%%o@@--;;@333<@>>@>>>>>-:%%",
" %,,,%2,3%:<<%%o@@--;;>@@@@>>>>>>>>>-:%%",
"  %,%33,2%<<%3%%o@--;;>>>;>>>>>>>>>;-:%%",
"  %,%33,2%<<%3%%o@--;;>>>;>>>>>>>>>;-:%%",
"   %%42%%:<3<%%<%o--;;>>>>>>>>>>>;;;-:%%",
"  .%%42%%:<3<%%<%o--;;>>>>>>>>;;>;;#%:%%",
" XX%2%%:<333<=%%%o--;;>>>>>;;>;;&#%%%:%%",
"  X%2%%:<333<=%%%o--;;>>>>>;;>;;&#%%%:%%",
"  X%%.%:3343<=%%=%--;;;>;;>;;$+%%%==%:%%",
"   %%.%:3343<=%%=%--;;;;;;@$$$+%%%==%:%%",
"      %:3343<=%o%o--;;;;;;@O%%%=====%=%%",
"      %:3453<=%%=%--;;;;o%%%======::%=%%",
"      %:3453<=%%=%--;@@@o%%%======::%=%%",
"      %:3453<=%%%o@@@@o%%======:<<<:%%%%",
"      %:3453<=%%%o@@@@o%%======:<<<:%%%%"
};
