/* XPM */
static char *out[] = {
/* columns rows colors chars-per-pixel */
"40 40 36 1 ",
"  c black",
". c #0E0A07",
"X c #130E0A",
"o c #18140F",
"O c #1C150E",
"+ c #1F160F",
"@ c #1C1512",
"# c #221815",
"$ c #211C15",
"% c #2B1F15",
"& c #281D19",
"* c #2E271E",
"= c #30221D",
"- c #352F23",
"; c #393327",
": c #3F392D",
"> c #553402",
", c #403D30",
"< c #453F33",
"1 c #6A4103",
"2 c #55533F",
"3 c #5B5644",
"4 c #6F6C51",
"5 c #726F5C",
"6 c #79765A",
"7 c #7B7660",
"8 c #AC7208",
"9 c #807E6D",
"0 c #F6B412",
"q c #858267",
"w c #949076",
"e c #A29E83",
"r c #ADA991",
"t c #B7B49C",
"y c #FAD988",
"u c white",
/* pixels */
"                                        ",
"                   ====                 ",
"                 ==00yy==               ",
"               ==00yyuuyy==             ",
"               ==8800yy88==             ",
"         X   ==88==8888==88=  X        X",
"XXXXXXXXXXXXX==0088====88008============",
"%%%O%%%%%%%OO==00000000yyuu088==11111111",
"%%%O%%%%%%%OO==00yyyyuuuu00888==88000000",
"OOOOOOOOOOOOO==000000000088===yyuuuuuuuu",
"XXXXXOXXXXXXX==880088======8yyyyyyyyuuuu",
"             .#======8800000000000000000",
"               ==11118888888888888888888",
"               ==>>>>>>>>>>>>>>>>>==>>>>",
"*****         %+#=================00====",
"****************$o###==>>>>>>>>>>>====88",
"333333333333333333,,,==1111111>>>>>>====",
"777777777777777777777==118888811>>>>==@@",
"777777777777777777777##==88y0088>>>>==&&",
"eeeeee77eeeeee73eeeee55==118yy88>>>>==@@",
"rrrttttttttttteettttttt##==8yy8811>>>>==",
"tttttttttttttteettttttt99==188yy88>>>>==",
"tttttttttttttteerrttttttt##=880088>>>>==",
"tttttttttttttteerrttttttt99=11880011>>>>",
"ttttttttttttttttttttttttttt#==880088>>>>",
"tttttttttttttttteettttttttt9==11888811>>",
"ttttttttttttttttrrrttttttttt9#==888888>>",
"ttttttttttttttttttetttttttttt9==118888>>",
"ttttttttttttttttttettttttttttt9#==880011",
"ttttttttttttttttttrtttttttttttt9==118888",
"tttttttttttttttttttttttttttttttt9#==8888",
"ttttttttttttttttttttttttttttttttt9==1188",
"trrrrrrrrrrrrreteerrreeeeeeerrrrrt##==88",
"trrrrrrrrrrrrreteerrreeeeeeerrrrrt99==11",
"reeeeeeeeeeeeeeeeeeeeeeeeeeeeeeeeeee##==",
"4eeeeeeeeeeeeeeeeeeeeeeeeeeeeeeeeeee55==",
"466wqweeeeeeeeeeeeeeeeeeeeeeeeeeeeee44==",
"qwweewqqeeeeeeeewwqweeeewqqqweeeeeew44##",
"qwweewqqeeeeeeeewwqweeeewqqqweeeeeew4425",
"-<<;:<<<;<:::::<---;::::::;;::::::::;;;;"
};
