/* XPM */
static char *a5a0198f297a46e4d23041d4a2225c9fkb6j4hSYpFwpDOX2[] = {
/* columns rows colors chars-per-pixel */
"64 64 10 1 ",
"  c None",
". c #080000",
"X c #B97371",
"o c #67979B",
"O c #67979C",
"+ c #68989C",
"@ c #CF9C9B",
"# c #9CC8CC",
"$ c #E3C6C5",
"% c white",
/* pixels */
"                                                                ",
"                                                                ",
"                                                                ",
"                                                                ",
"                                                                ",
"                                                                ",
"                                                                ",
"                                                                ",
"             ........                                           ",
"             ........                  ........                 ",
"             ........                  ........                 ",
"          ..............            ...............             ",
"          ..............            ...............             ",
"        .....@@@@@@@@......      ......XX@@@@@@.......          ",
"        .....@@@@@@@@......    .....XX@@@@$$$$$$$@@.....        ",
"        .....@@@@@@@@......    .....XX@@@@$$$$$$$@@.....        ",
"     ........$$$$$$$$@@@.........X@@@@@..@@@@@$$$$$$@@...       ",
"     ........$$$$$$$$@@@.........X@@@@@..@@@@@$$$$$$@@...       ",
"     ........$$$$$$$$@@@.......++######..@@@@@$$$$$$$$@@...     ",
"  .................$$$$$XX...OO########..@@@@@$$$$$$$$$$@...    ",
"  .................$$$$$XX...OO########..@@@@@$$$$$$$$$$@...    ",
"........$$$$$$$$@@@@@@@@@@...##########..@@@@@$$$$$$$$$$$...    ",
"........$$$$$$$$@@@@@@@@....###########..@@@@@$$$$$$$$$$$@@...  ",
"........$$$$$$$$@@@@@@@@....o@@$$$@@@@@..@@@@@$$$$$$$$$$$@@...  ",
".....$$$$$$$$$$$$$$@@@@@....@$$$$$$$@@@..@@@@@$$$$$$$$$$$$$...  ",
".....$$$$$$$$$$$$$$@@@@@....@$$$$$$$@@@..@@@@@$$$$$$$$$$$$$...  ",
".....$$$$$$$$$$$$$$@@@@...XX$$$$$$$$$$$$$$$$$$$$$$$$$$$$$$$@....",
".....$$$$$@@@$$$$$$@@@@...@@$$$$$$.....$$$$$$$$$$$$$$$$$$$$@....",
".....$$$$$@@@$$$$$$@@@@...@@$$$$$$.....$$$$$$$$$$$$$$$$$$$$@....",
"  ...........$$$$$$@@@@...@@$$$$$$..%%...$$$$$$$$$$$$$$$$$$@....",
"  ...........$$$$$$@@@@...@@$$$$$$..%%...$$$$$$$$$$$$$$$$$$@....",
"  ...........$$$$$$@@@@...@@$$$$$$..%%...$$$$$$$$$$$$$$$$$$@....",
"  ...........$$$$$$@@@@...@@$$$$$$..%%...$$$$$$$$$$$$$$$$$$@....",
"  ...........$$$$$$@@@@...@@$$$$$$..%%...$$$$$$$$$$$$$$$$$$@....",
"  ...........$$$$$$@@@@...@@$$$$$$..%%...$$$$$$$$$$$$$$$$$$@....",
".....@@@@@@@@$$$$$$@@@@...@@$$$$$$..%%...$$$$$$$$$$$$$$$$$$@....",
".....@@@@@@@@$$$$$$@@@@...@@$$$$$$.....$$$$$$$$$$$$$$$$$$$$@....",
".....$$$$$$$$$$$$$$@@@@...XX$$$$$$$$$$$$$$$$$$$$$$$$$$$$$$$@....",
".....$$$$$$$$$$$$$$@@@@...XX$$$$$$$$$$$$$$$$$$$$$$$$$$$$$$$@....",
".....$$$$$$$$$$$$$$@@@@@....@$$$$$$$@@@..@@@@@$$$$$$$$$$$$$...  ",
"........$$$$$$$$@@@@@@@@....@$$$$$$$@@@..@@@@@$$$$$$$$$$$$$...  ",
"........$$$$$$$$@@@@@@@@....O@@$$$@@@@@..@@@@@$$$$$$$$$$$@@...  ",
"........$$$$$$$$@@@@@@@@@@...##########..@@@@@$$$$$$$$$$$...    ",
"  .................$$$$$XX...##########..@@@@@$$$$$$$$$$$...    ",
"  .................$$$$$XX...oo########..@@@@@$$$$$$$$$$@...    ",
"     ........$$$$$$$$@@@.......OO######..@@@@@$$$$$$$$@@...     ",
"     ........$$$$$$$$@@@.......OO######..@@@@@$$$$$$$$@@...     ",
"     ........$$$$$$$$@@@.........X@@@@@..@@@@@$$$$$$@@...       ",
"        .....@@@@@@@@......  ....X@@@@@..@@@@@$$$$$$@@...       ",
"        .....@@@@@@@@......    .....XX@@@@$$$$$$$@@.....        ",
"        .....@@@@@@@@......      ......XX@@@@@@.......          ",
"          ..............         ......XX@@@@@@.......          ",
"          ..............            ...............             ",
"          ..............            ...............             ",
"             ........                  ........                 ",
"             ........                                           ",
"                                                                ",
"                                                                ",
"                                                                ",
"                                                                ",
"                                                                ",
"                                                                ",
"                                                                ",
"                                                                "
};
