/* XPM */
static char *out[] = {
/* columns rows colors chars-per-pixel */
"64 64 10 1 ",
"  c None",
". c #080000",
"X c #B97371",
"o c #67979B",
"O c #67979C",
"+ c #68989C",
"@ c #CF9C9B",
"# c #9CC8CD",
"$ c #E3C6C5",
"% c white",
/* pixels */
"                          .............                         ",
"                          .............                         ",
"                      ....................                      ",
"                      ....................                      ",
"                   .......@@@@@@@@@@@@@......                   ",
"                  ........@@@@@@@@@@@@@........                 ",
"                 .....@@$$$$$$$$$$$$$$$$@@.....                 ",
"                ...@@$$$$$$$$$$$$$$$$$$$$$$$@....               ",
"              .....@@$$$$$$$$$$$$$$$$$$$$$$$@.....              ",
"              ...@@$$$$$$$$$$$$$$$$$$$$$$$$$$@@...              ",
"             ....@@$$$$$$$$$$$$$$$$$$$$$$$$$$@@.....            ",
"             ...@$$$$$$$$$$$$$$$$$$$$$$$$$$$$$$@@...            ",
"             ...$$$$$$$$$$$$$$$$$$$$$$$$$$$$$$$$$...            ",
"           .....$$$$$$$$$$$$$$$$$$$$$$$$$$$$$$$$$.....          ",
"           ...@@$$$$$$$$$$$$$$$$$$$$$$$$$$$$$$$$$@....          ",
"           ...$$$$$$$$$$$$$$$$$$$$$$$$$$$$$$$$$$$$....          ",
"           ...$$$$$$$$$$$$$$$$$$$$$$$$$$$$$$$$$$$$....          ",
"         ....@$$$$$$$$$$$$$$$$$$$$$$$$$$$$$$$$$$$$@@...         ",
"         ....@$$@.......@@$$$$$$$$$$$$$@.......@@$@@...         ",
"         ....@$$@.......@@$$$$$$$$$$$$$@.......@@$@@...         ",
"         ....@$$.%%%%.....$$$$$$$$$$$$$.%%%%.....$@@...         ",
"         ....@$$.%%%%.....$$$$$$$$$$$$$.%%%%.....$@@...         ",
"         ....@@@.%%%%.....$$$$$$$$$$$$$.%%%%.....@@@...         ",
"         ....X@@..........$$$......$$$$..........@XX...         ",
"         ....X@@..........$$$......$$$$..........@XX...         ",
"           ...@@..........$..........$$..........@....          ",
"           ...XX@.......@@$..%%%%%%..$$@.......@@X....          ",
"           ...XX@.......@@$..%%%%%%..$$@.......@@X....          ",
"             ...@#####@@$$$..........$$$@@#####@@...            ",
"             ...X#####$$$$$$$$$$$$$$$$$$$$#####XX...            ",
"             ...X#####$$$$$$$$$$$$$$$$$$$$#####XX...            ",
"              ...++###$$$$$$$$$$$$$$$$$$$$###OO...              ",
"              .....OO#@@$$$$$$$$$$$$$$$$@@##o.....              ",
"                ...OO#@@$$$$$$$$$$$$$$$$@@##o....               ",
"                ......oo@@$$$$$$$$$$$$$@OO.......               ",
"                ......oo@@$$$$$$$$$$$$$@OO......                ",
"                ..........X@@@@@@@@@@XX.........                ",
"             ......................................             ",
"             ......XX@....................@XX......             ",
"             ......XX@....................@XX......             ",
"           .....@@@$$@@@@@.............@@@@$$@@@......          ",
"           .....@@@$$@@@@@@@@@@@@@@@@@@@@@@$$@@@......          ",
"           .....@@@$$@@@@@@@@@@@@@@@@@@@@@@$$@@@......          ",
"        .....@@@$$$$$@@@@@@@@@@@@@@@@@@@@@@$$$$$@@@.....        ",
"        .....@@@$$$$$@@@@@@@@@@@@@@@@@@@@@@$$$$$@@@.....        ",
"        .....@@@$$$..@@@$$$$$$$$$$$$$$$$@@@..$$$@@@.....        ",
"        .....@@@$$$..@@@$$$$$$$$$$$$$$$$@@@..$$$@@@.....        ",
"        .....@@@$$$..@@@$$$$$$$$$$$$$$$$@@@..$$$@@@.....        ",
"        .....@@@$$$..$$$$$$$$$$$$$$$$$$$$$$..$$$@@@.....        ",
"        .....@@@$$$..$$$$$$$$$$$$$$$$$$$$$$..$$$@@@.....        ",
"        .....@@@$$$..$$$$$$$$$$$$$$$$$$$$$$..$$$@@@.....        ",
"           ..........$$$$$$@@......@@$$$$$$...........          ",
"           ..........$$$$$$@@......@@$$$$$$...........          ",
"           ..........$$$$$$@@......@@$$$$$$...........          ",
"             ........$$$$$$$$......@@$$$$$$........             ",
"             ........$$$$$$$$......@@$$$$$$........             ",
"                ........$$$$$......@@$$$........                ",
"                ........$$$$$......@@$$$........                ",
"                ........$$$$$......@@$$$........                ",
"                   ..........................                   ",
"                   ..........................                   ",
"                   ..........................                   ",
"                     ........      ........                     ",
"                     ........      ........                     "
};
