/* XPM */
static char *out[] = {
/* columns rows colors chars-per-pixel */
"64 64 10 1 ",
"  c None",
". c #080000",
"X c #B97371",
"o c #67979B",
"O c #67979C",
"+ c #68989C",
"@ c #CF9C9B",
"# c #9CC8CC",
"$ c #E3C6C5",
"% c white",
/* pixels */
"                        ................                        ",
"                      ....................                      ",
"                   ..........................                   ",
"                  ........@@@@@@@@@@@@........                  ",
"                  ....@@$$$$$$$$$$$$$$$@@......                 ",
"                ......@@$$$$$$$$$$$$$$$@@........               ",
"              .....@@$$$$$$$$$$$$$$$$$$$$$$@......              ",
"              ....@$$$$$$$$$$$$$$$$$$$$$$$$$@@....              ",
"             .....@$$$$$$$$$$$$$$$$$$$$$$$$$@@......            ",
"             ...@@$$$$$$$$$$$$$$$$$$$$$$$$$$$$@.....            ",
"             ...@@$$$$$$$$$$$$$$$$$$$$$$$$$$$$@.....            ",
"             ...$$$$$$$$$$$$$$$$$$$$$$$$$$$$$$$.....            ",
"           ....@$$$$$$$$$$$$$$$$$$$$$$$$$$$$$$$@@....           ",
"           ....@$$$$$$$$$$$$$$$$$$$$$$$$$$$$$$$@@.....          ",
"           ....$$$$$$$$$$$$$$$$$$$$$$$$$$$$$$$$$$.....          ",
"           ....$$$$$$$$$$$$$$$$$$$$$$$$$$$$$$$$$$.....          ",
"         ....@@$$$$$$$$$$$$$$$$$$$$$$$$$$$$$$$$$$@.....         ",
"         ....@@$@@......@@$$$$$$$$$$$$@.......@$$@.....         ",
"         ....@@$@@......@@$$$$$$$$$$$$@.......@$$@.....         ",
"         ....@@$..%%%.....$$$$$$$$$$$$.%%%%....$$@.....         ",
"         ....@@$..%%%.....$$$$$$$$$$$$.%%%%....$$@.....         ",
"         ....@@@..%%%.....$$$$$$$$$$$$.%%%%....@@@.....         ",
"          ...XX@..........$$$......$$$.........@@X....          ",
"         ....XX@..........$$$......$$$.........@@X.....         ",
"         . ....@..........$.........$$.........@@......         ",
"           ....X@@......@@$..%%%%%%.$$@.......@XX....           ",
"           ....X@@......@@$..%%%%%%.$$@.......@XX.....          ",
"             ...@@####@@$$$.........$$$@@#####@..... .          ",
"             ...@@####@@$$$.........$$$@@#####@.....            ",
"             ...XX####$$$$$$$$$$$$$$$$$$$#####X.....            ",
"             .....+###$$$$$$$$$$$$$$$$$$$###OO......            ",
"              ....+###$$$$$$$$$$$$$$$$$$$###OO.....             ",
"              .....OO#@@$$$$$$$$$$$$$$$@@##o.......             ",
"                ...OO#@@$$$$$$$$$$$$$$$@@##o.......             ",
"                ......oo@@$$$$$$$$$$$$@OO............           ",
"                ..........X@@@@@@@@@XX...............           ",
"                ..........X@@@@@@@@@XX...............           ",
"             ................................@@@$$$.....        ",
"             ......XX@....................@@@@@@$$$.....        ",
"             ......@@@....................X@@$$$$$$$$......     ",
"             ......@@@@@XX.............@XXX@@$$$$$$$$......     ",
"             ......@@@@@XXXXXXXX@@@@@@@@XXX@@$$$$$$$$......     ",
"           .....XXX@@XXX@@@@@@@@XXX@@@@@XXX@@@@@$$$$$......     ",
"           .....XXX@@XXX@@@@@@@@XXX@@@@@XXX@@@@@$$$$$......     ",
"           .....XXX@@XXX@@@@@@@@XXX@@@@@XXX@@@@@$$$$$......     ",
"           .....XXX..@@@$$$$$$$$XXX@@@@@XXX@@@@@@@@@@......     ",
"           .....XXX..@@@$$$$$$$$XXX@@@@@XXX@@@@@@@@@@......     ",
"           ..........@@@$$$$$$$$XXX@@@@@@@@.............        ",
"           ..........@@@$$$$$$$$XXX@@@@@@@@.............        ",
"           ..........@@@$$$$$$$$XXX@@@@@@@@.............        ",
"             ........@@@$$$$$$$$XXX..@@@.............           ",
"             ........@@@$$$$$$$$XXX..@@@.............           ",
"             ........@@@$$$$$$$$XXX..@@@.............           ",
"                ........@@@@@@@@...XX@@@.....                   ",
"                ........@@@@@@@@...XX@@@.....                   ",
"                   .............XXXXX........                   ",
"                   .............XXXXX........                   ",
"                   .............XXXXX........                   ",
"                     ......................                     ",
"                     ......................                     ",
"                     ......................                     ",
"                             ...........                        ",
"                             ...........                        ",
"                             ...........                        "
};
