/* XPM */
static char *out[] = {
/* columns rows colors chars-per-pixel */
"64 64 8 1 ",
"  c None",
". c #080000",
"X c #B97371",
"o c #67979C",
"O c #CF9C9B",
"+ c #9CC8CD",
"@ c #E3C6C5",
"# c white",
/* pixels */
"                          ..............                        ",
"                          ..............                        ",
"                       ....................                     ",
"                    ......OOOOOOOOOOOOOO......                  ",
"                    ......OOOOOOOOOOOOOO......                  ",
"                  .....OO@@@@@@@@@@@@@@@@@O.....                ",
"                  .....OO@@@@@@@@@@@@@@@@@O.....                ",
"                 ...OO@@@@@@@@@@@@@@@@@@@@@@@O....              ",
"               ...OO@@@@@@@@@@@@@@@@@@@@@@@@@@OO...             ",
"               ...OO@@@@@@@@@@@@@@@@@@@@@@@@@@OO...             ",
"              ...O@@@@@@@@@@@@@@@@@@@@@@@@@@@@@@OO...           ",
"              ...@@@@@@@@@@@@@@@@@@@@@@@@@@@@@@@@@...           ",
"              ...@@@@@@@@@@@@@@@@@@@@@@@@@@@@@@@@@...           ",
"            ...OO@@@@@@@@@@@@@@@@@@@@@@@@@@@@@@@@@O...          ",
"            ...@@@@@@@@@@@@@@@@@@@@@@@@@@@@@@@@@@@@...          ",
"            ...@@@@@@@@@@@@@@@@@@@@@@@@@@@@@@@@@@@@...          ",
"           ...O@@@@@@@@OO.......OO@@@@@@@@@@@@@@@@@OO...        ",
"           ...O@@@@@@@@OO.......OO@@@@@@@@@@@@@@@@@OO...        ",
"           ...O@@@@@@@@.....####..@@@@@@@@@@@@@@@@@OO...        ",
"           ...O@@@@@@@@.....####..@@@@@@@@@@@@@@@@@OO...        ",
"           ...O@@@@@@@@.....####..@@@@@@@@@@@@@@@@@OO...        ",
"           ......O@@@@@...........@@@@@@@@@@@@@@@@@OO...        ",
"           .......OO@@@...........@@@@@@@@@@@@@@@@OXX...        ",
"           .......OO@@@...........@@@@@@@@@@@@@@@@OXX...        ",
"           ...####..@@@OO.......OO@@@@@@@@@@@@@@@@O...          ",
"           ...####..@@@OO.......OO@@@@@@@@@@@@@@@@O...          ",
"           .........@@@@@+++++++@@@@@@@@@@@@@@@@OOX...          ",
"            ...OOOOO@@@@@+++++++@@@@@@@@@@@@@@@@OO...           ",
"            ...OOOOO@@@@@+++++++@@@@@@@@@@@@@@@@OO...           ",
"            ...XXO@@@@@@@+++++++@@@@@@@@@@@@@@OOXX...           ",
"              ...XOO@@@@@+++++++@@@@@@@@@@@@@OXX...             ",
"              ...XOO@@@@@+++++++@@@@@@@@@@@@@OXX...             ",
"               ...XXOO@@@+++++++@@@@@@@@@@OOOX....              ",
"                 .....XOOo++++++@@@@@@@@OOX.......              ",
"                 .....XOOo++++++@@@@@@@@OOX............         ",
"                  ........ooooooOOOOOOXX...............         ",
"                ..........ooooooOOOOOOXX......XXOO........      ",
"                .....X.....................OOXXXOO........      ",
"                .....XXXOO..............OOOOOXXXOO........      ",
"                .....OOOOO..............@@@@@OOOOOOOO.....      ",
"                .....OOOOOOOOOOOOOOOOOOO@@@@@OOOOOOOO.....      ",
"                .....OOOOOOOOOOOOOOOOOOO@@@@@@@@OOOOO.....      ",
"                .....OOOOOOOOOOOOOOOOOOO@@@@@@@@OOOOO.....      ",
"                .....OOOOOOOOOOOOOOOOOOO@@@@@@@@OOOOO.....      ",
"              .......@@@@@@@@@@@@@@@@@@@OOO..@@@@@........      ",
"              .......@@@@@@@@@@@@@@@@@@@OOO..@@@@@........      ",
"           .....XXXOO@@@@@@@@@@@@@@@@@@@@@@............         ",
"           .....XXXOO@@@@@@@@@@@@@@@@@@@@@@............         ",
"           .....XXXOO@@@@@@@@@@@@@@@@@@@@@@............         ",
"           ...XXOOOOOOOOOOOOOOOO@@@@@@@@@@@..........           ",
"           ...XXOOOOOOOOOOOOOOOO@@@@@@@@@@@..........           ",
"           .....XXXOOOOOXX......OOO@@@@@OOO.....                ",
"           .....XXXOOOOOXX......OOO@@@@@OOO.....                ",
"           .....XXXOOOOOXX......OOO@@@@@OOO.....                ",
"              .....XXXXX........OOO@@@@@OOO.....                ",
"              .....XXXXX........OOO@@@@@OOO.....                ",
"                ..........   ......OOOOOOOO.....                ",
"                ..........   ......OOOOOOOO.....                ",
"                ..........   ......OOOOOOOO.....                ",
"                   .....     ...................                ",
"                   .....     ...................                ",
"                                .............                   ",
"                                .............                   ",
"                                .............                   "
};
