/* XPM */
static char *out[] = {
/* columns rows colors chars-per-pixel */
"64 64 8 1 ",
"  c None",
". c #080000",
"X c #B97371",
"o c #67979C",
"O c #CF9C9B",
"+ c #9CC8CD",
"@ c #E3C6C5",
"# c white",
/* pixels */
"                                                                ",
"                         ..............                         ",
"                         ..............                         ",
"                      ....................                      ",
"                   ......OOOOOOOOOOOOOO......                   ",
"                   ......OOOOOOOOOOOOOO......                   ",
"                 .....OO@@@@@@@@@@@@@@@@@O.....                 ",
"                 .....OO@@@@@@@@@@@@@@@@@O.....                 ",
"                ...OO@@@@@@@@@@@@@@@@@@@@@@@O....               ",
"              ...OO@@@@@@@@@@@@@@@@@@@@@@@@@@OO...              ",
"              ...OO@@@@@@@@@@@@@@@@@@@@@@@@@@OO...              ",
"             ...O@@@@@@@@@@@@@@@@@@@@@@@@@@@@@@OO...            ",
"             ...@@@@@@@@@@@@@@@@@@@@@@@@@@@@@@@@@...            ",
"             ...@@@@@@@@@@@@@@@@@@@@@@@@@@@@@@@@@...            ",
"           ...OO@@@@@@@@@@@@@@@@@@@@@@@@@@@@@@@@@O...           ",
"           ...@@@@@@@@@@@@@@@@@@@@@@@@@@@@@@@@@@@@...           ",
"           ...@@@@@@@@@@@@@@@@@@@@@@@@@@@@@@@@@@@@...           ",
"          ...O@@@@@@@@OO......OOO@@@@@@@@@@@@@@@@@OO...         ",
"          ...O@@@@@@@@OO......OOO@@@@@@@@@@@@@@@@@OO...         ",
"          ...O@@@@@@@@.....###...@@@@@@@@@@@@@@@@@OO...         ",
"          ...O@@@@@@@@.....###...@@@@@@@@@@@@@@@@@OO...         ",
"          ...O@@@@@@@@.....###...@@@@@@@@@@@@@@@@@OO...         ",
"          ......O@@@@@...........@@@@@@@@@@@@@@@@@OO...         ",
"          .......OO@@@...........@@@@@@@@@@@@@@@@OXX...         ",
"          .......OO@@@...........@@@@@@@@@@@@@@@@OXX...         ",
"          ...####..@@@OO......OOO@@@@@@@@@@@@@@@@O...           ",
"          ...####..@@@OO......OOO@@@@@@@@@@@@@@@@O...           ",
"          .........@@@@@++++++@@@@@@@@@@@@@@@@@OOX...           ",
"           ...OOOOO@@@@@++++++@@@@@@@@@@@@@@@@@OO...            ",
"           ...OOOOO@@@@@++++++@@@@@@@@@@@@@@@@@OO...            ",
"           ...XXO@@@@@@@++++++@@@@@@@@@@@@@@@OOXX...            ",
"             ...XOO@@@@@++++++@@@@@@@@@@@@@@OXX...              ",
"             ...XOO@@@@@++++++@@@@@@@@@@@@@@OXX...              ",
"              ...XXOO@@@++++++@@@@@@@@@@@OOOX....               ",
"                .....XOOo+++++@@@@@@@@@OOX............          ",
"                .....XOOo+++++@@@@@@@@@OOX............          ",
"                 ........oooooOOOOOOOXX...............          ",
"               ..........oooooOOOOOOOXX......XXOO........       ",
"               .....X.....................OOXXXOO........       ",
"               .....OOOOO..............@@@@@OOOOOOOO.....       ",
"               .....OOOOO..............@@@@@OOOOOOOO.....       ",
"               .....OOOOOOOOOOOOOOOOOOO@@@@@OOOOOOOO.....       ",
"               .....OOOOOOOOOOOOOOOOOOOOO@@@@@@OOOOO.....       ",
"               .....OOOOOOOOOOOOOOOOOOOOO@@@@@@OOOOO.....       ",
"               .....XXX@@@@@@@@@@@OOOOOOO...@@@@@........       ",
"               .....XXX@@@@@@@@@@@OOOOOOO...@@@@@........       ",
"               .....XXX@@@@@@@@@@@OOOOOOO...@@@@@........       ",
"            .....@@@@@@@@@@@@@@@@@@@OOOXX.............          ",
"            .....@@@@@@@@@@@@@@@@@@@OOOXX.............          ",
"            ...OO@@@@@@@@OOOOOOOOOOOXXX.............            ",
"            ...OO@@@@@@@@OOOOOOOOOOOXXX.............            ",
"            .....OOOOOOOOXXX...........XX......                 ",
"            .....OOOOOOOOXXX...........XX......                 ",
"            .....OOOOOOOOXXX...........XX......                 ",
"               .....OOOXX.....XXXXXXXXXXX...                    ",
"               .....OOOXX.....XXXXXXXXXXX...                    ",
"                 .............XXXXXXXXXXX......                 ",
"                 .............XXXXXXXXXXX......                 ",
"                 .............XXXXXXXXXXX......                 ",
"                    .....   ...................                 ",
"                    .....   ...................                 ",
"                              ..............                    ",
"                              ..............                    ",
"                              ..............                    "
};
