/* XPM */
static char *out[] = {
/* columns rows colors chars-per-pixel */
"64 64 8 1 ",
"  c None",
". c #080000",
"X c #B97371",
"o c #67979C",
"O c #CF9C9B",
"+ c #9CC8CD",
"@ c #E3C6C5",
"# c white",
/* pixels */
"                                                                ",
"                          ..............                        ",
"                          ..............                        ",
"                       ....................                     ",
"                   .......OOOOOOOOOOOOOO......                  ",
"                   .......OOOOOOOOOOOOOO......                  ",
"                  .....O@@@@@@@@@@@@@@@@@OO.....                ",
"                  .....O@@@@@@@@@@@@@@@@@OO.....                ",
"                ...OO@@@@@@@@@@@@@@@@@@@@@@@@O...               ",
"               ...O@@@@@@@@@@@@@@@@@@@@@@@@@@@OO...             ",
"               ...O@@@@@@@@@@@@@@@@@@@@@@@@@@@OO...             ",
"             ...OO@@@@@@@@@@@@@@@@@@@@@@@@@@@@@@O....           ",
"             ...@@@@@@@@@@@@@@@@@@@@@@@@@@@@@@@@@....           ",
"             ...@@@@@@@@@@@@@@@@@@@@@@@@@@@@@@@@@....           ",
"           ....O@@@@@@@@@@@@@@@@@@@@@@@@@@@@@@@@@OO...          ",
"           ....O@@@@@@@@@@@@@@@@@@@@@@@@@@@@@@@@@OO...          ",
"           ....@@@@@@@@@@@@@@@@@@@@@@@@@@@@@@@@@@@@...          ",
"          ...OO@@@@@@@@O.......OO@@@@@@@@@@@@@@@@@@OO...        ",
"          ...OO@@@@@@@@O.......OO@@@@@@@@@@@@@@@@@@OO...        ",
"          ...OO@@@@@@@@....####..@@@@@@@@@@@@@@@@@@OO...        ",
"          ...OO@@@@@@@@....####..@@@@@@@@@@@@@@@@@@OO...        ",
"          ...OO@@@@@@@@....####..@@@@@@@@@@@@@@@@@@OO...        ",
"          ......OO@@@@@..........@@@@@@@@@@@@@@@@@@OO...        ",
"          ......OO@@@@@..........@@@@@@@@@@@@@@@@@@OO...        ",
"          ........O@@@@..........@@@@@@@@@@@@@@@@OOXX...        ",
"          ...#####.@@@@O.......OO@@@@@@@@@@@@@@@@OO...          ",
"          ...#####.@@@@O.......OO@@@@@@@@@@@@@@@@OO...          ",
"          .........@@@@@+++++++@@@@@@@@@@@@@@@@@OXX...          ",
"          .........@@@@@+++++++@@@@@@@@@@@@@@@@@OXX...          ",
"           ....OOOO@@@@@+++++++@@@@@@@@@@@@@@@@@O....           ",
"           ....XOO@@@@@@+++++++@@@@@@@@@@@@@@@OOX....           ",
"           ....XOO@@@@@@+++++++@@@@@@@@@@@@@@@OOX....           ",
"             ...XXO@@@@@+++++++@@@@@@@@@@@@@@OXX...             ",
"               ...XOO@@@+++++++@@@@@@@@@@OOOOX...               ",
"               ...XOO@@@+++++++@@@@@@@@@@OOOOX...               ",
"                .....XXOoo+++++@@@@@@@@@OXX...........          ",
"                .....XXOoo+++++@@@@@@@@@OXX...........          ",
"                  ........oooooOOOOOOOXX......XOO........       ",
"                  .........................XXXXOO........       ",
"                  .........................XXXXOO........       ",
"                .....XXOOO..............OOOOOOOOOOOO.....       ",
"                .....XXOOOOOOOOOOOOOOOOOOOOOOOOOOOOO.....       ",
"                .....OOOOOOOOOOOOOOOOOO@@@@@@@@OOOOO.....       ",
"                .....OOOOOOOOOOOOOOOOOO@@@@@@@@OOOOO.....       ",
"                .....OOOOOOOOOOOOOOOOOO@@@@@@@@OOOOO.....       ",
"                .....OOOOOOOOOOOOOOOOOOOOO@@@@@@@........       ",
"                .....OOOOOOOOOOOOOOOOOOOOO@@@@@@@........       ",
"                .....OO@@@@@@@@@@@@@@OOOOO............          ",
"                .....OO@@@@@@@@@@@@@@OOOOO............          ",
"             ........@@@@@@@@@@@@@@@@OOXXX..........            ",
"             ........@@@@@@@@@@@@@@@@OOXXX..........            ",
"             ........@@@@@@@@@@@@@@@@OOXXX..........            ",
"             .....@@@@@@@@@@OOOOOOOOOXX.....                    ",
"             .....@@@@@@@@@@OOOOOOOOOXX.....                    ",
"             .....@@@@@@@@OOXXX........XXX.....                 ",
"             .....@@@@@@@@OOXXX........XXX.....                 ",
"             .....@@@@@@@@OOXXX........XXX.....                 ",
"             .....XXXOOOOOXX......XXXXXXXXXX.....               ",
"             .....XXXOOOOOXX......XXXXXXXXXX.....               ",
"             ....................................               ",
"             ....................................               ",
"                ...............   .............                 ",
"                ...............   .............                 ",
"                ...............   .............                 "
};
