/* XPM */
static char *out[] = {
/* columns rows colors chars-per-pixel */
"64 64 8 1 ",
"  c None",
". c #080000",
"X c #B97371",
"o c #67979C",
"O c #CF9C9B",
"+ c #9CC8CD",
"@ c #E3C6C5",
"# c white",
/* pixels */
"                           .............                        ",
"                           .............                        ",
"                        ...................                     ",
"                    .......OOOOOOOOOOOOO......                  ",
"                    .......OOOOOOOOOOOOO......                  ",
"                   .....O@@@@@@@@@@@@@@@@OO.....                ",
"                   .....O@@@@@@@@@@@@@@@@OO.....                ",
"                 ...OO@@@@@@@@@@@@@@@@@@@@@@@O...               ",
"                ...O@@@@@@@@@@@@@@@@@@@@@@@@@@OO...             ",
"                ...O@@@@@@@@@@@@@@@@@@@@@@@@@@OO...             ",
"              ...OO@@@@@@@@@@@@@@@@@@@@@@@@@@@@@O....           ",
"              ...@@@@@@@@@@@@@@@@@@@@@@@@@@@@@@@@....           ",
"              ...@@@@@@@@@@@@@@@@@@@@@@@@@@@@@@@@....           ",
"            ....O@@@@@@@@@@@@@@@@@@@@@@@@@@@@@@@@OO...          ",
"            ....O@@@@@@@@@@@@@@@@@@@@@@@@@@@@@@@@OO...          ",
"            ....@@@@@@@@@@@@@@@@@@@@@@@@@@@@@@@@@@@...          ",
"           ...OO@@@@@@@@O.......O@@@@@@@@@@@@@@@@@@OO...        ",
"           ...OO@@@@@@@@O.......O@@@@@@@@@@@@@@@@@@OO...        ",
"           ...OO@@@@@@@@....####.@@@@@@@@@@@@@@@@@@OO...        ",
"           ...OO@@@@@@@@....####.@@@@@@@@@@@@@@@@@@OO...        ",
"           ...OO@@@@@@@@....####.@@@@@@@@@@@@@@@@@@OO...        ",
"           ......OO@@@@@.........@@@@@@@@@@@@@@@@@@OO...        ",
"           ......OO@@@@@.........@@@@@@@@@@@@@@@@@@OO...        ",
"           ........O@@@@.........@@@@@@@@@@@@@@@@OOXX...        ",
"           ...#####.@@@@O.......O@@@@@@@@@@@@@@@@OO...          ",
"           ...#####.@@@@O.......O@@@@@@@@@@@@@@@@OO...          ",
"           .........@@@@@+++++++@@@@@@@@@@@@@@@@OXX...          ",
"           .........@@@@@+++++++@@@@@@@@@@@@@@@@OXX...          ",
"            ....OOOO@@@@@+++++++@@@@@@@@@@@@@@@@O....           ",
"            ....XOO@@@@@@+++++++@@@@@@@@@@@@@@OOX....           ",
"            ....XOO@@@@@@+++++++@@@@@@@@@@@@@@OOX....           ",
"              ...XXO@@@@@+++++++@@@@@@@@@@@@@OXX...             ",
"                ...XOO@@@+++++++@@@@@@@@@OOOOX.......           ",
"                ...XOO@@@+++++++@@@@@@@@@OOOOX.......           ",
"                 .....XXOoo+++++@@@@@@@@OXX..........           ",
"                 .....XXOoo+++++@@@@@@@@OXX.....O.......        ",
"                   ........oooooOOOOOOXX......XOO.......        ",
"                      .....................XXXXOO.......        ",
"                     ......................OOOOOOOO.....        ",
"                     ....XX.............OOOOOOOOOOO.....        ",
"                     ....OOOOOOOOOOOOOOO@@@@@@@OOOO.....        ",
"                     ....OOOOOOOOOOOOOOO@@@@@@@OOOO.....        ",
"                     ....OOOOOOOOOOOOOOO@@@@@@@OOOO.....        ",
"                     ....OOOOOOOOOOOOOOOOO@@@@@@@.......        ",
"                     ....OOOOOOOOOOOOOOOOO@@@@@@@.......        ",
"                  .......@@@@@@@@@@@@@OOOO...........           ",
"                  .......@@@@@@@@@@@@@OOOO...........           ",
"                  .......@@@@@@@@@@@@@OOOO...........           ",
"                  .....@@@@@@@@@@@@@@@@@OO.........             ",
"                  .....@@@@@@@@@@@@@@@@@OO.........             ",
"                  .....@@@@@@@@@@@@@@@@@OO.........             ",
"                .......OOOO@@@@OOO@@@@@@OO.....                 ",
"                .......OOOO@@@@OOO@@@@@@OO.....                 ",
"                .....OOOOXXXX.......OO@@@@OOO....               ",
"                .....OOOOXXXX.......OO@@@@OOO....               ",
"                .....OOOOXXXX.......OO@@@@OOO....               ",
"                .....XXXXXX...........OOOOOOO....               ",
"                .....XXXXXX...........OOOOOOO....               ",
"                .....XXXXXX...........OOOOOOO....               ",
"                ...............   ...............               ",
"                ...............   ...............               ",
"                  ...........       ...........                 ",
"                  ...........       ...........                 ",
"                  ...........       ...........                 "
};
