/* XPM */
static char *out[] = {
/* columns rows colors chars-per-pixel */
"64 64 8 1 ",
"  c None",
". c #080000",
"X c #B97371",
"o c #67979C",
"O c #CF9C9B",
"+ c #9CC8CD",
"@ c #E3C6C5",
"# c white",
/* pixels */
"                        .............                           ",
"                        .............                           ",
"                     ...................                        ",
"                  ......OOOOOOOOOOOOO......                     ",
"                  ......OOOOOOOOOOOOO......                     ",
"                .....O@@@@@@@@@@@@@@@@OO.....                   ",
"                .....O@@@@@@@@@@@@@@@@OO.....                   ",
"              ....O@@@@@@@@@@@@@@@@@@@@@@OO...                  ",
"             ...OO@@@@@@@@@@@@@@@@@@@@@@@@@OO...                ",
"             ...OO@@@@@@@@@@@@@@@@@@@@@@@@@OO...                ",
"           ...OO@@@@@@@@@@@@@@@@@@@@@@@@@@@@@O...               ",
"           ...@@@@@@@@@@@@@@@@@@@@@@@@@@@@@@@@...               ",
"           ...@@@@@@@@@@@@@@@@@@@@@@@@@@@@@@@@...               ",
"          ...O@@@@@@@@@@@@@@@@@@@@@@@@@@@@@@@@OO...             ",
"          ...@@@@@@@@@@@@@@@@@@@@@@@@@@@@@@@@@@@...             ",
"          ...@@@@@@@@@@@@@@@@@@@@@@@@@@@@@@@@@@@...             ",
"        ...OO@@@@@@@@@@@@@@@@@OO......OO@@@@@@@@O...            ",
"        ...OO@@@@@@@@@@@@@@@@@OO......OO@@@@@@@@O...            ",
"        ...OO@@@@@@@@@@@@@@@@@..###.....@@@@@@@@O...            ",
"        ...OO@@@@@@@@@@@@@@@@@..###.....@@@@@@@@O...            ",
"        ...OO@@@@@@@@@@@@@@@@@..###.....@@@@@@@@O...            ",
"        ...OO@@@@@@@@@@@@@@@@@..........@@@@@O......            ",
"        ...XXO@@@@@@@@@@@@@@@@..........@@@OO.......            ",
"        ...XXO@@@@@@@@@@@@@@@@..........@@@OO.......            ",
"          ...O@@@@@@@@@@@@@@@@OO......OO@@@..####...            ",
"          ...O@@@@@@@@@@@@@@@@OO......OO@@@..####...            ",
"          ...XOO@@@@@@@@@@@@@@@@++++++@@@@@.........            ",
"           ...OO@@@@@@@@@@@@@@@@++++++@@@@@OOOOO...             ",
"           ...OO@@@@@@@@@@@@@@@@++++++@@@@@OOOOO...             ",
"           ...XXOO@@@@@@@@@@@@@@++++++@@@@@@@OXX...             ",
"             ...XXO@@@@@@@@@@@@@++++++@@@@@OOX...               ",
"             ...XXO@@@@@@@@@@@@@++++++@@@@@OOX...               ",
"              ....XOOO@@@@@@@@@@++++++@@@OOXX...                ",
"              .......XOO@@@@@@@@+++++oOOX.....                  ",
"         ............XOO@@@@@@@@+++++oOOX.....                  ",
"         ...............XXOOOOOOooooo........                   ",
"      ........OOXX......XXOOOOOOooooo..........                 ",
"      ........OOXXXOO....................X.....                 ",
"      ........OOXXXOOOOO.............OOXXX.....                 ",
"      .....OOOOOOOO@@@@@.............OOOOO.....                 ",
"      .....OOOOOOOO@@@@@OOOOOOOOOOOOOOOOOO.....                 ",
"      .....OOOOO@@@@@@@@OOOOOOOOOOOOOOOOOO.....                 ",
"      .....OOOOO@@@@@@@@OOOOOOOOOOOOOOOOOO.....                 ",
"      .....OOOOO@@@@@@@@OOOOOOOOOOOOOOOOOO.....                 ",
"      ........@@@@@..OOO@@@@@@@@@@@@@@@@@@.......               ",
"      ........@@@@@..OOO@@@@@@@@@@@@@@@@@@.......               ",
"         ............@@@@@@@@@@@@@@@@@@@@@OOXXX.....            ",
"         ............@@@@@@@@@@@@@@@@@@@@@OOXXX.....            ",
"         ............@@@@@@@@@@@@@@@@@@@@@OOXXX.....            ",
"           ..........@@@@@@@@@@@OOOOOOOOOOOOOOOXX...            ",
"           ..........@@@@@@@@@@@OOOOOOOOOOOOOOOXX...            ",
"                .....OOO@@@@@OOO.....XXOOOOOXXX.....            ",
"                .....OOO@@@@@OOO.....XXOOOOOXXX.....            ",
"                .....OOO@@@@@OOO.....XXOOOOOXXX.....            ",
"                .....OOO@@@@@OOO.......XXXXX.....               ",
"                .....OOO@@@@@OOO.......XXXXX.....               ",
"                .....OOOOOOOO.....   ..........                 ",
"                .....OOOOOOOO.....   ..........                 ",
"                .....OOOOOOOO.....   ..........                 ",
"                ..................     .....                    ",
"                ..................     .....                    ",
"                   .............                                ",
"                   .............                                ",
"                   .............                                "
};
