/* XPM */
static char *out[] = {
/* columns rows colors chars-per-pixel */
"64 64 8 1 ",
"  c None",
". c #080000",
"X c #B97371",
"o c #67979C",
"O c #CF9C9B",
"+ c #9CC8CD",
"@ c #E3C6C5",
"# c white",
/* pixels */
"                        .............                           ",
"                        .............                           ",
"                     ...................                        ",
"                  ......OOOOOOOOOOOOO.......                    ",
"                  ......OOOOOOOOOOOOO.......                    ",
"                .....OO@@@@@@@@@@@@@@@@O.....                   ",
"                .....OO@@@@@@@@@@@@@@@@O.....                   ",
"               ...O@@@@@@@@@@@@@@@@@@@@@@@OO...                 ",
"             ...OO@@@@@@@@@@@@@@@@@@@@@@@@@@O...                ",
"             ...OO@@@@@@@@@@@@@@@@@@@@@@@@@@O...                ",
"           ....O@@@@@@@@@@@@@@@@@@@@@@@@@@@@@OO...              ",
"           ....@@@@@@@@@@@@@@@@@@@@@@@@@@@@@@@@...              ",
"           ....@@@@@@@@@@@@@@@@@@@@@@@@@@@@@@@@...              ",
"          ...OO@@@@@@@@@@@@@@@@@@@@@@@@@@@@@@@@O....            ",
"          ...OO@@@@@@@@@@@@@@@@@@@@@@@@@@@@@@@@O....            ",
"          ...@@@@@@@@@@@@@@@@@@@@@@@@@@@@@@@@@@@....            ",
"        ...OO@@@@@@@@@@@@@@@@@@O.......O@@@@@@@@OO...           ",
"        ...OO@@@@@@@@@@@@@@@@@@O.......O@@@@@@@@OO...           ",
"        ...OO@@@@@@@@@@@@@@@@@@.####....@@@@@@@@OO...           ",
"        ...OO@@@@@@@@@@@@@@@@@@.####....@@@@@@@@OO...           ",
"        ...OO@@@@@@@@@@@@@@@@@@.####....@@@@@@@@OO...           ",
"        ...OO@@@@@@@@@@@@@@@@@@.........@@@@@OO......           ",
"        ...OO@@@@@@@@@@@@@@@@@@.........@@@@@OO......           ",
"        ...XXOO@@@@@@@@@@@@@@@@.........@@@@O........           ",
"          ...OO@@@@@@@@@@@@@@@@O.......O@@@@.#####...           ",
"          ...OO@@@@@@@@@@@@@@@@O.......O@@@@.#####...           ",
"          ...XXO@@@@@@@@@@@@@@@@+++++++@@@@@.........           ",
"          ...XXO@@@@@@@@@@@@@@@@+++++++@@@@@.........           ",
"           ....O@@@@@@@@@@@@@@@@+++++++@@@@@OOOO....            ",
"           ....XOO@@@@@@@@@@@@@@+++++++@@@@@@OOX....            ",
"           ....XOO@@@@@@@@@@@@@@+++++++@@@@@@OOX....            ",
"             ...XXO@@@@@@@@@@@@@+++++++@@@@@OXX...              ",
"           .......XOOOO@@@@@@@@@+++++++@@@OOX...                ",
"           .......XOOOO@@@@@@@@@+++++++@@@OOX...                ",
"           ..........XXO@@@@@@@@+++++ooOXX.....                 ",
"        .......O.....XXO@@@@@@@@+++++ooOXX.....                 ",
"        .......OOX......XXOOOOOOooooo........                   ",
"        .......OOXXXX.....................                      ",
"        .....OOOOOOOO......................                     ",
"        .....OOOOOOOOOOO.............XX....                     ",
"        .....OOOO@@@@@@@OOOOOOOOOOOOOOO....                     ",
"        .....OOOO@@@@@@@OOOOOOOOOOOOOOO....                     ",
"        .....OOOO@@@@@@@OOOOOOOOOOOOOOO....                     ",
"        .......@@@@@@@OOOOOOOOOOOOOOOOO....                     ",
"        .......@@@@@@@OOOOOOOOOOOOOOOOO....                     ",
"           ...........OOOO@@@@@@@@@@@@@.......                  ",
"           ...........OOOO@@@@@@@@@@@@@.......                  ",
"           ...........OOOO@@@@@@@@@@@@@.......                  ",
"             .........OO@@@@@@@@@@@@@@@@@.....                  ",
"             .........OO@@@@@@@@@@@@@@@@@.....                  ",
"             .........OO@@@@@@@@@@@@@@@@@.....                  ",
"                 .....OO@@@@@@OOO@@@@OOOO.......                ",
"                 .....OO@@@@@@OOO@@@@OOOO.......                ",
"               ....OOO@@@@OO.......XXXXOOOO.....                ",
"               ....OOO@@@@OO.......XXXXOOOO.....                ",
"               ....OOO@@@@OO.......XXXXOOOO.....                ",
"               ....OOOOOOO...........XXXXXX.....                ",
"               ....OOOOOOO...........XXXXXX.....                ",
"               ....OOOOOOO...........XXXXXX.....                ",
"               ...............   ...............                ",
"               ...............   ...............                ",
"                 ...........       ...........                  ",
"                 ...........       ...........                  ",
"                 ...........       ...........                  "
};
