/* XPM */
static char *_d69dea437a148eff1d627781ec93dcdv17UjnLQG07QzhlT[] = {
/* columns rows colors chars-per-pixel */
"64 64 9 1 ",
"  c None",
". c #080000",
"X c #B97371",
"o c #67979B",
"O c #67979C",
"+ c #CF9C9B",
"@ c #9CC8CC",
"# c #E3C6C5",
"$ c white",
/* pixels */
"                          .............                         ",
"                          .............                         ",
"                      ....................                      ",
"                      ....................                      ",
"                   .......+++++++++++++......                   ",
"                  ....++#################+.....                 ",
"                  ....++#################+.....                 ",
"                ...++#######################+....               ",
"              ....+##########################++...              ",
"              ....+##########################++...              ",
"             ...++#############################++...            ",
"             ...++#############################++...            ",
"             ...#################################...            ",
"           ...++#################################+....          ",
"           ...++#################################+....          ",
"           ...####################################....          ",
"           ...####################################....          ",
"         ....+####################################++...         ",
"         ....+##++......++#############++......++#++...         ",
"         ....+##++......++#############++......++#++...         ",
"         ....+##..$$$.....#############..$$$.....#++...         ",
"         ....+##..$$$.....#############..$$$.....#++...         ",
"         ....+++..........#############..$$......+++...         ",
"         ....X++..........###.......###..........+XX...         ",
"         ....X++..........###.......###..........+XX...         ",
"           ...............#..........##...............          ",
"           .............++#..$$$$$$$.##++.............          ",
"          ..............++#..$$$$$$$.##++.............          ",
"          ...........@++###..........####+@..........           ",
"          ...........@++###..........####+@..........           ",
"        .....+++###..@####################@..###+++.....        ",
"        .....+++###..@####################@..###+++.....        ",
"        .....+++###..@####################@..###+++.....        ",
"        .....+++###..@++#################+@..###+++.....        ",
"        .....+++###..@++#################+@..###+++.....        ",
"        .....+++###...oo++#############++O...###+++.....        ",
"        .....+++#####.....X++++++++++XX....#####+++.....        ",
"        .....+++#####.....X++++++++++XX....#####+++.....        ",
"          ......+++##+....................+##+++.....           ",
"          ......+++##+....................+##+++.....           ",
"          ......+++##+++++.............++++##+++.....           ",
"             ......XX++++++++++++++++++++++XX......             ",
"             ......XX++++++++++++++++++++++XX......             ",
"             ........++++++++++++++++++++++........             ",
"                  ...++++++++++++++++++++++...                  ",
"                  ...+++################+++...                  ",
"                  ...+++################+++...                  ",
"                  ...+++################+++...                  ",
"                  ...######################...                  ",
"                  ...######################...                  ",
"                  ...######################...                  ",
"                  ...######++......++######...                  ",
"                  ...######++......++######...                  ",
"                   ..######++......++######..                   ",
"                   ...#######......++#####...                   ",
"                   ...#######......++#####...                   ",
"                   .....#####......++###.....                   ",
"                   .....#####......++###.....                   ",
"                   .....#####......++###.....                   ",
"                   ..........................                   ",
"                   ..........................                   ",
"                   ..........................                   ",
"                     ........      ........                     ",
"                     ........      ........                     "
};
