/* XPM */
static char *out[] = {
/* columns rows colors chars-per-pixel */
"64 64 5 1 ",
"  c None",
". c #080000",
"X c #B97371",
"o c #CF9C9B",
"O c #E3C6C5",
/* pixels */
"                          .............                         ",
"                          .............                         ",
"                      ....................                      ",
"                      ....................                      ",
"                   .......ooooooooooooo.......                  ",
"                  ........ooooooooooooo........                 ",
"                  .....ooOOOOOOOOOOOOOOOOo.....                 ",
"                ....oOOOOOOOOOOOOOOOOOOOOOOOoo...               ",
"              ......oOOOOOOOOOOOOOOOOOOOOOOOoo....              ",
"              ....ooOOOOOOOOOOOOOOOOOOOOOOOOOOo...              ",
"             ....oOOOOOOOOOOOOOOOOOOOOOOOOOOOOOoo...            ",
"             ....oOOOOOOOOOOOOOOOOOOOOOOOOOOOOOoo...            ",
"             ....OOOOOOOOOOOOOOOOOOOOOOOOOOOOOOOO...            ",
"           ....ooOOOOOOOOOOOOOOOOOOOOOOOOOOOOOOOOo....          ",
"           ....ooOOOOOOOOOOOOOOOOOOOOOOOOOOOOOOOOo....          ",
"           ....OOOOOOOOOOOOOOOOOOOOOOOOOOOOOOOOOOO....          ",
"           ....OOOOOOOOOOOOOOOOOOOOOOOOOOOOOOOOOOO....          ",
"         ....ooOOOOOOOOOOOOOOOOOOOOOOOOOOOOOOOOOOOoo...         ",
"         ....ooOOOOOOOOOOOOOOOOOOOOOOOOOOOOOOOOOOOoo...         ",
"         ....ooOOOOOOOOOOOOOOOOOOOOOOOOOOOOOOOOOOOoo...         ",
"         ....ooOOOOOOOOOOOOOOOOOOOOOOOOOOOOOOOOOOOoo...         ",
"         ....ooOOOOOOOOOOOOOOOOOOOOOOOOOOOOOOOOOOOoo...         ",
"         ....ooOOOOOOOOOOOOOOOOOOOOOOOOOOOOOOOOOOOoo...         ",
"         ....XXooOOOOOOOOOOOOOOOOOOOOOOOOOOOOOOOOoXX...         ",
"         ......ooOOOOOOOOOOOOOOOOOOOOOOOOOOOOOOOOo.....         ",
"           ....ooOOOOOOOOOOOOOOOOOOOOOOOOOOOOOOOOo....          ",
"           ....XXoOOOOOOOOOOOOOOOOOOOOOOOOOOOOOooX....          ",
"           ......oOOOOOOOOOOOOOOOOOOOOOOOOOOOOOoo.....          ",
"             ....oOOOOOOOOOOOOOOOOOOOOOOOOOOOOOoo...            ",
"             ....XooOOOOOOOOOOOOOOOOOOOOOOOOOOoXX...            ",
"             ....XooOOOOOOOOOOOOOOOOOOOOOOOOOOoXX...            ",
"              ....XXoOOOOOOOOOOOOOOOOOOOOOOOooX...              ",
"              ......XooooOOOOOOOOOOOOOOOOoooXX....              ",
"                ....XooooOOOOOOOOOOOOOOOOoooXX...               ",
"                .......XXoooOOOOOOOOOOoooX.......               ",
"                ..........XXooooooooooX.........                ",
"                ..........XXooooooooooX.........                ",
"             ......................................             ",
"             ......XXo....................oXX......             ",
"             ......XXo....................oXX......             ",
"           .....oooOOooooo.............ooooOOooo......          ",
"           .....oooOOooooooooooooooooooooooOOooo......          ",
"           .....oooOOooooooooooooooooooooooOOooo......          ",
"        .....oooOOOOOooooooooooooooooooooooOOOOOooo.....        ",
"        .....oooOOOOOooooooooooooooooooooooOOOOOooo.....        ",
"        .....oooOOO..oooOOOOOOOOOOOOOOOOooo..OOOooo.....        ",
"        .....oooOOO..oooOOOOOOOOOOOOOOOOooo..OOOooo.....        ",
"        .....oooOOO..oooOOOOOOOOOOOOOOOOooo..OOOooo.....        ",
"        .....oooOOO..OOOOOOOOOOOOOOOOOOOOOO..OOOooo.....        ",
"        .....oooOOO..OOOOOOOOOOOOOOOOOOOOOO..OOOooo.....        ",
"        .....oooOOO..OOOOOOOOOOOOOOOOOOOOOO..OOOooo.....        ",
"           ..........OOOOOOoo......ooOOOOOO...........          ",
"           ..........OOOOOOoo......ooOOOOOO...........          ",
"           ..........OOOOOOoo......ooOOOOOO...........          ",
"             ........OOOOOOOO......ooOOOOOO........             ",
"             ........OOOOOOOO......ooOOOOOO........             ",
"                ........OOOOO......ooOOO........                ",
"                ........OOOOO......ooOOO........                ",
"                ........OOOOO......ooOOO........                ",
"                   ..........................                   ",
"                   ..........................                   ",
"                   ..........................                   ",
"                     ........      ........                     ",
"                     ........      ........                     "
};
