/* XPM */
static char *out[] = {
/* columns rows colors chars-per-pixel */
"64 64 5 1 ",
"  c None",
". c #080000",
"X c #B97371",
"o c #CF9C9B",
"O c #E3C6C5",
/* pixels */
"                         ..............                         ",
"                         ..............                         ",
"                      ....................                      ",
"                   ......oooooooooooooo.......                  ",
"                   ......oooooooooooooo.......                  ",
"                 .....ooOOOOOOOOOOOOOOOOOo.....                 ",
"                 .....ooOOOOOOOOOOOOOOOOOo.....                 ",
"               ....oOOOOOOOOOOOOOOOOOOOOOOOOoo...               ",
"             ....ooOOOOOOOOOOOOOOOOOOOOOOOOOOOo....             ",
"             ....ooOOOOOOOOOOOOOOOOOOOOOOOOOOOo....             ",
"            ...ooOOOOOOOOOOOOOOOOOOOOOOOOOOOOOOoo....           ",
"            ...ooOOOOOOOOOOOOOOOOOOOOOOOOOOOOOOoo....           ",
"            ...OOOOOOOOOOOOOOOOOOOOOOOOOOOOOOOOOO....           ",
"          ...ooOOOOOOOOOOOOOOOOOOOOOOOOOOOOOOOOOOoo...          ",
"          ...ooOOOOOOOOOOOOOOOOOOOOOOOOOOOOOOOOOOoo...          ",
"          ...OOOOOOOOOOOOOOOOOOOOOOOOOOOOOOOOOOOOOO...          ",
"        ....oOOOOOOOOOOOOOOOOOOOOOOOOOOOOOOOOOOOOOOoo...        ",
"        ....oOOOOOOOOOOOOOOOOOOOOOOOOOOOOOOOOOOOOOOoo...        ",
"        ....oOOOOOOOOOOOOOOOOOOOOOOOOOOOOOOOOOOOOOOoo...        ",
"        ....oOOOOOOOOOOOOOOOOOOOOOOOOOOOOOOOOOOOOOOoo...        ",
"        ....oOOOOOOOOOOOOOOOOOOOOOOOOOOOOOOOOOOOOOOoo...        ",
"        ....oOOOOOOOOOOOOOOOOOOOOOOOOOOOOOOOOOOOOOOoo...        ",
"        ....oOOOOOOOOOOOOOOOOOOOOOOOOOOOOOOOOOOOOOOoo...        ",
"        ....XooOOOOOOOOOOOOOOOOOOOOOOOOOOOOOOOOOOooXX...        ",
"         ....ooOOOOOOOOOOOOOOOOOOOOOOOOOOOOOOOOOOoo....         ",
"          ...ooOOOOOOOOOOOOOOOOOOOOOOOOOOOOOOOOOOoo...          ",
"          ...XXooOOOOOOOOOOOOOOOOOOOOOOOOOOOOOOooXX...          ",
"          ...XXooOOOOOOOOOOOOOOOOOOOOOOOOOOOOOOooXX...          ",
"            ...ooOOOOOOOOOOOOOOOOOOOOOOOOOOOOOOoo....           ",
"            ...XXooOOOOOOOOOOOOOOOOOOOOOOOOOOOoXX....           ",
"            ...XXooOOOOOOOOOOOOOOOOOOOOOOOOOOOoXX....           ",
"             ....XXoOOOOOOOOOOOOOOOOOOOOOOOOooX....             ",
"              .....XooooOOOOOOOOOOOOOOOOOoooXX....              ",
"               ....XooooOOOOOOOOOOOOOOOOOoooXX...               ",
"                ......XXoooOOOOOOOOOOooooX.......               ",
"                ......XXoooOOOOOOOOOOooooX......                ",
"                .........XXooooooooooXX.........                ",
"             ......................................             ",
"             ......XXo....................oXX......             ",
"             ......XXo....................oXX......             ",
"           .....oooOOoooo..............ooooOOooo......          ",
"           .....oooOOooooooooooooooooooooooOOooo......          ",
"           .....oooOOooooooooooooooooooooooOOooo......          ",
"        .....oooOOOOOooooooooooooooooooooooOOOOOooo.....        ",
"        .....oooOOOOOooooooooooooooooooooooOOOOOooo.....        ",
"        .....oooOOO..oooOOOOOOOOOOOOOOOOooo..OOOooo.....        ",
"        .....oooOOO..oooOOOOOOOOOOOOOOOOooo..OOOooo.....        ",
"        .....oooOOO..oooOOOOOOOOOOOOOOOOooo..OOOooo.....        ",
"        .....oooOOO..OOOOOOOOOOOOOOOOOOOOOO..OOOooo.....        ",
"        .....oooOOO..OOOOOOOOOOOOOOOOOOOOOO..OOOooo.....        ",
"        .....oooOOO..OOOOOOOOOOOOOOOOOOOOOO..OOOooo.....        ",
"           ..........OOOOOOoo......ooOOOOOO...........          ",
"           ..........OOOOOOoo......ooOOOOOO...........          ",
"           ..........OOOOOOoo......ooOOOOOO...........          ",
"             ........OOOOOOOO......ooOOOOOO........             ",
"             ........OOOOOOOO......ooOOOOOO........             ",
"                ........OOOOO......ooOOO........                ",
"                ........OOOOO......ooOOO........                ",
"                ........OOOOO......ooOOO........                ",
"                   ..........................                   ",
"                   ..........................                   ",
"                   ..........................                   ",
"                     ........      ........                     ",
"                     ........      ........                     "
};
