/* XPM */
static char *out[] = {
/* columns rows colors chars-per-pixel */
"64 64 5 1 ",
"  c None",
". c #080000",
"X c #B97371",
"o c #CF9C9B",
"O c #E3C6C5",
/* pixels */
"                          .............                         ",
"                          .............                         ",
"                      ....................                      ",
"                    ......ooooooooooooo.......                  ",
"                   .......ooooooooooooo.......                  ",
"                  .....ooOOOOOOOOOOOOOOOOo.....                 ",
"                  .....ooOOOOOOOOOOOOOOOOo.....                 ",
"                ....oOOOOOOOOOOOOOOOOOOOOOOOoo...               ",
"              ....ooOOOOOOOOOOOOOOOOOOOOOOOOOOo...              ",
"              ....ooOOOOOOOOOOOOOOOOOOOOOOOOOOo...              ",
"             ....oOOOOOOOOOOOOOOOOOOOOOOOOOOOOOoo...            ",
"             ....oOOOOOOOOOOOOOOOOOOOOOOOOOOOOOoo...            ",
"             ....OOOOOOOOOOOOOOOOOOOOOOOOOOOOOOOO...            ",
"           ....ooOOOOOOOOOOOOOOOOOOOOOOOOOOOOOOOOo....          ",
"           ....ooOOOOOOOOOOOOOOOOOOOOOOOOOOOOOOOOo....          ",
"           ....OOOOOOOOOOOOOOOOOOOOOOOOOOOOOOOOOOO....          ",
"          ...ooOOOOOOOOOOOOOOOOOOOOOOOOOOOOOOOOOOOoo...         ",
"         ....ooOOOOOOOOOOOOOOOOOOOOOOOOOOOOOOOOOOOoo...         ",
"         ....ooOOOOOOOOOOOOOOOOOOOOOOOOOOOOOOOOOOOoo...         ",
"         ....ooOOOOOOOOOOOOOOOOOOOOOOOOOOOOOOOOOOOoo...         ",
"         ....ooOOOOOOOOOOOOOOOOOOOOOOOOOOOOOOOOOOOoo...         ",
"         ....ooOOOOOOOOOOOOOOOOOOOOOOOOOOOOOOOOOOOoo...         ",
"         ....ooOOOOOOOOOOOOOOOOOOOOOOOOOOOOOOOOOOOoo...         ",
"         ....XXooOOOOOOOOOOOOOOOOOOOOOOOOOOOOOOOOoXX...         ",
"         ......ooOOOOOOOOOOOOOOOOOOOOOOOOOOOOOOOOo.....         ",
"           ....ooOOOOOOOOOOOOOOOOOOOOOOOOOOOOOOOOo....          ",
"           ....XXoOOOOOOOOOOOOOOOOOOOOOOOOOOOOOooX....          ",
"           ....XXoOOOOOOOOOOOOOOOOOOOOOOOOOOOOOooX....          ",
"             ....oOOOOOOOOOOOOOOOOOOOOOOOOOOOOOoo...            ",
"             ....XooOOOOOOOOOOOOOOOOOOOOOOOOOOoXX...            ",
"             ....XooOOOOOOOOOOOOOOOOOOOOOOOOOOoXX...            ",
"             .....XXoOOOOOOOOOOOOOOOOOOOOOOOooX...              ",
"             .......XooooOOOOOOOOOOOOOOOOoooXX....              ",
"             .......XooooOOOOOOOOOOOOOOOOoooXX...               ",
"           ............XXoooOOOOOOOOOOoooX.......               ",
"           ............XXoooOOOOOOOOOOoooX......                ",
"           ...............XXooooooooooX.........                ",
"        .....OOOooo................................             ",
"        .....OOOoooooo....................oXX......             ",
"     ......OOOOOOOOooX....................ooo......             ",
"     ......OOOOOOOOooXXXoo.............Xooooo......             ",
"     ......OOOOOOOOooXXXooooooooXXXXXXXXooooo......             ",
"     ......OOOOOoooooXXXoooooXXXooooooooXXXooXXX.....           ",
"     ......OOOOOoooooXXXoooooXXXooooooooXXXooXXX.....           ",
"     ......OOOOOoooooXXXoooooXXXooooooooXXXooXXX.....           ",
"     ......ooooooooooXXXoooooXXXOOOOOOOOooo..XXX.....           ",
"     ......ooooooooooXXXoooooXXXOOOOOOOOooo..XXX.....           ",
"        .............ooooooooXXXOOOOOOOOooo..........           ",
"        .............ooooooooXXXOOOOOOOOooo..........           ",
"        .............ooooooooXXXOOOOOOOOooo..........           ",
"           .............ooo..XXXOOOOOOOOooo........             ",
"           .............ooo..XXXOOOOOOOOooo........             ",
"           .............ooo..XXXOOOOOOOOooo........             ",
"                   .....oooXX...oooooooo........                ",
"                   .....oooXX...oooooooo........                ",
"                   ........XXXXX.............                   ",
"                   ........XXXXX.............                   ",
"                   ........XXXXX.............                   ",
"                     ......................                     ",
"                     ......................                     ",
"                     ......................                     ",
"                        ...........                             ",
"                        ...........                             ",
"                        ...........                             "
};
