/* XPM */
static char *xpm_[] = {
/* columns rows colors chars-per-pixel */
"40 40 18 1 ",
"  c #6E4628",
". c #734E37",
"X c #75472B",
"o c #202020",
"O c #CD9002",
"+ c #F4AB02",
"@ c #7E5516",
"# c #6A4137",
"$ c #70443A",
"% c #F8CA60",
"& c white",
"* c #A97601",
"= c #864B46",
"- c #6A4814",
"; c #603931",
": c #53352B",
"> c #432B23",
", c #0C0C0C",
/* pixels */
"                  ..                    ",
"....................        ........... ",
"....................        ........... ",
"....................        ........... ",
"..........   .....       ...............",
"..................   ...................",
"..................   .......X...........",
"..........          ....................",
"..........          ....................",
"......oooooooooooooooooooooooooooo......",
"     oO++O@#$$$$#@O++O@#$$$$#@O++Oo     ",
"    .o+%&+*$====$*+&&+*$====$*+&%+o.....",
" ....o+%&+*$====$*+&&+*$====$*+&%+o.... ",
" ....o+%%+*$====$*+%%+*$====$*+%%+o.... ",
" ....oO++O@#$$$$#@O++O@#$$$$#@O++Oo...  ",
" ....o*OO*-;####;-*OO*-;####;-*OO*o...  ",
" ....o*OO*-;####;-****-;####;-*OO*o...  ",
" ....o@**@-:;;;;:-@@@@-:;;;;:-@**@o.... ",
" ....o@**@-:;;;;:-*&%@-:;;;;:-@**@o.... ",
".... o-@@-->::::>-&,,*->::::>--@@-o     ",
".... o*OOO*O&&&O*@%,,*@*O&&&O*OOO*o     ",
".....o@**********@+,,*@**********@o....X",
".....o@@@@@@@@@@-@+,,*@-@@@@@@@@@@o.....",
"......o-->::::::>@*,,*@>::::::>--o......",
"......o@-::::::::@*--*@::::::::-@o......",
".    .o*@:;;;;;;:>@**@>:;;;;;;:@*o......",
".    .o*@:;;####;::::::;####;;:@*o......",
"      o*@:;##################;:@*o      ",
"      o@-:;;;;;;;;;;;;;;;;;;;;:-@o      ",
"      o@@@@@@@@@@@@@@@@@@@@@@@@@@o      ",
"    ..o--------------------------o......",
" ......oooooooooooooooooooooooooo...... ",
" ...............  ..................... ",
" ...............  ..................... ",
" .....................................  ",
" .....    ............................  ",
".............................           ",
"                                        ",
"                                        ",
"                                        "
};
