/* XPM */
static char *xpm_[] = {
/* columns rows colors chars-per-pixel */
"40 40 18 1 ",
"  c #6E4628",
". c #734E37",
"X c #75472B",
"o c #202020",
"O c #6A4814",
"+ c #CD9002",
"@ c #7E5516",
"# c #F4AB02",
"$ c #3A231E",
"% c white",
"& c #482D26",
"* c #0C0C0C",
"= c #A97601",
"- c #F8CA60",
"; c #432B23",
": c #53352B",
"> c #603931",
", c #6A4137",
/* pixels */
"                  ..                    ",
"....................        ........... ",
"....................        ........... ",
"....................        ........... ",
"..........   .....       ...............",
"..................   ...................",
"..................   .......X...........",
"..........          ....................",
"..........          ....................",
"..........          ....................",
"                                        ",
"    .. oooooooooooooooooooooooooo.......",
" .....oO++++++++++++++++++++++++Oo..... ",
" .....o@+@@@@@@@@@@@@@@@@@@@@@@+@o..... ",
" .....o@#$$$@@@@@$$$$$$@@@@@$$$#@o....  ",
" .....o@%$&&$$$$$&&&&&&$$$$$&&$%@o....  ",
" .....o@%$&&&&&&&&&&&&&&&&&&&&$%@o....  ",
" .....o@#$$$$$$$$$@@@@$$$$$$$$$#@o..... ",
" .....o@#*$$$$$$$O=%-@O$$$$$$$*#@o..... ",
"....  o@+********O%**=O********+@o      ",
"....  o@+++++++++@-**=@+++++++++@o      ",
"......o@@++++++++@#**=@++++++++@@o.....X",
"......o@@@@@@@@@@@#**=@@@@@@@@@@@o......",
"......oOO;::::::;@=**=@;::::::;OOo......",
"......o@O::::::::@=OO=@::::::::O@o......",
".    .o=@:>>>>>>:;@==@;:>>>>>>:@=o......",
".    .o=@:>>,,,,>::::::>,,,,>>:@=o......",
"      o=@:>,,,,,,,,,,,,,,,,,,>:@=o      ",
"      o@O:>>>>>>>>>>>>>>>>>>>>:O@o      ",
"      o@@@@@@@@@@@@@@@@@@@@@@@@@@o      ",
"    ..oOOOOOOOOOOOOOOOOOOOOOOOOOOo......",
" ......oooooooooooooooooooooooooo...... ",
" ...............  ..................... ",
" ...............  ..................... ",
" .....................................  ",
" .....    ............................  ",
".............................           ",
"                                        ",
"                                        ",
"                                        "
};
