/* XPM */
static char *xpm_[] = {
/* columns rows colors chars-per-pixel */
"40 40 17 1 ",
"  c #6E4628",
". c #734E37",
"X c #75472B",
"o c #181818",
"O c #353535",
"+ c gray12",
"@ c #434343",
"# c #200909",
"$ c gray31",
"% c #270C0C",
"& c #0C0C0C",
"* c #2C2C2C",
"= c #2A1414",
"- c #331010",
"; c #3F1212",
": c #521515",
"> c white",
/* pixels */
"                  ..                    ",
"....................        ........... ",
"....................        ........... ",
"....................        ........... ",
"..........   .....       ...............",
"..................   ...................",
"..................   .......X...........",
"..........          ....................",
"..........          ....................",
"..........          ....................",
"                                        ",
"    .. oooooooooooooooooooooooooo.......",
" .....ooOOOOOOOOOOOOOOOOOOOOOOOOoo..... ",
" .....o+O++++++++++++++++++++++O+o..... ",
" .....o+@###+++++######+++++###@+o....  ",
" .....o+$#%%#####%%%%%%#####%%#$+o....  ",
" .....o+$#%%%%%%%%%%%%%%%%%%%%#$+o....  ",
" .....o+@######################@+o..... ",
" .....o+@&####################&@+o..... ",
"....  o+O&&&&&&&&&&&&&&&&&&&&&&O+o      ",
"....  o+OOOOOOOOOO@OO@OOOOOOOOOO+o      ",
"......o++OOOOOOOOO@OO@OOOOOOOOO++o.....X",
"......o++++++++++*O++O*++++++++++o......",
"......ooo=------o+*&&*+o------=ooo......",
"......o+o-------o+*&&*+o-------o+o......",
".    .o*+-;;;;;;o++OO++o;;;;;;-+*o......",
".    .o*+-;;::::--------::::;;-+*o......",
"      o*+-;::::::::::::::::::;-+*o      ",
"      o+o-;;;;;;;;;;;;;;;;;;;;-o+o      ",
"      o++++++++++++++++++++++++++o      ",
"    ..oooooooooooooooooooooooooooo......",
" ......oooooooooooooooooooooooooo...... ",
" ...............  ..................... ",
" ...............  ..................... ",
" .....................................  ",
" .....    ............................  ",
".............................           ",
"                                        ",
"                                        ",
"                                        "
};
