/* XPM */
static char *xpm_[] = {
/* columns rows colors chars-per-pixel */
"40 40 17 1 ",
"  c #6E4628",
". c #734E37",
"X c #75472B",
"o c #181818",
"O c #353535",
"+ c #434343",
"@ c gray12",
"# c #521515",
"$ c #621919",
"% c gray31",
"& c #2C2C2C",
"* c #6D1D1D",
"= c #3F1212",
"- c #331010",
"; c #2A1414",
": c #0C0C0C",
"> c white",
/* pixels */
"                  ..                    ",
"....................        ........... ",
"....................        ........... ",
"....................        ........... ",
"..........   .....       ...............",
"..................   ...................",
"..................   .......X...........",
"..........          ....................",
"..........          ....................",
"..........          ....................",
"      oooooooooooooooooooooooooooo      ",
"    .oO++O@#$$$$#@O++O@#$$$$#@O++Oo.....",
" ....o+%%+&$****$&+%%+&$****$&+%%+o.... ",
" ....o+%%+&$****$&+%%+&$****$&+%%+o.... ",
" ....o+%%+&$****$&+%%+&$****$&+%%+o...  ",
" ....oO++O@#$$$$#@O++O@#$$$$#@O++Oo...  ",
" ....o&OO&o=####=o&OO&o=####=o&OO&o...  ",
" ....o&OO&o=####=o&OO&o=####=o&OO&o.... ",
" ....o@&&@o-====-o@&&@o-====-o@&&@o.... ",
".... o@&&@o-====-o@&&@o-====-o@&&@o     ",
".... oo@@oo;----;oo@@oo;----;oo@@oo     ",
".....o&OOO&OOOOOO&OOOO&OOOOOO&OOO&o....X",
".....o@&&&&&&&&&&&&&&&&&&&&&&&&&&@o.....",
".....o@@@@@@@@@@@@@@@@@@@@@@@@@@@@o.....",
"......ooo;------ooo::ooo------;ooo......",
".    .o@o-------o@@::@@o-------o@o......",
".    .o&@-======o@@OO@@o======-@&o......",
"      o&@-==####--------####==-@&o      ",
"      o&@-=##################=-@&o      ",
"      o@o-====================-o@o      ",
"    ..o@@@@@@@@@@@@@@@@@@@@@@@@@@o......",
" .....oooooooooooooooooooooooooooo..... ",
" ......oooooooooooooooooooooooooo...... ",
" ...............  ..................... ",
" .....................................  ",
" .....    ............................  ",
".............................           ",
"                                        ",
"                                        ",
"                                        "
};
