/* XPM */
static char *out[] = {
/* columns rows colors chars-per-pixel */
"40 40 10 1 ",
"  c #140D09",
". c #251C0E",
"X c #251F17",
"o c #282119",
"O c #2C251D",
"+ c #412E1E",
"@ c #553C28",
"# c #6E4628",
"$ c #644530",
"% c #734E37",
/* pixels */
"#################################$@@++.O",
"#################################$@@++.O",
"%%%%%%%%%%%%%%%%%%%%%%%%%%%%%####$@@++.O",
"%%%%%%%%%%%%%%%%%%%%%%%%%%%%%####$@@++.O",
"#%%%%%####%%%%%%%%%%%%%%%%%%%%%%%$@@++.O",
"#%%%%%%%%%%%%%%%%%%%%%%%%%%%%%%%%$@@++.O",
"#%%%%%%%%%%%%%%%##%%%%%%%%%%%%%%%$@@++.O",
"#%%%%%%%%%%%%%%%##%%%%%%%%%%%%%%%$@@++.O",
"#%%%%%%%%%%%%%%%##%%%%%%%%%%%%%%%$@@++.O",
"####%%#####%%%%%%%%%%%%%%%%%%%%%%$@@++.O",
"#################################$@@++.O",
"####################%%%##########$@@++.O",
"%####%%%%%%%%%%%%%###%%%%%%%%%%%%$@@++.O",
"%####%%%%%%%%%%%%%###%%%%%%%%%%%%$@@++.O",
"%####%%%%%%%%%%%%%###%%%%%%%%%%%%$@@++.O",
"%%%%%%%%%%%%%%%%%%###%%%%%##%%%%%$@@++.O",
"%%%%%%%%%%###%%%%%#######%%%%%%%%$@@++.O",
"%%%%%%%%%%%%%%%%%%%%########%%%%%$@@++.O",
"%%%%%%%%%%%%%%%%%%%%########%%%%%$@@++.O",
"%%%%#############################$@@++.O",
"%%%%#############################$@@++.O",
"#%%%%%%%%%%%%%%%%%%%%####%%%%%%%%$@@++.O",
"#%%%%%####%%%%%%%%%%%%%%%%%%%%%%%$@@++.O",
"#%%%%%####%%%%%%%%%%%%%%%%%%%%%%%$@@++.O",
"#%%%%%%%%%%%%%%%%%%%%%%%%%%%%%%%%$@@++.O",
"#%%%%%%%%%%%%%%%%%%%%%%%%%%%%%%%%$@@++.O",
"#%%%%%%%%%%%%%%%##%%%%%%%%%%%%$$$$@@++.O",
"####%%#####%%%%%%%%%%%%%%%%%%%$$$$@@++.O",
"####%%#####%%%%%%%%%%%%%%%%%%%$$$$@@++.O",
"##############################$$$@@+++.o",
"$$$$$$$$$$$$$$$$$$$$$$$$$$$$$$$$$@@+++.o",
"@@@@@@@@@@@@@@@@@@@@@@@@@@@@@@@@@@@+...X",
"@@@@@@@@@@@@@@@@@@@@@@@@@@@@@@@@@@@+...X",
"@@@@@@@@@@@@@@@@@@@@@@@@@@@@@@@@@@@+...X",
"+++++++++++++++++++++++++++++++++......X",
".......................................X",
".......................................X",
"XXXXXXXXXXXXXXXXXXXXXXXX XXXXXoOOOoXXXXX",
"XXXXXXXXXXXXXXXXXXXXXXXX XXXXXoOOOoXXXXX",
"XXXXXXXXXXXXXXXXXXXXXXXX XXXXXoOOOoXXXXX"
};
