/* XPM */
static char *out[] = {
/* columns rows colors chars-per-pixel */
"40 40 8 1 ",
"  c #251C0E",
". c #282119",
"X c #412E1E",
"o c #553C28",
"O c #6E4628",
"+ c #75472B",
"@ c #644530",
"# c #734E37",
/* pixels */
"........................................",
"........................................",
"                                        ",
"                                        ",
"                                        ",
"XXXXXXXXXXXXXXXXXXXXXXXXXXXXXXXXXXXXXXXX",
"oooooooooooooooooooooooooooooooooooooooo",
"oooooooooooooooooooooooooooooooooooooooo",
"oooooooooooooooooooooooooooooooooooooooo",
"@@@@@@@@@@@@@@@@@@@@@@@@@@@@@@@@@@@@@@@@",
"@@@@@@@@@@@@@@@@@@@@@@@@@@@@@@@@@@@@@@@@",
"OOOOOOOOOOOOOOOOOOOO###OOOOOOOOOOOOOOOOO",
"#OOOO#############OOO###################",
"#OOOO#############OOO###################",
"#OOOO#############OOO###################",
"##################OOO#####OO############",
"##########OOO#####OOOOOOO###############",
"####################OOOOOOOO###########+",
"####################OOOOOOOO###########+",
"####OOOOOOOOOOOOOOOOOOOOOOOOOOOOOOOOOOOO",
"####OOOOOOOOOOOOOOOOOOOOOOOOOOOOOOOOOOOO",
"O####################OOOO##############O",
"O#####OOOO############################OO",
"O#####OOOO############################OO",
"O#####################################OO",
"O#####################################OO",
"O###############OO#####################O",
"OOOO##OOOOO#############################",
"OOOO##OOOOO#############################",
"OOOOOOOOOOOOOOOOOOOOOOOOOOOOOOOOOOOOOOOO",
"##########OOOOOOOOOO####################",
"##########OOOOOOOOOO####################",
"##################OOO#######+###########",
"##################OOO#######+###########",
"##################OOO###################",
"##########OOO#####OOOOOOO###############",
"####################OOOOOOOO###########O",
"####################OOOOOOOO###########O",
"####################OOOOOOOO###########O",
"OOOOOOOOOOOOOOOOOO##OOOOOOOOOOOOOOOOOOOO"
};
