/* XPM */
static char *out[] = {
/* columns rows colors chars-per-pixel */
"40 40 3 1 ",
"  c #6E4628",
". c #75472B",
"X c #734E37",
/* pixels */
"                                        ",
"                                        ",
"XXXXXXXXXXXXXXXXXXXXXXXXXXXXX           ",
"XXXXXXXXXXXXXXXXXXXXXXXXXXXXX           ",
" XXXXX    XXXXXXXXXXXXXXXXXXXXXXXXXXXX  ",
" XXXXXXXXXXXXXXXXXXXXXXXXXXXXXXXXXXXXX  ",
" XXXXXXXXXXXXXXX  XXXXXXXXXXXXXXXXXXXXX ",
" XXXXXXXXXXXXXXX  XXXXXXXXXXXXXXXXXXXXX ",
" XXXXXXXXXXXXXXX  XXXXXXXXXXXXXXXXXXXXX ",
"    XX     XXXXXXXXXXXXXXXXXXXXXXXXXXXXX",
"                                        ",
"                    XXX                 ",
"X    XXXXXXXXXXXXX   XXXXXXXXXXXXXXXXXXX",
"X    XXXXXXXXXXXXX   XXXXXXXXXXXXXXXXXXX",
"X    XXXXXXXXXXXXX   XXXXXXXXXXXXXXXXXXX",
"XXXXXXXXXXXXXXXXXX   XXXXX  XXXXXXXXXXXX",
"XXXXXXXXXX   XXXXX       XXXXXXXXXXXXXXX",
"XXXXXXXXXXXXXXXXXXXX        XXXXXXXXXXX.",
"XXXXXXXXXXXXXXXXXXXX        XXXXXXXXXXX.",
"XXXX                                    ",
"XXXX                                    ",
" XXXXXXXXXXXXXXXXXXXX    XXXXXXXXXXXXXX ",
" XXXXX    XXXXXXXXXXXXXXXXXXXXXXXXXXXX  ",
" XXXXX    XXXXXXXXXXXXXXXXXXXXXXXXXXXX  ",
" XXXXXXXXXXXXXXXXXXXXXXXXXXXXXXXXXXXXX  ",
" XXXXXXXXXXXXXXXXXXXXXXXXXXXXXXXXXXXXX  ",
" XXXXXXXXXXXXXXX  XXXXXXXXXXXXXXXXXXXXX ",
"    XX     XXXXXXXXXXXXXXXXXXXXXXXXXXXXX",
"    XX     XXXXXXXXXXXXXXXXXXXXXXXXXXXXX",
"                                        ",
"XXXXXXXXXX          XXXXXXXXXXXXXXXXXXXX",
"XXXXXXXXXX          XXXXXXXXXXXXXXXXXXXX",
"XXXXXXXXXXXXXXXXXX   XXXXXXX.XXXXXXXXXXX",
"XXXXXXXXXXXXXXXXXX   XXXXXXX.XXXXXXXXXXX",
"XXXXXXXXXXXXXXXXXX   XXXXXXXXXXXXXXXXXXX",
"XXXXXXXXXX   XXXXX       XXXXXXXXXXXXXXX",
"XXXXXXXXXXXXXXXXXXXX        XXXXXXXXXXX ",
"XXXXXXXXXXXXXXXXXXXX        XXXXXXXXXXX ",
"XXXXXXXXXXXXXXXXXXXX        XXXXXXXXXXX ",
"                  XX                    "
};
