/* XPM */
static char *out[] = {
/* columns rows colors chars-per-pixel */
"40 40 8 1 ",
"  c #251C0E",
". c #2C251D",
"X c #412E1E",
"o c #553C28",
"O c #6E4628",
"+ c #75472B",
"@ c #644530",
"# c #734E37",
/* pixels */
".  Xoo@@OOOOOOOOOOOOOOOOOOOOOOOOOOOOOOOO",
".  Xoo@@OOOOOOOOOOOOOOOOOOOOOOOOOOOOOOOO",
".  Xoo@@#####################OOOOOOOOOOO",
".  Xoo@@#####################OOOOOOOOOOO",
".  Xoo@@OO############################OO",
".  Xoo@@##############################OO",
".  Xoo@@########OO#####################O",
".  Xoo@@########OO#####################O",
".  Xoo@@########OO#####################O",
".  Xoo@@OOO#############################",
".  Xoo@@OOOOOOOOOOOOOOOOOOOOOOOOOOOOOOOO",
".  Xoo@@OOOOOOOOOOOO###OOOOOOOOOOOOOOOOO",
".  Xoo@@##########OOO###################",
".  Xoo@@##########OOO###################",
".  Xoo@@##########OOO###################",
".  Xoo@@##########OOO#####OO############",
".  Xoo@@##OOO#####OOOOOOO###############",
".  Xoo@@############OOOOOOOO###########+",
".  Xoo@@############OOOOOOOO###########+",
".  Xoo@@OOOOOOOOOOOOOOOOOOOOOOOOOOOOOOOO",
".  Xoo@@OOOOOOOOOOOOOOOOOOOOOOOOOOOOOOOO",
".  Xoo@@#############OOOO##############O",
".  Xoo@@OO############################OO",
".  Xoo@@OO############################OO",
".  Xoo@@##############################OO",
".  Xoo@@##############################OO",
".  Xoo@@########OO#####################O",
".  Xoo@@OOO#############################",
".  Xoo@@OOO#############################",
".  Xoo@@OOOOOOOOOOOOOOOOOOOOOOOOOOOOOOOO",
".  Xoo@@##OOOOOOOOOO####################",
".  Xoo@@##OOOOOOOOOO####################",
".  Xoo@@##########OOO#######+###########",
".  Xoo@@##########OOO#######+###########",
".  Xoo@@##########OOO###################",
".  Xoo@@##OOO#####OOOOOOO###############",
".  Xoo@@############OOOOOOOO###########O",
".  Xoo@@############OOOOOOOO###########O",
".  Xoo@@############OOOOOOOO###########O",
".  Xoo@@OOOOOOOOOO##OOOOOOOOOOOOOOOOOOOO"
};
