/* XPM */
static char *out[] = {
/* columns rows colors chars-per-pixel */
"40 40 8 1 ",
"  c #251C0E",
". c #2C251D",
"X c #412E1E",
"o c #553C28",
"O c #6E4628",
"+ c #75472B",
"@ c #644530",
"# c #734E37",
/* pixels */
"OOOOOOOOOOOOOOOOOOOOOOOOOOOOOOO##@ooXX .",
"OOOOOOOOOOOOOOOOOOOOOOOOOOOOOOO##@ooXX .",
"#############################OO##@ooXX .",
"#############################OO##@ooXX .",
"O#####OOOO#######################@ooXX .",
"O################################@ooXX .",
"O###############OO###############@ooXX .",
"O###############OO###############@ooXX .",
"O###############OO###############@ooXX .",
"OOOO##OOOOO######################@ooXX .",
"OOOOOOOOOOOOOOOOOOOOOOOOOOOOOOO##@ooXX .",
"OOOOOOOOOOOOOOOOOOOO###OOOOOOOO##@ooXX .",
"#OOOO#############OOO############@ooXX .",
"#OOOO#############OOO############@ooXX .",
"#OOOO#############OOO############@ooXX .",
"##################OOO#####OO#####@ooXX .",
"##########OOO#####OOOOOOO########@ooXX .",
"####################OOOOOOOO#####@ooXX .",
"####################OOOOOOOO#####@ooXX .",
"####OOOOOOOOOOOOOOOOOOOOOOOOOOO##@ooXX .",
"####OOOOOOOOOOOOOOOOOOOOOOOOOOO##@ooXX .",
"O####################OOOO########@ooXX .",
"O#####OOOO#######################@ooXX .",
"O#####OOOO#######################@ooXX .",
"O################################@ooXX .",
"O################################@ooXX .",
"O###############OO###############@ooXX .",
"OOOO##OOOOO######################@ooXX .",
"OOOO##OOOOO######################@ooXX .",
"OOOOOOOOOOOOOOOOOOOOOOOOOOOOOOO##@ooXX .",
"##########OOOOOOOOOO#############@ooXX .",
"##########OOOOOOOOOO#############@ooXX .",
"##################OOO#######+####@ooXX .",
"##################OOO#######+####@ooXX .",
"##################OOO############@ooXX .",
"##########OOO#####OOOOOOO########@ooXX .",
"####################OOOOOOOO#####@ooXX .",
"####################OOOOOOOO#####@ooXX .",
"####################OOOOOOOO#####@ooXX .",
"OOOOOOOOOOOOOOOOOO##OOOOOOOOOOO##@ooXX ."
};
