/* XPM */
static char *out[] = {
/* columns rows colors chars-per-pixel */
"40 40 10 1 ",
"  c #251C0E",
". c #251F17",
"X c #282119",
"o c #2C251D",
"O c #412E1E",
"+ c #553C28",
"@ c #6E4628",
"# c #75472B",
"$ c #644530",
"% c #734E37",
/* pixels */
"XXXXXXXXXXXXXXXXXXXXXXXXXXXXXXXoooX.....",
"XXXXXXXXXXXXXXXXXXXXXXXXXXXXXXXoooX.....",
"                              XoooX.....",
"                              XoooX.....",
"                                       .",
"OOOOOOOOOOOOOOOOOOOOOOOOOOOOOO         .",
"++++++++++++++++++++++++++++++OOO      .",
"+++++++++++++++++++++++++++++++++++O   .",
"+++++++++++++++++++++++++++++++++++O   .",
"$$$$$$$$$$$$$$$$$$$$$$$$$$$$$$+++++O   .",
"$$$$$$$$$$$$$$$$$$$$$$$$$$$$$$$$$++OOO X",
"@@@@@@@@@@@@@@@@@@@@%%%@@@@@@@@$$++OOO X",
"%@@@@%%%%%%%%%%%%%@@@%%%%%%%%%%$$$++OO o",
"%@@@@%%%%%%%%%%%%%@@@%%%%%%%%%%$$$++OO o",
"%@@@@%%%%%%%%%%%%%@@@%%%%%%%%%%$$$++OO o",
"%%%%%%%%%%%%%%%%%%@@@%%%%%@@%%%%%$++OO o",
"%%%%%%%%%%@@@%%%%%@@@@@@@%%%%%%%%$++OO o",
"%%%%%%%%%%%%%%%%%%%%@@@@@@@@%%%%%$++OO o",
"%%%%%%%%%%%%%%%%%%%%@@@@@@@@%%%%%$++OO o",
"%%%%@@@@@@@@@@@@@@@@@@@@@@@@@@@%%$++OO o",
"%%%%@@@@@@@@@@@@@@@@@@@@@@@@@@@%%$++OO o",
"@%%%%%%%%%%%%%%%%%%%%@@@@%%%%%%%%$++OO o",
"@%%%%%@@@@%%%%%%%%%%%%%%%%%%%%%%%$++OO o",
"@%%%%%@@@@%%%%%%%%%%%%%%%%%%%%%%%$++OO o",
"@%%%%%%%%%%%%%%%%%%%%%%%%%%%%%%%%$++OO o",
"@%%%%%%%%%%%%%%%%%%%%%%%%%%%%%%%%$++OO o",
"@%%%%%%%%%%%%%%%@@%%%%%%%%%%%%%%%$++OO o",
"@@@@%%@@@@@%%%%%%%%%%%%%%%%%%%%%%$++OO o",
"@@@@%%@@@@@%%%%%%%%%%%%%%%%%%%%%%$++OO o",
"@@@@@@@@@@@@@@@@@@@@@@@@@@@@@@@%%$++OO o",
"%%%%%%%%%%@@@@@@@@@@%%%%%%%%%%%%%$++OO o",
"%%%%%%%%%%@@@@@@@@@@%%%%%%%%%%%%%$++OO o",
"%%%%%%%%%%%%%%%%%%@@@%%%%%%%#%%%%$++OO o",
"%%%%%%%%%%%%%%%%%%@@@%%%%%%%#%%%%$++OO o",
"%%%%%%%%%%%%%%%%%%@@@%%%%%%%%%%%%$++OO o",
"%%%%%%%%%%@@@%%%%%@@@@@@@%%%%%%%%$++OO o",
"%%%%%%%%%%%%%%%%%%%%@@@@@@@@%%%%%$++OO o",
"%%%%%%%%%%%%%%%%%%%%@@@@@@@@%%%%%$++OO o",
"%%%%%%%%%%%%%%%%%%%%@@@@@@@@%%%%%$++OO o",
"@@@@@@@@@@@@@@@@@@%%@@@@@@@@@@@%%$++OO o"
};
