/* XPM */
static char *a8eb7461904043008f12f44937751b6cOTqiox8nydGp97RU[] = {
/* columns rows colors chars-per-pixel */
"28 42 6 1 ",
"  c None",
". c #080000",
"X c #886865",
"o c #FFF200",
"O c #DBC8C6",
"+ c white",
/* pixels */
"     .                .     ",
"    ..                ..    ",
"   ...                ...   ",
"  ....    ........    ....  ",
"  ....  ............  ....  ",
" ..oo.....XOOOOOOX.....oo.. ",
" ..oo...O++++++++++O...oo.. ",
" .....O++++++++++++++O..... ",
"  ...O++++++++++++++++O...  ",
"  ..O++++++++++++++++++O..  ",
"  ..++++++++++++++++++++..  ",
" ..O++++++++++++++++++++O.. ",
" ..+X.O++.+++++++++O...O+.. ",
"..O+.++O.X+++++++++.....+X..",
"..O+++O++++++++++++.....+O..",
"..O+++.++++++++++++.....+O..",
"..O+++X.+++++++++++O...O+O..",
"..O+++++++++++X+++X++++++O..",
"..XO...........O++......OX..",
" ..O...........X++......O.. ",
" ..XO...........++.....OX.. ",
"  ..XO..........++....OX..  ",
"  ...X+O........++..X+X...  ",
"   ...X++O.....X++XOOX...   ",
"   ....X++++++++OOOX.....   ",
"  ......++XXOOOOOX........  ",
" ..XX...OO.............XX.. ",
"..OO..O......oo...XOOO..OO..",
"..O..OO+.....oo..XOO+OO..O..",
"....O+O+++O.....X++++O+O....",
" ...++O+++++X...+++++X++... ",
" ..O++X++++++X.++++++X++O.. ",
" ..++O.O++++OO.O++++O.O++.. ",
" ..+O..XOOOO++.+OOOOX..O+.. ",
"  ......XOOOO+X+OOOX......  ",
"   ... ...XOOOOOOX... ...   ",
"        ....XOOX....        ",
"         ..XOOOOX..         ",
"         ..XOOOOX..         ",
"         ...XOOX...         ",
"          ........          ",
"            ....            "
};
