/* XPM */
static char *b2cfd21c720b41cd9f801d32fc83d3babJz4UGOOJOhswex8[] = {
/* columns rows colors chars-per-pixel */
"40 40 3 1 ",
"  c black",
". c #99E550",
"X c #F200FF",
/* pixels */
"X    X X XXX   XXXXXXXXXXXX X    X   X X",
"X...................................... ",
"X...................................... ",
" ......................................X",
" .....  ...     ....................... ",
" ...   ... .... .......................X",
"X... ..... .... ........      ......... ",
" ... ..... ...  ............    ....... ",
" ...  .... .   ............. ..........X",
"X....   ..   ...     ....... .......... ",
" ......  . ..... ... ... ... .....   .. ",
" ....... . ..... ... ... ... ....  .... ",
"X....... . .....     ... ... .... .....X",
"X......  . .....  ...... ... .... ..... ",
"X.....  .. .....   ..... ... ....    .. ",
"X..    ... ..... . ..... ... .... .....X",
" ............... .  .... ... .... ..... ",
" .................. .... ... ...      . ",
"X..................  ...........   .. . ",
" ......................................X",
" ......................................X",
"X......................................X",
"X......................................X",
"X......................................X",
"X.......   ............................ ",
" .....   .............................. ",
"X....  ......    .    ................. ",
" ...  .......  . . ..  ........  ...... ",
"X...     ....    . .   .   ...    ..... ",
" ... ........  ...   ... .  ..  . .....X",
" ... ........   ..  ... ...  .    ..... ",
"X....      .. . .. . .. .... .    .....X",
" ..............  . .  . .... .  .  .... ",
" ............... ....    ... .  ..  ...X",
" .......................     .  ... ... ",
" ................................... .. ",
" ................................... .. ",
" ...................................... ",
" ......................................X",
"    XX XXXXXXXXXXX XXX    X  XX  XXXX  X"
};
