/* XPM */
static char *_c069451ecb04841f16f81b67a61efcfCfjgYu0LkS8EdXFq[] = {
/* columns rows colors chars-per-pixel */
"30 30 6 1 ",
"  c None",
". c #4C0000",
"X c red",
"o c #FF2A2A",
"O c #FF5555",
"+ c #FF8080",
/* pixels */
"                              ",
"                              ",
"                              ",
"      XooooXXX  XXXooXXX      ",
"      XooooXXX  XXXooXXX      ",
"     XXooOOoXXXXXXoooXXXX     ",
"   XXXoOOOOoooXXoooooXXoXXX   ",
"   XXoO++..+OOOoOOo..XXXXXX   ",
"   XXoO++..+OOOoOOo..XXXXXX   ",
"   oooO++....OOoo....XXXXXX   ",
"   ooOOOO....OOoo....ooXoXX   ",
"   XXoOOO+O..OOoo..ooXXXXXX   ",
"   XXoOOOoO..Oooo..XoXXXXXX   ",
"   XXoOOOoO..Oooo..XoXXXXXX   ",
"   XXoooooo..ooOo..oXXXXXXX   ",
"     XoXXooooooooooXXXXXX     ",
"      XooooOooooooXoXXXX      ",
"      XooooOooooooXoXXXX      ",
"      XXXoooooXXXXXXXXXX      ",
"       XXXXXXXXoXXXXXXX       ",
"         XXoXXXXXXXXX         ",
"          XXXXXXXXXX          ",
"          XXXXXXXXXX          ",
"           XXXoXXXX           ",
"            XXXXXX            ",
"              XX              ",
"              XX              ",
"                              ",
"                              ",
"                              "
};
