/* XPM */
static char *fa76f2544a4c4ee7df1da006279eb6c1tQ1ucgNJoV2g7cTD[] = {
/* columns rows colors chars-per-pixel */
"64 64 215 2 ",
"   c None",
".  c #040404",
"X  c #07080A",
"o  c #0A0B0C",
"O  c #070709",
"+  c #0D0F11",
"@  c #0E1012",
"#  c #111315",
"$  c #121619",
"%  c #15191D",
"&  c #191C1F",
"*  c #171C21",
"=  c #1A1E22",
"-  c #1C2125",
";  c #1D242B",
":  c #1E282E",
">  c #1F2930",
",  c #212324",
"<  c #22272C",
"1  c #24292D",
"2  c #2B2E2F",
"3  c #232C33",
"4  c #252E39",
"5  c #282E31",
"6  c #2C3035",
"7  c #27313B",
"8  c #2B333B",
"9  c #27333A",
"0  c #34383C",
"q  c #2E3A43",
"w  c #2E3B49",
"e  c #2B3742",
"r  c #323B43",
"t  c #323E49",
"y  c #3A3F43",
"u  c #35424C",
"i  c #39444F",
"p  c #3D4145",
"a  c #354352",
"s  c #3C4A55",
"d  c #3C4C5A",
"f  c #374755",
"g  c #3F505E",
"h  c #3F5364",
"j  c #3C4F60",
"k  c #43494F",
"l  c #444D55",
"z  c #4C5155",
"x  c #43525D",
"c  c #4D545C",
"v  c #565A5E",
"b  c #435463",
"n  c #465865",
"m  c #495964",
"M  c #425669",
"N  c #465A6A",
"B  c #495D6C",
"V  c #485761",
"C  c #525C64",
"Z  c #575F65",
"A  c #485E73",
"S  c #4D616E",
"D  c #5D6163",
"F  c #54626C",
"G  c #5D646A",
"H  c #4D6373",
"J  c #4C657B",
"K  c #4E697D",
"L  c #526675",
"P  c #536976",
"I  c #5C6A74",
"U  c #536A7B",
"Y  c #596E7C",
"T  c #51657B",
"R  c #5C717D",
"E  c #65686A",
"W  c #696E73",
"Q  c #65727C",
"!  c #6E7377",
"~  c #70767C",
"^  c #546D85",
"/  c #596E82",
"(  c #577185",
")  c #5B7384",
"_  c #55728B",
"`  c #5B7589",
"'  c #5D788A",
"]  c #567594",
"[  c #5C7A93",
"{  c #5B7C9B",
"}  c #587793",
"|  c #4F6986",
" . c #617585",
".. c #637C8B",
"X. c #6B7B87",
"o. c #787D81",
"O. c #627D92",
"+. c #627F9B",
"@. c #5E839C",
"#. c #7C8389",
"$. c #658295",
"%. c #6B8595",
"&. c #63839C",
"*. c #6A8599",
"=. c #6D8A9C",
"-. c #69899A",
";. c #768593",
":. c #718B9A",
">. c #7A8B97",
",. c #6B808F",
"<. c #5F80A0",
"1. c #6386A2",
"2. c #668AA6",
"3. c #6B8CA4",
"4. c #6A8DAA",
"5. c #718FA6",
"6. c #6E92AD",
"7. c #6E91A7",
"8. c #7392A4",
"9. c #7395AC",
"0. c #7799AE",
"q. c #7B9AAC",
"w. c #7A92A2",
"e. c #7296B1",
"r. c #759AB4",
"t. c #7B9DB4",
"y. c #769CB9",
"u. c #799EBA",
"i. c #7E96B0",
"p. c #7EA1B5",
"a. c #7CA2BC",
"s. c #7DA6C0",
"d. c #81888D",
"f. c #8A8E91",
"g. c #858C93",
"h. c #84939F",
"j. c #91999F",
"k. c #8296A4",
"l. c #8799A7",
"z. c #959DA2",
"x. c #859CB5",
"c. c #8FA1AE",
"v. c #9AA4AC",
"b. c #84A1B4",
"n. c #81A4BA",
"m. c #84A8BE",
"M. c #8AA5B8",
"N. c #96ABBB",
"B. c #A5AAAE",
"V. c #A6ABB2",
"C. c #A9B2B9",
"Z. c #80A7C1",
"A. c #83ABC4",
"S. c #8AADC4",
"D. c #86AFC9",
"F. c #8DAEC8",
"G. c #8BB0C4",
"H. c #86B1CB",
"J. c #8BB3CC",
"K. c #86B0C6",
"L. c #91B5CB",
"P. c #98B5C8",
"I. c #8CB6D1",
"U. c #8EBAD3",
"Y. c #92BCD5",
"T. c #93BFD8",
"R. c #9BB9D0",
"E. c #A4BACD",
"W. c #ACBDCE",
"Q. c #A5B7C6",
"!. c #B6BEC6",
"~. c #A7BED1",
"^. c #9CC2D6",
"/. c #96C2DB",
"(. c #9CC4DC",
"). c #9EC8DE",
"_. c #94C0D7",
"`. c #AFC1CF",
"'. c #BBC4CB",
"]. c #A3C2D6",
"[. c #ABC2D3",
"{. c #A3C5DB",
"}. c #A2C9DE",
"|. c #A9C5D8",
" X c #B1CADC",
".X c #B9C6D4",
"XX c #9FC9E1",
"oX c #A3CBE2",
"OX c #AACEE3",
"+X c #B2CEE2",
"@X c #ADD0E5",
"#X c #B3D1E6",
"$X c #B5D4E9",
"%X c #BAD6EA",
"&X c #BCDAEC",
"*X c #BDD4E5",
"=X c #C7C9CB",
"-X c #C9CFD1",
";X c #CBD1DA",
":X c #C1D6E9",
">X c #C4DAEC",
",X c #CADDEE",
"<X c #C4D7E6",
"1X c #D2DDE4",
"2X c #C7DFF0",
"3X c #DAE4EB",
"4X c #CDE2F2",
"5X c #D4E4F3",
"6X c #D9E7F3",
"7X c #DCE9F5",
"8X c #E3ECF5",
"9X c #EDEFF3",
"0X c #EAF2F7",
"qX c #F7F9FA",
"wX c #E1E4E7",
/* pixels */
"                                                                                                                                ",
"                                                                                                                                ",
"                                                                                                                                ",
"                                                          o                                                                     ",
"                                                          =                                                                     ",
"                                                          S =             X               -                                     ",
"                                                          .. .            l               g.p                                   ",
"                                                          :.{.r         5 l.            z 3X6                                   ",
"                                                        X p.oXP.-   o X F  X& 1 6 3 X $ .X1X<             & .                   ",
"                                              ;         * L.(.oX%.F P.;.q.#Xx `.4X2XX.l.,X<X-           1 V.<                   ",
"                                              $.s       9 (.(.(.XX(.}.m /.oXq.C #XN.:.#X#X*XW C.D $   , '.C..                   ",
"                                              Y Y.u % m ..(.(.(.(.(.*.%.(.(.(.%.)./.).).oX@X;.,X7X1Xo.0 #.E                     ",
"                                              x (.T.' /.(.(.(.(.(.(.n./.(.(.8.(.(.(.(.(.(.XXL.OX$X,X7X0XB.<                     ",
"                                              q (.(.(.(.T.(.(.(.(.(.(.(.(.^.S t.(.(.(.(.(.(.(.(.).OX%X5X8X3Xv                   ",
"                                      d -   q P (.(.(.(.B Y.(.(.(.(.(.(.(.m.0.) (.(.(.(.(.K.$.O.D.(.oX$X4X8X8XE                 ",
"                                      % 8.u %._.(.(.(.(.%. ._.(.(.(.(.(.(.$.J.S.0.(.(.(.S.$ $ $ X 3 ) ^.%X4X8X9Xz               ",
"                                        9 Y.=.U J.(.(.(...L.P Y.(.(.(.(.(.P (.(.b.J.(._.H.n.a.r.4.K - 4 OX%X5X8X3X6             ",
"                        O 8           H g P _./.8.H.(.(.R (.Y.=./.(.(.(.Y.D.(.(.(.(._.U.A.r.4.1.&.[ 6.$.).OX:X5X'.o..           ",
"                          4 ' b ;   U y.e.8 H.(.(.(.(.(...Y.(.(.(.(.(.(.(.(.(.(.(.(.Y.D.r.2.&.<.J A 2.A._.).].1 . , & .         ",
"                            ; O.A.*.n ` a.` .._.(.(.(.(.(.(.(.(.(.(.(.(.(.(.(.(.(._.J.a.4.1.&.U G.U 1.a._.(.^.3 %.x.x.X         ",
"                              # -.U._.J.a.a.H _.(.(.(.(.(.(.(.(.(.(.(.(.(.(.(.(.(.T.D.r.2.1.U Y.OX8.^ y.Y.).OXF.4.T 6.9         ",
"                              + 8 9.Y.(._.U.D.(.oX(.(.(.(.(.(.(.(.(.(.(.(.(.(.(./.Y.A.e.1.P Y.OX$XL.N y.Y.}.|.t.^ s +.i ~ B.d.3 ",
"                              b &.b J._.(.(.%.Y :.m.(.(.(.(.(.(.(.(.(.(.(.(.(.(./.Y.Z.6._ m.OX[.+X^.b a._.oX~.4.( }.U V o.f.    ",
"                            ; 1.4.a.U./.(.(.(.=.Y.(.(.(.(.(.(.(.(.(.(.(.(.(.(.(./.Y.s.4.$.oX#X/ ;.c.u H.(.+XE.^ w.%X.. .o       ",
"                          + B 9.a.H.T.(.(.(.(./.Y.(.(.(.(.(.(.(.(.(.(.(.(.(.(.(./.Y.Z.3.F R F ^ Q.0X;Xc.n.%XE.s {.%X>.i.$       ",
"                      i J H H H P U S.(.(.(.(.(.(.(.(.(.(.(.(.(.(.(.(.(.(.(.(.(.(.T.3.d v 2 # ^ !.qX9XW.P.v.`.l $X:X;.M.y       ",
"                        3 ` a.H.T.(.n.R n B R Y.(.(.(.(.(.(.(.(.(.(.(.(.(.(.(.(.(._.H.a.j.E . U -XqX.XE.5Xz.V.Q Z C.G b.!       ",
"                          q j 3.D.Y.H.Y Y L.(.(.(.(.(.(.(.(.(.(.(.(.(.(.(.(.(.(.(.(.T.H.Q qX-XR C.;XE.,X0X#.W z d.qX9XN.g.X     ",
"                        X J 1.x ) A.Y.(./.L J.(.(.(.(.(.(.(.(.(.(.(.(.(.(.(.(.(.(.(._.U.' !.qXqX-Xx O.w.c.].6XZ G wX.X8X'.-     ",
"                        . ^ 6.s.O.' U.(.(.Y.Y.(.(.(.(.(.(.(.(.(.(.(.(.(.(.(.(.(.(.(./.T.A.c =X-Xv _ 6.A.U.XX>XC.f.V.L k..Xk     ",
"              X o o # - 3 H 0.U.Y.U._.(.(.(.(.(.(.(.(.(.(.(.(.(.(.(.(.(.(.(.(.(.(.(.(./.U.8.+ X K e.a.U._.(.OX:XW r n.|.5X!     ",
"        = o     a J a.I.T._._.(.(.(.(.(./.(.(.(.(.(.(.(.(.(.(.(.(.(.(.(.(.(.(.(.(.(.(.(._.I.H S a.D.U._.(.(.).$X~.I ].$X5X#.    ",
"      a { | $       $ i 8.D.Y.(.(.(.L...Y.(.(.(.(.(.(.t.F F %.G.(.(.(.(.(.(.(.(.(.(.(.(./.9.*.0.a._./.(.(.(.t.M.>Xz.l.%X5Xf.    ",
"    @ ] { 4._ -         + N t.Y.S.) ' _.(.(.(.(.(.(.V k h.Q.l.l u =.^.L.J.(.(.(.(.(.(.(.(._.Y D.J.(.(.(.(.8.b.E.N.h.C ,X5Xz.    ",
"    7 { r.D.a.[ %       ; } 1.x V H././.(.(.(.(.(.Y Q %X&X:X>X,X[.X.l Z L.(.(.(.(.(.(.(.(.(.d Y.(.(.(.(.=.c.%X&X&X+X>.,X5Xv.    ",
"    f 6.D.H.D.u.` 3 # @ ; } 2.y.3.P P ' _.(.(.(.b.x }.oXoXoXOXOXOX@XOX}._._.(.(.(.(.(.(.(.(.J.(.(.(.(.S.k.%X%X~.|.I  X,X6XV.    ",
"    h 6.4.1.1.2.4.1._ ] ; { ( r.a.u.u.D._.(.(.S.x Y.(.(.(.(.(./.Y.H.*.u q A./.(.(.(.(.(.(.(.(.(.(.(.Y.:.OXOXoX) $.s $X,X6XB.    ",
"    d } J w q M { @.{ { 3 N 0._.T.Y.U.Y.(.9.m d p.Y.Y.Y.(._.T.D.' q M &.6.D._.(.(.(.(.(.(.(.(.(.(.(.P =.0.q...$.}.:.N.,X7Xz.    ",
"    4 J %       7 ] { J 8 A._.(.(.(.(.(.(.` t 2.*.7.=.H.U.J.-.N q &.6.a.D.T.(.(.(.(.(.(.(.(.(.(.(...*.B L.OX#X+XP.#Xk.,X7X#.    ",
"    e a           7 a x J.Y.Y.T./.(.(.%.S.H.( 3 u d $.r.3.U t d 1.e.D.Y./.(.(.(.(.(.(.(.(.(.(.(.(._.U.e.,.%X&X&X&X Xl.,X7XD     ",
"    3 ;           * O.a.e.3.-.9.I.(.:.8.(.T.a.4.H ; ; * - % J 4.u.H.Y./.(.(.(.(.(.(.(.(.(.(.(.(.(./.Y.u.N @X%X%X%Xk.Q.5X8X2     ",
"      O           @ @ - - $ > ( A.%.0.Y.T./.Y.A.6.2.f M ^ 2.6.a.I.T./.(.(.(.(.(.(.(.(.(.(.(.(.(.(.(.T.s.K %.oXOXL.x :X5X'.X     ",
"                    . _ { J e { u n P P U r./._.J.Z.b 9.&.u.H.Y._./.(.(.(.(.(.(.(.(.(.(.(.(.(.(.(.(._.H.6.f u r i P.,X7XD       ",
"                      b { { w A { 2.2.4.6.D._.(._.K.s / 3.U._./.(.(.(.(.(.(.(.(.(.(.(.(.(.(.(.(.(.(.(.U.A.6.2.6.F.+X,X'.+       ",
"                      q { { _ ; [ H A.D.J._.(.(.(.H.t.J.Y.(.(.(.(.(.(.(.(.(.(.(.(.(.(.(.(.(.(.(.(.(.(._.0.9.$.m.{.:X5X0         ",
"                      ; ] { _ o < S./././.(.(.(.(.(././.(.(.(.(.(.(.(.(.(.(.(.(.(.(.(.(.(.(.(.(.(.(.(.(.n.x & q.$X5X#..         ",
"                      ; ] { _ X $./.T.U.I.U._.(.(.(.(.(.(.(.(.0.(.(.(.(.(.(.(.(.(.(.(.(.(.(.(.(.(.(.(.(.(.q 9 $X,X!.o           ",
"            4 9       w { 2.^ r U.D.u.*.U 6.a.D.Y.(.(.(.(.(.(...Y./.p.t./.(.Y.a._.A.S.(.(.(.(.(.(.(.(.(.(.:.>.:XW.,             ",
"            % J a = 4 } e.r.t t.r.O.9 X ^ { 2.H A.(.(.(.(.(.(.8.n.A.B A._.(.Y.( -.P J.(.(.(.(.(.(.(.(.(.oX+X:XW.=               ",
"              < ^ +.y.A.H.P ) [ q o     - J 2.s _./.Y.I.Y.(.(.p.3.S e.H./.(.Y.A.N d _.(.(.(.(.(.(.(.(.oX$X&Xl.% .               ",
"                s &.I._.0.s a o           X : Y T.D.3.g t./.(.a.i 6.A.T.(.(.(.U.r.u U.(.(.(.(.(.OXI OX$X[.c . t t               ",
"                + d e.J.u u J $             # n.Z./ a &.a._.(.D.3.Z.U.(.(.(.(._.J.A.Y._.J.I.T.(.@XI E.Q #     t ^ @             ",
"                  . u 1.4.1.a               u a.b = &.&.6.r.(._.U.Y./.(.(.(.(.(._._._.T.-.( A.Y.OXc.@           4 7             ",
"                      * 7 3 +             + ` u     1 A 1.x (._.8.D.H.U._.(.(./.U.H.A.a.e.[ h a.Y. X8                           ",
"                                          < 3           $ 3 _.H.d 6.4.6.0.(.(.=.$.4.2.2.2.{ ; 7 t.R.F                           ",
"                                          .               = Y.P 8 d j b x (.J.9 ` H M d 3 o     9 r.x.+                         ",
"                                                          - n.$         = Y.S o     . ; 8         1 t.0                         ",
"                                                          3 B             p.t         ; f           8 )                         ",
"                                                          3 3             R %           o             q 4                       ",
"                                                                          <                             #                       ",
"                                                                                                                                ",
"                                                                                                                                ",
"                                                                                                                                ",
"                                                                                                                                "
};
