/* XPM */
static char *result[] = {
/* columns rows colors chars-per-pixel */
"30 30 255 2 ",
"   c #090101",
".  c #090202",
"X  c #0D0000",
"o  c #130101",
"O  c #130202",
"+  c #100505",
"@  c #130505",
"#  c #190606",
"$  c #180B0B",
"%  c #1E0909",
"&  c #1F0A0A",
"*  c #190E0E",
"=  c #1C1313",
"-  c #1C1919",
";  c #200101",
":  c #220B0B",
">  c #220D0D",
",  c #200F0F",
"<  c #260F0F",
"1  c #2D0808",
"2  c #290D0D",
"3  c #2F0E0E",
"4  c #3A0606",
"5  c #340D0D",
"6  c #201010",
"7  c #211212",
"8  c #211717",
"9  c #2B1010",
"0  c #281515",
"q  c #2B1515",
"w  c #2D1515",
"e  c #201818",
"r  c #231E1E",
"t  c #251D1D",
"y  c #2B1818",
"u  c #2B1919",
"i  c #2F1818",
"p  c #2F1A1A",
"a  c #2A1E1E",
"s  c #2F1E1E",
"d  c #331010",
"f  c #331515",
"g  c #301616",
"h  c #3F1212",
"j  c #3A1616",
"k  c #331D1D",
"l  c #321E1E",
"z  c #3B1818",
"x  c #3A1E1E",
"c  c #292121",
"v  c #2A2020",
"b  c #2A2222",
"n  c #2D2424",
"m  c #2E2424",
"M  c #2C2727",
"N  c #2F2828",
"B  c #312020",
"V  c #332121",
"C  c #302424",
"Z  c #342525",
"A  c #3B2424",
"S  c #3C2727",
"D  c #362A2A",
"F  c #332D2D",
"G  c #3B2929",
"H  c #3B2A2A",
"J  c #363030",
"K  c #3E3131",
"L  c #3C3232",
"P  c #3F3232",
"I  c #3E3B3B",
"U  c #410B0B",
"Y  c #460B0B",
"T  c #540909",
"R  c #4B1414",
"E  c #4B1616",
"W  c #481D1D",
"Q  c #591515",
"!  c #5F1717",
"~  c #521818",
"^  c #521A1A",
"/  c #561C1C",
"(  c #591B1B",
")  c #5F1D1D",
"_  c #641616",
"`  c #6A1616",
"'  c #611B1B",
"]  c #631E1E",
"[  c #6A1B1B",
"{  c #731717",
"}  c #701B1B",
"|  c #771B1B",
" . c #701E1E",
".. c #781D1D",
"X. c #781E1E",
"o. c #7B1E1E",
"O. c #4A2222",
"+. c #4C2727",
"@. c #412B2B",
"#. c #452828",
"$. c #472A2A",
"%. c #452C2C",
"&. c #522020",
"*. c #572020",
"=. c #532525",
"-. c #542626",
";. c #5C2020",
":. c #5F2020",
">. c #582626",
",. c #592727",
"<. c #5E2727",
"1. c #522828",
"2. c #502B2B",
"3. c #572828",
"4. c #572929",
"5. c #5C2828",
"6. c #5F2929",
"7. c #433131",
"8. c #473737",
"9. c #493333",
"0. c #4B3434",
"q. c #4F3434",
"w. c #463838",
"e. c #473939",
"r. c #493E3E",
"t. c #5B3232",
"y. c #5C3131",
"u. c #5D3131",
"i. c #5B3535",
"p. c #622323",
"a. c #672020",
"s. c #662121",
"d. c #662323",
"f. c #662626",
"g. c #6D2121",
"h. c #6A2424",
"j. c #6A2525",
"k. c #6E2525",
"l. c #602929",
"z. c #642828",
"x. c #642C2C",
"c. c #662D2D",
"v. c #652E2E",
"b. c #6A2B2B",
"n. c #6C2929",
"m. c #722222",
"M. c #712626",
"N. c #7A2121",
"B. c #7D2121",
"V. c #732A2A",
"C. c #752929",
"Z. c #712C2C",
"A. c #7B2E2E",
"S. c #7E2C2C",
"D. c #633434",
"F. c #6A3535",
"G. c #6C3737",
"H. c #4B4444",
"J. c #594747",
"K. c #554A4A",
"L. c #554E4E",
"P. c #594949",
"I. c #5E5151",
"U. c #614848",
"Y. c #7A4B4B",
"T. c #665656",
"R. c #6D5050",
"E. c #675858",
"W. c #655B5B",
"Q. c #655C5C",
"!. c #7A5252",
"~. c #705D5D",
"^. c #745D5D",
"/. c #6D6767",
"(. c #756262",
"). c #766464",
"_. c #796E6E",
"`. c #7E6F6F",
"'. c #7F7A7A",
"]. c #8A0D0D",
"[. c #811616",
"{. c #801A1A",
"}. c #862121",
"|. c #862323",
" X c #863B3B",
".X c #8B3B3B",
"XX c #9E3535",
"oX c #9F3F3F",
"OX c #AB3636",
"+X c #A73D3D",
"@X c #A53F3F",
"#X c #BA3131",
"$X c #8D4949",
"%X c #8A4E4E",
"&X c #8F4F4F",
"*X c #964141",
"=X c #924545",
"-X c #974646",
";X c #9D4141",
":X c #904B4B",
">X c #934E4E",
",X c #954C4C",
"<X c #994848",
"1X c #984F4F",
"2X c #994F4F",
"3X c #945454",
"4X c #9D5555",
"5X c #905D5D",
"6X c #9D5A5A",
"7X c #A74141",
"8X c #A54343",
"9X c #A14646",
"0X c #AD4242",
"qX c #A64949",
"wX c #A34D4D",
"eX c #A44D4D",
"rX c #A94A4A",
"tX c #B04545",
"yX c #B64B4B",
"uX c #A55050",
"iX c #A35D5D",
"pX c #AE5959",
"aX c #BD5454",
"sX c #826868",
"dX c #826E6E",
"fX c #9C6969",
"gX c #8F7777",
"hX c #937070",
"jX c #C24040",
"kX c #D75B5B",
"lX c #E86A6A",
"zX c #9A8989",
"xX c #A38888",
"cX c #B48F8F",
"vX c #B8A6A6",
"bX c #BBB1B1",
"nX c #EE8686",
"mX c #FF9999",
"MX c #D9A2A2",
"NX c #C8B3B3",
"BX c #CCBCBC",
"VX c #D8B0B0",
"CX c #E7B1B1",
"ZX c #FFBABA",
"AX c #D1C5C5",
"SX c #E7C2C2",
"DX c #FCD2D2",
"FX c #FBE0E0",
"GX c #FFE7E7",
"HX c #FFF1F1",
"JX c #FFF4F4",
"KX c #FFF5F5",
"LX c #FFF6F6",
"PX c #FFFDFD",
"IX c None",
/* pixels */
"IXIXIXIXIXIXIXIXIXIXIXIXP H.H.P.~.SXLXFX'.'.IXIXIXIXIXIXIXIX",
"IXIXIXIXIXIXIXIXIXIXIX7 c t t & @.Y.hXJ.- - 7 IXIXIXIXIXIXIX",
"IXIXIXIXIXIXIXIXIXIXIXJ r.~.~.dXvXNXJXGXzXzXQ.IXIXIXIXIXIXIX",
"IXIXIXIXIXIXIXIXIXIXIX-   # #   i X 0.q G G n IXIXIXIXIXIXIX",
"IXIXIXIXIXIXIXIXIXIXIX-   # #   i X 0.q G G n IXIXIXIXIXIXIX",
"IXIXIXIXIXIXIXIXIXIXIXK w.^.^.^.zXfXSXcXSXSX'.IXIXIXIXIXIXIX",
"IXIXIXIXIXL W.D D _.B # # A A   x E Y.: j j e IXIXIXIXIXIXIX",
"IXIXIXIXV W.%.~.~.JXzXA 7.sXsXq.sXgXGXcXFXFXdXIXIXIXIXIXIXIX",
"IXIXIXIXe.$ y i i cXR.w 8 6 6 < : < i q O O , IXIXIXIXIXIXIX",
"IXIXIXIXa I.~.    p O C K.H H = 3 Z T.J.n n N V IXIXIXIXIXIX",
"IXIXIXH._.gXg e e w.K J H l l - > t r.F b b F H.V IXIXIXIXIX",
"IXIX/.vXy IXIXU.U.%.Z v % . . . & 0 K.`.).).8 M L d IXIXIXIX",
"7.7.AX  IXIXIXJ.J.B k u * @ @ o ; 1 (.BXbXbXI 0 $.t.d IXIXIX",
"bXbXIX: IXIXzX-.-./ Z.C.p.( ( A.qX4XVXPXJXJXAX!.5.b.&.5 5 IX",
"AXAXIX2 R.NXE.l.l.3XeX} _ S.S.;X0XaXMXPXPXPXKX6X` { v.W W IX",
"AXAXIX2 R.NXE.l.l.3XeX} _ S.S.;X0XaXMXPXPXPXKX6X` { v.W W IX",
"r.r.FXSXNXk k S S i.d.] c.^ ^ M.9XOXiXDXKXKXHXwX|.[.6.4.4.f ",
"IXIXr 0.IXG m f f z +.t.U :.:.' A.yXtX:XHXHXKX<XX.| a.F.F.z ",
"IXIXIX8.IXD - o o , 9 W *.p.p.Z..XXXaXpXCXCXDXtXXXS.o.=X=X5.",
"IXIXIXE.IX9.9 + + s O.O.G.~ ~ ) n.uXnX8X,X,XqX#XjX9X[.;X;Xh.",
"IXIXIXQ.IXi.<.1 1 5 i.3.!.y.y.R h l.pXwXN.N.@X#XjXN.{.S.S.:.",
"IXIXIX(.IXD. X[ [ T >Xx.u.#.#., $ f n.! } } {.jXyX=Xm.p.p.+.",
"IXIXIXL.IX/ 9X0X0X|.*Xz.z f f @ @ 5 4 a.V.V.eXtXoXV.:.=.=.S ",
"IXIXIXr S R yXkXkXaX` f.4.1.1.O.>.<.! a.V.V. XtXB.d.( 3.3.9 ",
"IXIXIXL.xXn.7XlXlXmXB.%XF.Y Y k.-XM. .C.Q Q S.8XB.h.s.v.v.IX",
"IXIXIXL.xXn.7XlXlXmXB.%XF.Y Y k.-XM. .C.Q Q S.8XB.h.s.v.v.IX",
"IXIXIXzXGXIXp.$X$XZX8X<X' h.h.j.<X} eX......} g.p.6.k.&.&.IX",
"IXIXIXR.IXIXIX2X2XZXlXjX].|.|.[.}.0X+X0X0X0X}.N.[ h.;.IXIXIX",
"IXIXdXFXIXIXIXIXIXiXaXkXtX0X0XrX;X7X|.oXrXrX*XC.b.<.IXIXIXIX",
"IXIXIXIXIXIXIXIXIXIXD.%X6.,.,.%X1X1X1X%X&X&X5X2.e.IXIXIXIXIX"
};
