/* XPM */
static char *_ff89b14471e42f79adabe5f1757ee4fjDxFlhbBE1DHpTfQ[] = {
/* columns rows colors chars-per-pixel */
"23 28 11 1 ",
"  c None",
". c gray19",
"X c #313131",
"o c gray20",
"O c gray27",
"+ c DimGray",
"@ c #6A6A6A",
"# c gray55",
"$ c #8D8D8D",
"% c #AAAAAA",
"& c gray67",
/* pixels */
"        o              ",
"  o    o$o    o     o  ",
" o$o   o%O   o$o   O$o ",
" o%o  o$%$o  o%o   o%o ",
"o$%$O o%%%o o$%+o o$%$o",
"o%+%o o+%+o o%%%o o%%%o",
"o+%+o OO+oo o+%+o o+%+O",
"oo+oo ooOoo oO+Oo oO+oo",
"oOooo  ooo  ooooo ooOoo",
" ooo o  o  o ooo o ooo ",
"  o o$o   o$o o o$o o  ",
"    o%o   o%o   o%o    ",
"   o+%$o o$%$o o$%$o   ",
"   o%%%o o%%%o o%+%o   ",
"   O+%+o o+%+O O+%+O   ",
"   oo+oo oo+oo oo+Oo   ",
"   ooOoo ooOoo ooOoo   ",
"  o ooo o ooo   ooo    ",
" o$o o o$o o  o  o     ",
" o%o   o%o   o$o   oo  ",
"o$%$o o$%$o  o%o  o$%o ",
"o%%%O o%%%o o$+$o o%%%o",
"o+%+o o+%+O o%%%O O+%+o",
"Oo+oo oo+oo o+%+o oO+OO",
"ooOoo ooOoo OO+Oo ooooo",
" ooo   ooo  ooooo  ooo ",
"  o     o    ooo    o  ",
"              o        "
};
