/* XPM */
static char *d0e58392051145ed9debe659571ebdf1pHlAOXcE2PSWSIGc[] = {
/* columns rows colors chars-per-pixel */
"40 40 3 1 ",
"  c black",
". c #14100D",
"X c #141210",
/* pixels */
"X X   X  XX XX  X  XXX X  X  X  XXX X X ",
"X XXX X X      XXXXXXX     XX XX XXX X X",
"X        X  X  XXXXX  X  XXXX  X   X X  ",
"    XXX  XXX      X  X XXX   XX XX XX   ",
" X   X XX  X XX  X  X     X X XX XXX  X ",
"XX X X XXXX XX X XX X.XX  XX  XX.X      ",
" XX  X XXXXXX XXXX X XX  X  X X XXXX  X ",
" XX  XX  X X XXXX XXXXXXX  X   X XXXX X ",
"XXXX XXX  XX X XXXX XXXX XXX XX XXX     ",
" XXXX  X XX  X  XXXXX  XXXXXXX      X XX",
"XX XX XX  XXXXXXX  XXX  XXX XX  X  X XXX",
"XX     X XXXXXXXX  X  XXXX   XXX   XXX X",
" X X X XXX   X  X X XX     X X  X X X X ",
"XX XX  X XX XXXX X    X  X      XX X X X",
" XXXXX     X XXXXXXX  XX X        X    X",
"XX  XXXXXX XXX    XXX     X      XX XX  ",
"XXXX X X X   X   X   X    X   XXX  X    ",
"XXXX     XXXXX XXX X XXX   XX   X     XX",
"     X XX   X X   X   XX  X X    XXXX XX",
"XXXX  XX X      X      X XXX   X X XX X ",
"XXX    XX X    X   XX   XX X  XX  X XXX ",
"X  X  X X  X       X  X   XX XXX  XXXXXX",
"X  XX  X    X  X  XX XX X   XX   XX X XX",
" X XXXX          XXXX  XXX   X X XXX XX ",
"X   X X X      X   XX    X X X X   XX X ",
" X  X  XX X X XXX X X   X X XX   X   X X",
" X XXXXX X        X XX   XXXXXXX     XX ",
"XXX   X X XXX X XX    X X    XXXXXXX  X ",
"X  X X X XX  XX XX          XXX  XX XX  ",
"X   X X XX X XX  X  XXXX X   XXX XX X XX",
" XX X XXXXXX     XXXXXXX  X X   XXX     ",
"  X     XX XX X XXXXXX X XXXXXXX  XXX   ",
"  X X XX X X X X  X XX XXXX  XX X XX XX ",
"   X      XXXXXXX X X     X  XX X X     ",
" XX    XXX XX XX XXXX   X  XX  X  XX    ",
" XXX  XX XXX   XXX XX XXXXXX XX XX      ",
"  X  XXX  XXXX XXXXXXXXX   X  XXX X     ",
"   X    XXXX XXX XX  X  XX XX  XX XXX X ",
"    XXX  XXX  X X XX X  X XX X   XXX    ",
"   XX XXX X X  X      XX X  XXX  X   X  "
};
